#N canvas 639 22 448 309 10;
#X declare -lib cyclone -lib unauthorized;
#X msg -6 234 [;
#X msg -212 234 ];
#X msg -307 233 disconnect;
#X obj -212 205 t b list b;
#X obj -372 172 loadbang;
#X obj -212 174 pack;
#X obj -245 283 sendOSC;
#X floatatom -109 115 5 0 0 0 - - -;
#X floatatom -303 108 5 0 0 0 - - -;
#X text -261 115 X;
#X text -126 114 Y;
#X obj -296 38 import cyclone unauthorized;
#X msg -372 205 connect localhost 11111;
#X obj -299 78 r v;
#X obj -103 73 r v1;
#X obj -180 147 t b f;
#X msg -184 234 send /AF3 \$1 \, send /F7 \$2;
#X connect 0 0 6 0;
#X connect 1 0 6 0;
#X connect 2 0 6 0;
#X connect 3 0 1 0;
#X connect 3 1 16 0;
#X connect 3 2 0 0;
#X connect 4 0 12 0;
#X connect 5 0 3 0;
#X connect 7 0 15 0;
#X connect 8 0 5 0;
#X connect 12 0 6 0;
#X connect 13 0 8 0;
#X connect 14 0 7 0;
#X connect 15 0 5 0;
#X connect 15 1 5 1;
#X connect 16 0 6 0;
