#N canvas 407 247 632 400 10;
#X declare -lib cyclone -lib unauthorized;
#X msg -18 234 [;
#X msg -212 234 ];
#X msg -300 148 disconnect;
#X obj -212 205 t b list b;
#X obj -365 87 loadbang;
#X obj -212 174 pack;
#X obj -245 283 sendOSC;
#X floatatom -168 122 5 0 0 0 - - -;
#X floatatom -212 122 5 0 0 0 - - -;
#X obj -357 25 import cyclone unauthorized;
#X obj -180 147 t b f;
#X msg -184 234 send /AF3 \$1 \, send /F7 \$2;
#X obj -212 63 r b;
#X obj -164 70 r b1;
#X msg -365 120 connect localhost 11112;
#X text -214 44 AF3;
#X text -137 98 F7;
#X msg 209 233 [;
#X msg 24 234 ];
#X obj 24 205 t b list b;
#X obj 24 174 pack;
#X floatatom 68 122 5 0 0 0 - - -;
#X floatatom 24 122 5 0 0 0 - - -;
#X obj 56 147 t b f;
#X obj 14 66 r b2;
#X obj 67 61 r b3;
#X text 23 81 F4;
#X text 76 83 F8;
#X msg 52 234 send /F4 \$1 \, send /F8 \$2;
#X obj 14 99 / 127;
#X obj 70 101 / 127;
#X obj -167 99 / 127;
#X obj -210 95 / 127;
#X connect 0 0 6 0;
#X connect 1 0 6 0;
#X connect 2 0 6 0;
#X connect 3 0 1 0;
#X connect 3 1 11 0;
#X connect 3 2 0 0;
#X connect 4 0 14 0;
#X connect 5 0 3 0;
#X connect 7 0 10 0;
#X connect 8 0 5 0;
#X connect 10 0 5 0;
#X connect 10 1 5 1;
#X connect 11 0 6 0;
#X connect 12 0 32 0;
#X connect 13 0 31 0;
#X connect 14 0 6 0;
#X connect 17 0 6 0;
#X connect 18 0 6 0;
#X connect 19 0 18 0;
#X connect 19 1 28 0;
#X connect 19 2 17 0;
#X connect 20 0 19 0;
#X connect 21 0 23 0;
#X connect 22 0 20 0;
#X connect 23 0 20 0;
#X connect 23 1 20 1;
#X connect 24 0 29 0;
#X connect 25 0 30 0;
#X connect 28 0 6 0;
#X connect 29 0 22 0;
#X connect 30 0 21 0;
#X connect 31 0 7 0;
#X connect 32 0 8 0;
