#N canvas 1 22 678 276 10;
#X declare -lib mrpeach;
#X floatatom -228 61 5 0 0 0 - - -;
#X floatatom -168 61 5 0 0 0 - - -;
#X floatatom -286 61 5 0 0 0 - - -;
#X obj -422 61 unpackOSC;
#X obj -452 83 print unpacked;
#X obj -450 5 import mrpeach;
#X text -450 41 recibiendo datos;
#X floatatom -348 61 5 0 0 0 - - -;
#X obj -285 151 s b1;
#X obj -228 114 s b2;
#X floatatom 10 61 5 0 0 0 - - -;
#X floatatom 72 61 5 0 0 0 - - -;
#X floatatom -50 61 5 0 0 0 - - -;
#X floatatom -109 61 5 0 0 0 - - -;
#X obj -109 114 s b4;
#X obj -50 114 s b5;
#X obj 10 114 s b6;
#X obj 72 114 s b7;
#X obj -168 114 s b3;
#X obj -349 150 s b;
#X obj -340 18 routeOSC /csv/AF3 /csv/F7 /csv/FC5 /csv/F8 /csv/FC6
/csv/T7 /csv/T8 /csv/O1;
#X obj -461 23 udpreceive 11113;
#X obj 126 77 average;
#X obj 125 147 print average;
#X obj 126 105 / 127;
#X obj -348 87 / 127;
#X obj -286 87 / 127;
#X obj -228 87 / 127;
#X obj -168 87 / 127;
#X obj -109 87 / 127;
#X obj -50 87 / 127;
#X obj 10 87 / 127;
#X obj 72 87 / 127;
#X obj -349 130 average;
#X connect 0 0 9 0;
#X connect 0 0 22 0;
#X connect 0 0 27 0;
#X connect 1 0 18 0;
#X connect 1 0 22 0;
#X connect 1 0 28 0;
#X connect 2 0 8 0;
#X connect 2 0 22 0;
#X connect 2 0 26 0;
#X connect 3 0 20 0;
#X connect 7 0 22 0;
#X connect 7 0 25 0;
#X connect 7 0 33 0;
#X connect 10 0 16 0;
#X connect 10 0 22 0;
#X connect 10 0 31 0;
#X connect 11 0 17 0;
#X connect 11 0 22 0;
#X connect 11 0 32 0;
#X connect 12 0 15 0;
#X connect 12 0 22 0;
#X connect 12 0 30 0;
#X connect 13 0 14 0;
#X connect 13 0 22 0;
#X connect 13 0 29 0;
#X connect 20 0 7 0;
#X connect 20 1 2 0;
#X connect 20 2 0 0;
#X connect 20 3 1 0;
#X connect 20 4 13 0;
#X connect 20 5 12 0;
#X connect 20 6 10 0;
#X connect 20 7 11 0;
#X connect 21 0 3 0;
#X connect 22 0 24 0;
#X connect 24 0 23 0;
#X connect 33 0 19 0;
