#N canvas 12 22 907 573 10;
#X declare -lib mrpeach;
#X floatatom -228 66 5 0 0 0 - - -;
#X floatatom -168 66 5 0 0 0 - - -;
#X floatatom -286 66 5 0 0 0 - - -;
#X obj -422 61 unpackOSC;
#X obj -452 83 print unpacked;
#X obj -450 5 import mrpeach;
#X text -458 22 recibiendo datos;
#X floatatom -348 66 5 0 0 0 - - -;
#X obj -348 125 s b;
#X obj -286 125 s b1;
#X obj -228 125 s b2;
#X obj -458 39 udpreceive 11113;
#X obj -348 4 routeOSC /csv/AF3 /csv/F7 /csv/F3 /csv/FC5 /csv/FC6 /csv/F4
/csv/F8 /csv/AF4;
#X floatatom 10 66 5 0 0 0 - - -;
#X floatatom 72 66 5 0 0 0 - - -;
#X floatatom -50 66 5 0 0 0 - - -;
#X floatatom -109 66 5 0 0 0 - - -;
#X obj -109 125 s b4;
#X obj -50 125 s b5;
#X obj 10 125 s b6;
#X obj 72 125 s b7;
#X obj -348 95 / 8400;
#X obj -286 95 / 8400;
#X obj -228 95 / 8400;
#X obj -168 95 / 8400;
#X obj -109 95 / 8400;
#X obj -50 95 / 8400;
#X obj 10 95 / 8400;
#X obj 72 95 / 8400;
#X floatatom -348 155 5 0 0 0 - - -;
#X floatatom -286 155 5 0 0 0 - - -;
#X floatatom -228 155 5 0 0 0 - - -;
#X obj -168 125 s b3;
#X floatatom -168 155 5 0 0 0 - - -;
#X floatatom -109 155 5 0 0 0 - - -;
#X floatatom -50 155 5 0 0 0 - - -;
#X floatatom 10 155 5 0 0 0 - - -;
#X floatatom 72 155 5 0 0 0 - - -;
#X connect 0 0 10 0;
#X connect 0 0 23 0;
#X connect 1 0 24 0;
#X connect 1 0 32 0;
#X connect 2 0 9 0;
#X connect 2 0 22 0;
#X connect 3 0 4 0;
#X connect 3 0 12 0;
#X connect 7 0 8 0;
#X connect 7 0 21 0;
#X connect 11 0 3 0;
#X connect 12 0 7 0;
#X connect 12 1 2 0;
#X connect 12 2 0 0;
#X connect 12 3 1 0;
#X connect 12 4 16 0;
#X connect 12 5 15 0;
#X connect 12 6 13 0;
#X connect 12 7 14 0;
#X connect 13 0 19 0;
#X connect 13 0 27 0;
#X connect 14 0 20 0;
#X connect 14 0 28 0;
#X connect 15 0 18 0;
#X connect 15 0 26 0;
#X connect 16 0 17 0;
#X connect 16 0 25 0;
#X connect 21 0 29 0;
#X connect 22 0 30 0;
#X connect 23 0 31 0;
#X connect 24 0 33 0;
#X connect 25 0 34 0;
#X connect 26 0 35 0;
#X connect 27 0 36 0;
#X connect 28 0 37 0;
