#N canvas 184 64 563 553 10;
#X declare -lib mrpeach;
#X floatatom -245 65 5 0 0 0 - - -;
#X floatatom -195 65 5 0 0 0 - - -;
#X floatatom -298 65 5 0 0 0 - - -;
#X obj -422 61 unpackOSC;
#X obj -452 83 print unpacked;
#X obj -450 5 import mrpeach;
#X text -458 22 recibiendo datos;
#X floatatom -348 65 5 0 0 0 - - -;
#X obj -348 4 routeOSC /csv/AF3 /csv/F7 /csv/F4 /csv/F8 /;
#X floatatom -348 122 5 0 0 0 - - -;
#X floatatom -245 121 5 0 0 0 - - -;
#X floatatom -298 120 5 0 0 0 - - -;
#X floatatom -195 122 5 0 0 0 - - -;
#X obj -348 166 s b;
#X obj -298 164 s b1;
#X obj -246 165 s b2;
#X obj -195 165 s b3;
#X obj -457 39 udpreceive 11111;
#X obj -347 90 / 8400;
#X obj -298 94 / 8400;
#X obj -246 94 / 8400;
#X obj -195 94 / 8400;
#X connect 0 0 20 0;
#X connect 1 0 21 0;
#X connect 2 0 19 0;
#X connect 3 0 4 0;
#X connect 3 0 8 0;
#X connect 7 0 18 0;
#X connect 8 0 7 0;
#X connect 8 1 2 0;
#X connect 8 2 0 0;
#X connect 8 3 1 0;
#X connect 9 0 13 0;
#X connect 10 0 15 0;
#X connect 11 0 14 0;
#X connect 12 0 16 0;
#X connect 17 0 3 0;
#X connect 18 0 9 0;
#X connect 19 0 11 0;
#X connect 20 0 10 0;
#X connect 21 0 12 0;
