#N canvas 64 22 685 513 10;
#X declare -lib mrpeach;
#X floatatom 108 54 5 0 0 0 - - -;
#X floatatom 158 54 5 0 0 0 - - -;
#X floatatom 55 54 5 0 0 0 - - -;
#X obj -69 50 unpackOSC;
#X obj -99 72 print unpacked;
#X obj -97 -6 import mrpeach;
#X text -105 11 recibiendo datos;
#X obj -104 28 udpreceive 11112;
#X floatatom 5 54 5 0 0 0 - - -;
#X obj 5 25 routeOSC /csv/AF3 /csv/F7 /csv/F4 /csv/F8 /;
#X floatatom 5 111 5 0 0 0 - - -;
#X floatatom 108 110 5 0 0 0 - - -;
#X floatatom 55 109 5 0 0 0 - - -;
#X floatatom 158 111 5 0 0 0 - - -;
#X obj 108 83 / 6000;
#X obj 158 83 / 6000;
#X obj 4 155 s v;
#X obj 56 152 s v1;
#X obj 5 82 / 5000;
#X obj 55 83 / 5000;
#X connect 0 0 14 0;
#X connect 1 0 15 0;
#X connect 2 0 19 0;
#X connect 3 0 4 0;
#X connect 3 0 9 0;
#X connect 7 0 3 0;
#X connect 8 0 18 0;
#X connect 9 0 8 0;
#X connect 9 1 2 0;
#X connect 9 2 0 0;
#X connect 9 3 1 0;
#X connect 10 0 16 0;
#X connect 12 0 17 0;
#X connect 14 0 11 0;
#X connect 15 0 13 0;
#X connect 18 0 10 0;
#X connect 19 0 12 0;
