#N canvas 41 122 678 276 10;
#X declare -lib mrpeach;
#X floatatom -228 61 5 0 0 0 - - -;
#X floatatom -168 61 5 0 0 0 - - -;
#X floatatom -286 61 5 0 0 0 - - -;
#X obj -422 61 unpackOSC;
#X obj -452 83 print unpacked;
#X obj -450 5 import mrpeach;
#X text -450 41 recibiendo datos;
#X floatatom -348 61 5 0 0 0 - - -;
#X obj -286 114 s b1;
#X obj -228 114 s b2;
#X floatatom 10 61 5 0 0 0 - - -;
#X floatatom 72 61 5 0 0 0 - - -;
#X floatatom -50 61 5 0 0 0 - - -;
#X floatatom -109 61 5 0 0 0 - - -;
#X obj -109 114 s b4;
#X obj -50 114 s b5;
#X obj 10 114 s b6;
#X obj 72 114 s b7;
#X obj -348 87 / 8400;
#X obj -286 87 / 8400;
#X obj -228 87 / 8400;
#X obj -168 87 / 8400;
#X obj -109 87 / 8400;
#X obj -50 87 / 8400;
#X obj 10 87 / 8400;
#X obj 72 87 / 8400;
#X floatatom -348 142 5 0 0 0 - - -;
#X floatatom -286 141 5 0 0 0 - - -;
#X floatatom -228 141 5 0 0 0 - - -;
#X obj -168 114 s b3;
#X floatatom -168 141 5 0 0 0 - - -;
#X floatatom -109 141 5 0 0 0 - - -;
#X floatatom -50 141 5 0 0 0 - - -;
#X floatatom 10 141 5 0 0 0 - - -;
#X floatatom 72 141 5 0 0 0 - - -;
#X obj -348 113 s b;
#X obj -348 168 s v;
#X obj -286 167 s v1;
#X obj -228 167 s v2;
#X obj -168 167 s v3;
#X obj -340 18 routeOSC /csv/AF3 /csv/F7 /csv/FC5 /csv/F8 /csv/FC6
/csv/T7 /csv/T8 /csv/O1;
#X obj -109 167 s v4;
#X obj -50 167 s v5;
#X obj 10 167 s v6;
#X obj 72 167 s v7;
#X obj -458 23 udpreceive 11112;
#X connect 0 0 9 0;
#X connect 0 0 20 0;
#X connect 1 0 21 0;
#X connect 1 0 29 0;
#X connect 2 0 8 0;
#X connect 2 0 19 0;
#X connect 3 0 4 0;
#X connect 3 0 40 0;
#X connect 7 0 18 0;
#X connect 7 0 35 0;
#X connect 10 0 16 0;
#X connect 10 0 24 0;
#X connect 11 0 17 0;
#X connect 11 0 25 0;
#X connect 12 0 15 0;
#X connect 12 0 23 0;
#X connect 13 0 14 0;
#X connect 13 0 22 0;
#X connect 18 0 26 0;
#X connect 19 0 27 0;
#X connect 20 0 28 0;
#X connect 21 0 30 0;
#X connect 22 0 31 0;
#X connect 23 0 32 0;
#X connect 24 0 33 0;
#X connect 25 0 34 0;
#X connect 26 0 36 0;
#X connect 27 0 37 0;
#X connect 28 0 38 0;
#X connect 30 0 39 0;
#X connect 31 0 41 0;
#X connect 32 0 42 0;
#X connect 33 0 43 0;
#X connect 34 0 44 0;
#X connect 40 0 7 0;
#X connect 40 1 2 0;
#X connect 40 2 0 0;
#X connect 40 3 1 0;
#X connect 40 4 13 0;
#X connect 40 5 12 0;
#X connect 40 6 10 0;
#X connect 40 7 11 0;
#X connect 45 0 3 0;
