#N canvas 667 225 1278 744 10;
#X declare -lib mrpeach;
#X obj 913 63 ctlout 1;
#X floatatom 888 42 5 0 0 0 - - -;
#X obj 888 20 -;
#X obj 888 70 vsl 15 30 0 127 0 0 empty empty empty 0 -9 0 10 -33289
-262144 -1 0 1;
#X obj 897 170 -;
#X floatatom 923 148 5 0 0 0 - - -;
#X obj 888 222 vsl 15 30 0 127 0 0 empty empty empty 0 -9 0 10 -1 -262144
-1 2400 1;
#X floatatom 925 -13 5 0 0 0 - - -;
#X floatatom 897 194 5 0 0 0 - - -;
#X floatatom 445 96 5 0 0 0 - - -;
#X obj 404 97 bng 15 250 50 0 empty empty empty 17 7 0 10 -262144 -1
-1;
#X obj 404 118 t b;
#X obj 404 72 moses;
#X obj 404 12 average;
#X floatatom 404 50 5 0 0 0 - - -;
#X floatatom 405 170 5 0 0 0 - - -;
#X floatatom 634 97 5 0 0 0 - - -;
#X obj 593 98 bng 15 250 50 0 empty empty empty 17 7 0 10 -262144 -1
-1;
#X obj 593 119 t b;
#X obj 593 73 moses;
#X obj 593 10 average;
#X floatatom 593 51 5 0 0 0 - - -;
#X floatatom 594 171 5 0 0 0 - - -;
#X floatatom 820 94 5 0 0 0 - - -;
#X obj 779 95 bng 15 250 50 0 empty empty empty 17 7 0 10 -262144 -1
-1;
#X obj 779 116 t b;
#X obj 779 70 moses;
#X obj 779 6 average;
#X floatatom 779 48 5 0 0 0 - - -;
#X floatatom 780 168 5 0 0 0 - - -;
#X obj 639 -121 bng 15 250 50 0 empty empty empty 17 7 0 10 -262144
-1 -1;
#X msg 519 -122 reset time;
#X obj 591 -121 s time;
#X floatatom 355 159 5 0 0 0 - - -;
#X obj 355 135 counter;
#X obj 384 115 bng 15 250 50 0 empty empty empty 17 7 0 10 -262144
-1 -1;
#X obj 361 92 r time;
#X floatatom 544 160 5 0 0 0 - - -;
#X obj 544 136 counter;
#X obj 573 116 bng 15 250 50 0 empty empty empty 17 7 0 10 -262144
-1 -1;
#X obj 550 93 r time;
#X floatatom 729 157 5 0 0 0 - - -;
#X obj 729 133 counter;
#X obj 758 113 bng 15 250 50 0 empty empty empty 17 7 0 10 -262144
-1 -1;
#X obj 735 90 r time;
#X obj 483 -75 average;
#X floatatom 405 219 5 0 0 0 - - -;
#X floatatom 594 220 5 0 0 0 - - -;
#X floatatom 780 218 5 0 0 0 - - -;
#X obj 483 -98 r AF3 F7 FC5 F8 FC6 T7 T8 O1;
#X obj 576 -75 s avr;
#X obj 890 -14 r avr;
#X obj 880 147 r avr;
#X floatatom 537 -75 5 0 0 0 - - -;
#X obj 594 195 + 20;
#X obj 41 -124 vsl 30 40 0 1023 0 0 empty empty empty 0 -9 0 10 -1
-262144 -1 2700 1;
#X floatatom 41 -81 5 0 0 0 - - -;
#X obj 99 -125 vsl 30 40 0 1023 0 0 empty empty empty 0 -9 0 10 -1
-262144 -1 1100 1;
#X obj 158 -125 vsl 30 40 1 1023 0 0 empty empty empty 0 -9 0 10 -1
-262144 -1 1600 1;
#X floatatom 158 -81 5 0 0 0 - - -;
#X obj 213 -125 vsl 30 40 1 1023 0 0 empty empty empty 0 -9 0 10 -1
-262144 -1 1000 1;
#X floatatom 213 -81 5 0 0 0 - - -;
#X floatatom 99 -81 5 0 0 0 - - -;
#X obj 269 -125 vsl 30 40 1 1023 0 0 empty empty empty 0 -9 0 10 -1
-262144 -1 2000 1;
#X floatatom 269 -81 5 0 0 0 - - -;
#X obj 41 -65 s datos1;
#X obj 99 -65 s datos2;
#X obj 213 -65 s datos4;
#X obj 269 -65 s datos5;
#X obj 347 243 makenote;
#X floatatom 405 243 5 0 0 0 - - -;
#X floatatom 443 243 5 0 0 0 - - -;
#X obj 539 245 makenote;
#X floatatom 597 245 5 0 0 0 - - -;
#X floatatom 635 245 5 0 0 0 - - -;
#X obj 723 245 makenote;
#X floatatom 781 245 5 0 0 0 - - -;
#X floatatom 819 245 5 0 0 0 - - -;
#X floatatom 978 38 5 0 0 0 - - -;
#X obj 978 16 -;
#X obj 978 66 vsl 15 30 0 127 0 0 empty empty empty 0 -9 0 10 -33289
-262144 -1 2000 1;
#X obj 987 166 -;
#X floatatom 1013 144 5 0 0 0 - - -;
#X obj 978 218 vsl 15 30 0 127 0 0 empty empty empty 0 -9 0 10 -1 -262144
-1 0 1;
#X floatatom 1003 -7 5 0 0 0 - - -;
#X floatatom 987 190 5 0 0 0 - - -;
#X obj 960 -8 r avr;
#X obj 970 143 r avr;
#X floatatom 1072 36 5 0 0 0 - - -;
#X obj 1072 14 -;
#X obj 1072 64 vsl 15 30 0 127 0 0 empty empty empty 0 -9 0 10 -33289
-262144 -1 1600 1;
#X obj 1076 162 -;
#X floatatom 1102 140 5 0 0 0 - - -;
#X obj 1067 214 vsl 15 30 0 127 0 0 empty empty empty 0 -9 0 10 -1
-262144 -1 0 1;
#X floatatom 1097 -9 5 0 0 0 - - -;
#X floatatom 1076 186 5 0 0 0 - - -;
#X obj 1054 -10 r avr;
#X obj 1059 139 r avr;
#X obj 1003 59 ctlout 2;
#X obj 1097 57 ctlout 3;
#X obj 913 218 ctlout 4;
#X obj 1003 214 ctlout 5;
#X obj 1092 210 ctlout 2;
#X obj 889 116 s ctl1;
#X obj 979 112 s ctl2;
#X obj 1073 110 s ctl3;
#X obj 888 264 s ctl4;
#X obj 978 260 s ctl5;
#X obj 1066 257 s ctl6;
#X obj -93 -62 hradio 20 1 0 6 empty empty empty 0 -8 0 10 -262144
-1 -1 2;
#X obj 404 -8 r datosP3;
#X text -93 -79 127;
#X text -70 -79 63;
#X text -51 -79 31;
#X text -29 -79 15;
#X text -6 -79 7;
#X text 13 -79 3;
#N canvas 70 200 450 300 on/off 0;
#X obj 40 76 route 0 1 2 3 4 5;
#X obj 40 43 inlet;
#X obj 41 106 outlet;
#X obj 51 113 outlet;
#X obj 64 115 outlet;
#X obj 81 121 outlet;
#X obj 95 130 outlet;
#X obj 111 138 outlet;
#X obj 126 145 outlet;
#X connect 0 0 2 0;
#X connect 0 1 3 0;
#X connect 0 2 4 0;
#X connect 0 3 5 0;
#X connect 0 4 6 0;
#X connect 0 5 7 0;
#X connect 0 6 8 0;
#X connect 1 0 0 0;
#X restore -93 -41 pd on/off;
#X obj -93 -24 tgl 12 0 empty empty empty 8 -8 0 10 -262144 -1 -1 0
1;
#X obj -71 -24 tgl 12 0 empty empty empty 8 -8 0 10 -262144 -1 -1 0
1;
#X obj -49 -24 tgl 12 0 empty empty empty 8 -8 0 10 -262144 -1 -1 1
1;
#X obj -26 -24 tgl 12 0 empty empty empty 8 -8 0 10 -262144 -1 -1 0
1;
#X obj -4 -24 tgl 12 0 empty empty empty 8 -8 0 10 -262144 -1 -1 0
1;
#X obj 15 -24 tgl 12 0 empty empty empty 8 -8 0 10 -262144 -1 -1 0
1;
#N canvas 13 265 837 349 shifterAll 0;
#X obj -13 -28 inlet;
#X obj 9 32 tgl 15 0 empty empty empty 17 7 0 10 -262144 -1 -1 0 1
;
#X obj 31 32 tgl 15 0 empty empty empty 17 7 0 10 -262144 -1 -1 1 1
;
#X obj 55 32 tgl 15 0 empty empty empty 17 7 0 10 -262144 -1 -1 0 1
;
#X obj 77 32 tgl 15 0 empty empty empty 17 7 0 10 -262144 -1 -1 0 1
;
#X obj 100 32 tgl 15 0 empty empty empty 17 7 0 10 -262144 -1 -1 0
1;
#X msg -23 55 127;
#X obj -288 242 /;
#X obj -343 290 r datos1;
#X floatatom -288 264 5 0 0 0 - - -;
#X obj -288 288 s datosP1;
#X msg 8 55 63.5;
#X msg 46 55 31.5;
#X msg 81 53 15.5;
#X msg 121 53 7.5;
#X msg 156 54 3.5;
#X obj -12 -3 route 0 1 2 3 4 5;
#X obj -11 32 tgl 15 0 empty empty empty 17 7 0 10 -262144 -1 -1 0
1;
#X obj -134 242 /;
#X floatatom -134 264 5 0 0 0 - - -;
#X obj -188 288 r datos2;
#X obj -134 288 s datosP2;
#X obj 4 240 /;
#X floatatom 4 262 5 0 0 0 - - -;
#X obj -50 286 r datos3;
#X obj 4 286 s datosP3;
#X obj 140 239 /;
#X floatatom 140 261 5 0 0 0 - - -;
#X obj 86 285 r datos4;
#X obj 140 285 s datosP4;
#X obj 271 238 /;
#X floatatom 271 260 5 0 0 0 - - -;
#X obj 217 284 r datos5;
#X obj 271 284 s datosP5;
#X obj 407 237 /;
#X floatatom 407 259 5 0 0 0 - - -;
#X obj 353 283 r datos6;
#X obj 407 283 s datosP6;
#X connect 0 0 16 0;
#X connect 1 0 11 0;
#X connect 2 0 12 0;
#X connect 3 0 13 0;
#X connect 4 0 14 0;
#X connect 5 0 15 0;
#X connect 6 0 7 1;
#X connect 6 0 18 1;
#X connect 6 0 22 1;
#X connect 6 0 26 1;
#X connect 6 0 30 1;
#X connect 6 0 34 1;
#X connect 7 0 9 0;
#X connect 8 0 7 0;
#X connect 9 0 10 0;
#X connect 11 0 7 1;
#X connect 11 0 18 1;
#X connect 11 0 22 1;
#X connect 11 0 26 1;
#X connect 11 0 30 1;
#X connect 11 0 34 1;
#X connect 12 0 7 1;
#X connect 12 0 18 1;
#X connect 12 0 22 1;
#X connect 12 0 26 1;
#X connect 12 0 30 1;
#X connect 12 0 34 1;
#X connect 13 0 7 1;
#X connect 13 0 18 1;
#X connect 13 0 22 1;
#X connect 13 0 26 1;
#X connect 13 0 30 1;
#X connect 13 0 34 1;
#X connect 14 0 7 1;
#X connect 14 0 18 1;
#X connect 14 0 22 1;
#X connect 14 0 26 1;
#X connect 14 0 30 1;
#X connect 14 0 34 1;
#X connect 15 0 7 1;
#X connect 15 0 18 1;
#X connect 15 0 22 1;
#X connect 15 0 26 1;
#X connect 15 0 30 1;
#X connect 15 0 34 1;
#X connect 16 0 17 0;
#X connect 16 1 1 0;
#X connect 16 2 2 0;
#X connect 16 3 3 0;
#X connect 16 4 4 0;
#X connect 16 5 5 0;
#X connect 17 0 6 0;
#X connect 18 0 19 0;
#X connect 19 0 21 0;
#X connect 20 0 18 0;
#X connect 22 0 23 0;
#X connect 23 0 25 0;
#X connect 24 0 22 0;
#X connect 26 0 27 0;
#X connect 27 0 29 0;
#X connect 28 0 26 0;
#X connect 30 0 31 0;
#X connect 31 0 33 0;
#X connect 32 0 30 0;
#X connect 34 0 35 0;
#X connect 35 0 37 0;
#X connect 36 0 34 0;
#X restore 40 -42 pd shifterAll;
#X obj 388 0 vradio 10 1 0 6 empty empty empty 0 -8 0 10 -262144 -1
-1 0;
#X obj 376 0 tgl 10 0 empty empty empty 8 -8 0 10 -262144 -1 -1 0 1
;
#X obj 376 10 tgl 10 0 empty empty empty 8 -8 0 10 -262144 -1 -1 0
1;
#X obj 376 21 tgl 10 0 empty empty empty 8 -8 0 10 -262144 -1 -1 0
1;
#X obj 376 32 tgl 10 0 empty empty empty 8 -8 0 10 -262144 -1 -1 0
1;
#X obj 376 41 tgl 10 0 empty empty empty 8 -8 0 10 -262144 -1 -1 0
1;
#X obj 376 51 tgl 10 0 empty empty empty 8 -8 0 10 -262144 -1 -1 0
1;
#X obj 580 1 vradio 10 1 0 6 empty empty empty 0 -8 0 10 -262144 -1
-1 0;
#X obj 568 1 tgl 10 0 empty empty empty 8 -8 0 10 -262144 -1 -1 0 1
;
#X obj 568 11 tgl 10 0 empty empty empty 8 -8 0 10 -262144 -1 -1 0
1;
#X obj 568 22 tgl 10 0 empty empty empty 8 -8 0 10 -262144 -1 -1 0
1;
#X obj 568 33 tgl 10 0 empty empty empty 8 -8 0 10 -262144 -1 -1 0
1;
#X obj 568 42 tgl 10 0 empty empty empty 8 -8 0 10 -262144 -1 -1 0
1;
#X obj 568 52 tgl 10 0 empty empty empty 8 -8 0 10 -262144 -1 -1 0
1;
#N canvas 70 200 450 300 on/off3 0;
#X obj 40 76 route 0 1 2 3 4 5;
#X obj 40 43 inlet;
#X obj 41 106 outlet;
#X obj 51 113 outlet;
#X obj 64 115 outlet;
#X obj 81 121 outlet;
#X obj 95 130 outlet;
#X obj 111 138 outlet;
#X obj 126 145 outlet;
#X connect 0 0 2 0;
#X connect 0 1 3 0;
#X connect 0 2 4 0;
#X connect 0 3 5 0;
#X connect 0 4 6 0;
#X connect 0 5 7 0;
#X connect 0 6 8 0;
#X connect 1 0 0 0;
#X restore 260 66 pd on/off3;
#N canvas 25 187 1021 549 shifter3 0;
#X obj -304 -20 inlet;
#X obj -282 40 tgl 15 0 empty empty empty 17 7 0 10 -262144 -1 -1 0
1;
#X obj -260 40 tgl 15 0 empty empty empty 17 7 0 10 -262144 -1 -1 0
1;
#X obj -236 40 tgl 15 0 empty empty empty 17 7 0 10 -262144 -1 -1 0
1;
#X obj -214 40 tgl 15 0 empty empty empty 17 7 0 10 -262144 -1 -1 0
1;
#X obj -191 40 tgl 15 0 empty empty empty 17 7 0 10 -262144 -1 -1 0
1;
#X msg -314 63 127;
#X obj -239 150 /;
#X floatatom -239 172 5 0 0 0 - - -;
#X msg -283 63 63.5;
#X msg -245 63 31.5;
#X msg -210 61 15.5;
#X msg -170 61 7.5;
#X msg -135 62 3.5;
#X obj -303 5 route 0 1 2 3 4 5;
#X obj -302 40 tgl 15 0 empty empty empty 17 7 0 10 -262144 -1 -1 0
1;
#X obj -294 198 r datos3;
#X obj -239 198 s datosP3;
#X connect 0 0 14 0;
#X connect 1 0 9 0;
#X connect 2 0 10 0;
#X connect 3 0 11 0;
#X connect 4 0 12 0;
#X connect 5 0 13 0;
#X connect 6 0 7 1;
#X connect 7 0 8 0;
#X connect 8 0 17 0;
#X connect 9 0 7 1;
#X connect 10 0 7 1;
#X connect 11 0 7 1;
#X connect 12 0 7 1;
#X connect 13 0 7 1;
#X connect 14 0 15 0;
#X connect 14 1 1 0;
#X connect 14 2 2 0;
#X connect 14 3 3 0;
#X connect 14 4 4 0;
#X connect 14 5 5 0;
#X connect 15 0 6 0;
#X connect 16 0 7 0;
#X restore 326 67 pd shifter3;
#N canvas 70 200 450 300 on/off4 0;
#X obj 40 76 route 0 1 2 3 4 5;
#X obj 40 43 inlet;
#X obj 41 106 outlet;
#X obj 51 113 outlet;
#X obj 64 115 outlet;
#X obj 81 121 outlet;
#X obj 95 130 outlet;
#X obj 111 138 outlet;
#X obj 126 145 outlet;
#X connect 0 0 2 0;
#X connect 0 1 3 0;
#X connect 0 2 4 0;
#X connect 0 3 5 0;
#X connect 0 4 6 0;
#X connect 0 5 7 0;
#X connect 0 6 8 0;
#X connect 1 0 0 0;
#X restore 452 68 pd on/off4;
#N canvas 25 187 1021 549 shifter4 0;
#X obj -304 -20 inlet;
#X obj -282 40 tgl 15 0 empty empty empty 17 7 0 10 -262144 -1 -1 0
1;
#X obj -260 40 tgl 15 0 empty empty empty 17 7 0 10 -262144 -1 -1 0
1;
#X obj -236 40 tgl 15 0 empty empty empty 17 7 0 10 -262144 -1 -1 0
1;
#X obj -214 40 tgl 15 0 empty empty empty 17 7 0 10 -262144 -1 -1 0
1;
#X obj -191 40 tgl 15 0 empty empty empty 17 7 0 10 -262144 -1 -1 0
1;
#X msg -314 63 127;
#X obj -239 150 /;
#X floatatom -239 172 5 0 0 0 - - -;
#X msg -283 63 63.5;
#X msg -245 63 31.5;
#X msg -210 61 15.5;
#X msg -170 61 7.5;
#X msg -135 62 3.5;
#X obj -303 5 route 0 1 2 3 4 5;
#X obj -302 40 tgl 15 0 empty empty empty 17 7 0 10 -262144 -1 -1 0
1;
#X obj -239 198 s datosP4;
#X obj -294 198 r datos4;
#X connect 0 0 14 0;
#X connect 1 0 9 0;
#X connect 2 0 10 0;
#X connect 3 0 11 0;
#X connect 4 0 12 0;
#X connect 5 0 13 0;
#X connect 6 0 7 1;
#X connect 7 0 8 0;
#X connect 8 0 16 0;
#X connect 9 0 7 1;
#X connect 10 0 7 1;
#X connect 11 0 7 1;
#X connect 12 0 7 1;
#X connect 13 0 7 1;
#X connect 14 0 15 0;
#X connect 14 1 1 0;
#X connect 14 2 2 0;
#X connect 14 3 3 0;
#X connect 14 4 4 0;
#X connect 14 5 5 0;
#X connect 15 0 6 0;
#X connect 17 0 7 0;
#X restore 518 68 pd shifter4;
#X obj 593 -9 r datosP4;
#X obj 766 -2 vradio 10 1 0 6 empty empty empty 0 -8 0 10 -262144 -1
-1 0;
#X obj 754 -2 tgl 10 0 empty empty empty 8 -8 0 10 -262144 -1 -1 0
1;
#X obj 754 8 tgl 10 0 empty empty empty 8 -8 0 10 -262144 -1 -1 0 1
;
#X obj 754 19 tgl 10 0 empty empty empty 8 -8 0 10 -262144 -1 -1 0
1;
#X obj 754 30 tgl 10 0 empty empty empty 8 -8 0 10 -262144 -1 -1 0
1;
#X obj 754 39 tgl 10 0 empty empty empty 8 -8 0 10 -262144 -1 -1 0
1;
#X obj 754 49 tgl 10 0 empty empty empty 8 -8 0 10 -262144 -1 -1 0
1;
#N canvas 25 187 1021 549 shifter5 0;
#X obj -304 -20 inlet;
#X obj -282 40 tgl 15 0 empty empty empty 17 7 0 10 -262144 -1 -1 0
1;
#X obj -260 40 tgl 15 0 empty empty empty 17 7 0 10 -262144 -1 -1 0
1;
#X obj -236 40 tgl 15 0 empty empty empty 17 7 0 10 -262144 -1 -1 0
1;
#X obj -214 40 tgl 15 0 empty empty empty 17 7 0 10 -262144 -1 -1 0
1;
#X obj -191 40 tgl 15 0 empty empty empty 17 7 0 10 -262144 -1 -1 0
1;
#X msg -314 63 127;
#X obj -239 150 /;
#X floatatom -239 172 5 0 0 0 - - -;
#X msg -283 63 63.5;
#X msg -245 63 31.5;
#X msg -210 61 15.5;
#X msg -170 61 7.5;
#X msg -135 62 3.5;
#X obj -303 5 route 0 1 2 3 4 5;
#X obj -302 40 tgl 15 0 empty empty empty 17 7 0 10 -262144 -1 -1 0
1;
#X obj -294 198 r datos5;
#X obj -239 198 s datosP5;
#X connect 0 0 14 0;
#X connect 1 0 9 0;
#X connect 2 0 10 0;
#X connect 3 0 11 0;
#X connect 4 0 12 0;
#X connect 5 0 13 0;
#X connect 6 0 7 1;
#X connect 7 0 8 0;
#X connect 8 0 17 0;
#X connect 9 0 7 1;
#X connect 10 0 7 1;
#X connect 11 0 7 1;
#X connect 12 0 7 1;
#X connect 13 0 7 1;
#X connect 14 0 15 0;
#X connect 14 1 1 0;
#X connect 14 2 2 0;
#X connect 14 3 3 0;
#X connect 14 4 4 0;
#X connect 14 5 5 0;
#X connect 15 0 6 0;
#X connect 16 0 7 0;
#X restore 704 65 pd shifter5;
#N canvas 70 200 450 300 on/off5 0;
#X obj 40 76 route 0 1 2 3 4 5;
#X obj 40 43 inlet;
#X obj 41 106 outlet;
#X obj 51 113 outlet;
#X obj 64 115 outlet;
#X obj 81 121 outlet;
#X obj 95 130 outlet;
#X obj 111 138 outlet;
#X obj 126 145 outlet;
#X connect 0 0 2 0;
#X connect 0 1 3 0;
#X connect 0 2 4 0;
#X connect 0 3 5 0;
#X connect 0 4 6 0;
#X connect 0 5 7 0;
#X connect 0 6 8 0;
#X connect 1 0 0 0;
#X restore 638 65 pd on/off5;
#X obj 405 194 + 35;
#X obj 780 192 + 45;
#X obj 749 198 vsl 15 30 0 600 0 0 empty empty empty 0 -9 0 10 -33289
-262144 -1 0 1;
#X obj 561 197 vsl 15 30 0 600 0 0 empty empty empty 0 -9 0 10 -33289
-262144 -1 1200 1;
#X obj 369 195 vsl 15 30 0 600 0 0 empty empty empty 0 -9 0 10 -33289
-262144 -1 2200 1;
#X obj 779 -13 r datosP2;
#X obj 158 -65 s datos3;
#X floatatom 234 98 5 0 0 0 - - -;
#X obj 193 99 bng 15 250 50 0 empty empty empty 17 7 0 10 -262144 -1
-1;
#X obj 193 120 t b;
#X obj 193 74 moses;
#X obj 193 10 average;
#X floatatom 193 52 5 0 0 0 - - -;
#X floatatom 194 172 5 0 0 0 - - -;
#X floatatom 144 161 5 0 0 0 - - -;
#X obj 144 137 counter;
#X obj 173 117 bng 15 250 50 0 empty empty empty 17 7 0 10 -262144
-1 -1;
#X obj 150 94 r time;
#X floatatom 194 221 5 0 0 0 - - -;
#X obj 136 245 makenote;
#X floatatom 194 245 5 0 0 0 - - -;
#X floatatom 232 245 5 0 0 0 - - -;
#X obj 177 2 vradio 10 1 0 6 empty empty empty 0 -8 0 10 -262144 -1
-1 0;
#X obj 165 2 tgl 10 0 empty empty empty 8 -8 0 10 -262144 -1 -1 0 1
;
#X obj 165 12 tgl 10 0 empty empty empty 8 -8 0 10 -262144 -1 -1 0
1;
#X obj 165 23 tgl 10 0 empty empty empty 8 -8 0 10 -262144 -1 -1 0
1;
#X obj 165 34 tgl 10 0 empty empty empty 8 -8 0 10 -262144 -1 -1 0
1;
#X obj 165 43 tgl 10 0 empty empty empty 8 -8 0 10 -262144 -1 -1 0
1;
#X obj 165 53 tgl 10 0 empty empty empty 8 -8 0 10 -262144 -1 -1 0
1;
#N canvas 70 200 450 300 on/off3 0;
#X obj 40 76 route 0 1 2 3 4 5;
#X obj 40 43 inlet;
#X obj 41 106 outlet;
#X obj 51 113 outlet;
#X obj 64 115 outlet;
#X obj 81 121 outlet;
#X obj 95 130 outlet;
#X obj 111 138 outlet;
#X obj 126 145 outlet;
#X connect 0 0 2 0;
#X connect 0 1 3 0;
#X connect 0 2 4 0;
#X connect 0 3 5 0;
#X connect 0 4 6 0;
#X connect 0 5 7 0;
#X connect 0 6 8 0;
#X connect 1 0 0 0;
#X restore 49 68 pd on/off3;
#N canvas 25 187 1021 549 shifter3 0;
#X obj -304 -20 inlet;
#X obj -282 40 tgl 15 0 empty empty empty 17 7 0 10 -262144 -1 -1 0
1;
#X obj -260 40 tgl 15 0 empty empty empty 17 7 0 10 -262144 -1 -1 0
1;
#X obj -236 40 tgl 15 0 empty empty empty 17 7 0 10 -262144 -1 -1 0
1;
#X obj -214 40 tgl 15 0 empty empty empty 17 7 0 10 -262144 -1 -1 0
1;
#X obj -191 40 tgl 15 0 empty empty empty 17 7 0 10 -262144 -1 -1 0
1;
#X msg -314 63 127;
#X obj -239 150 /;
#X floatatom -239 172 5 0 0 0 - - -;
#X msg -283 63 63.5;
#X msg -245 63 31.5;
#X msg -210 61 15.5;
#X msg -170 61 7.5;
#X msg -135 62 3.5;
#X obj -303 5 route 0 1 2 3 4 5;
#X obj -302 40 tgl 15 0 empty empty empty 17 7 0 10 -262144 -1 -1 0
1;
#X obj -294 198 r datos3;
#X obj -239 198 s datosP3;
#X connect 0 0 14 0;
#X connect 1 0 9 0;
#X connect 2 0 10 0;
#X connect 3 0 11 0;
#X connect 4 0 12 0;
#X connect 5 0 13 0;
#X connect 6 0 7 1;
#X connect 7 0 8 0;
#X connect 8 0 17 0;
#X connect 9 0 7 1;
#X connect 10 0 7 1;
#X connect 11 0 7 1;
#X connect 12 0 7 1;
#X connect 13 0 7 1;
#X connect 14 0 15 0;
#X connect 14 1 1 0;
#X connect 14 2 2 0;
#X connect 14 3 3 0;
#X connect 14 4 4 0;
#X connect 14 5 5 0;
#X connect 15 0 6 0;
#X connect 16 0 7 0;
#X restore 115 69 pd shifter3;
#X obj 194 196 + 35;
#X obj 158 197 vsl 15 30 0 600 0 0 empty empty empty 0 -9 0 10 -33289
-262144 -1 800 1;
#X obj 193 -9 r datosP2;
#X floatatom 33 101 5 0 0 0 - - -;
#X obj -8 102 bng 15 250 50 0 empty empty empty 17 7 0 10 -262144 -1
-1;
#X obj -8 123 t b;
#X obj -8 82 moses;
#X obj -8 18 average;
#X floatatom -8 61 5 0 0 0 - - -;
#X floatatom -7 175 5 0 0 0 - - -;
#X floatatom -57 164 5 0 0 0 - - -;
#X obj -57 140 counter;
#X obj -28 120 bng 15 250 50 0 empty empty empty 17 7 0 10 -262144
-1 -1;
#X obj -51 97 r time;
#X floatatom -7 224 5 0 0 0 - - -;
#X obj -65 248 makenote;
#X floatatom -7 248 5 0 0 0 - - -;
#X floatatom 31 248 5 0 0 0 - - -;
#X obj -24 5 vradio 10 1 0 6 empty empty empty 0 -8 0 10 -262144 -1
-1 0;
#X obj -36 5 tgl 10 0 empty empty empty 8 -8 0 10 -262144 -1 -1 0 1
;
#X obj -36 15 tgl 10 0 empty empty empty 8 -8 0 10 -262144 -1 -1 0
1;
#X obj -36 26 tgl 10 0 empty empty empty 8 -8 0 10 -262144 -1 -1 0
1;
#X obj -36 37 tgl 10 0 empty empty empty 8 -8 0 10 -262144 -1 -1 0
1;
#X obj -36 46 tgl 10 0 empty empty empty 8 -8 0 10 -262144 -1 -1 0
1;
#X obj -36 56 tgl 10 0 empty empty empty 8 -8 0 10 -262144 -1 -1 0
1;
#N canvas 70 200 450 300 on/off3 0;
#X obj 40 76 route 0 1 2 3 4 5;
#X obj 40 43 inlet;
#X obj 41 106 outlet;
#X obj 51 113 outlet;
#X obj 64 115 outlet;
#X obj 81 121 outlet;
#X obj 95 130 outlet;
#X obj 111 138 outlet;
#X obj 126 145 outlet;
#X connect 0 0 2 0;
#X connect 0 1 3 0;
#X connect 0 2 4 0;
#X connect 0 3 5 0;
#X connect 0 4 6 0;
#X connect 0 5 7 0;
#X connect 0 6 8 0;
#X connect 1 0 0 0;
#X restore -152 71 pd on/off3;
#N canvas 25 187 1021 549 shifter3 0;
#X obj -304 -20 inlet;
#X obj -282 40 tgl 15 0 empty empty empty 17 7 0 10 -262144 -1 -1 0
1;
#X obj -260 40 tgl 15 0 empty empty empty 17 7 0 10 -262144 -1 -1 0
1;
#X obj -236 40 tgl 15 0 empty empty empty 17 7 0 10 -262144 -1 -1 0
1;
#X obj -214 40 tgl 15 0 empty empty empty 17 7 0 10 -262144 -1 -1 0
1;
#X obj -191 40 tgl 15 0 empty empty empty 17 7 0 10 -262144 -1 -1 0
1;
#X msg -314 63 127;
#X obj -239 150 /;
#X floatatom -239 172 5 0 0 0 - - -;
#X msg -283 63 63.5;
#X msg -245 63 31.5;
#X msg -210 61 15.5;
#X msg -170 61 7.5;
#X msg -135 62 3.5;
#X obj -303 5 route 0 1 2 3 4 5;
#X obj -302 40 tgl 15 0 empty empty empty 17 7 0 10 -262144 -1 -1 0
1;
#X obj -294 198 r datos3;
#X obj -239 198 s datosP3;
#X connect 0 0 14 0;
#X connect 1 0 9 0;
#X connect 2 0 10 0;
#X connect 3 0 11 0;
#X connect 4 0 12 0;
#X connect 5 0 13 0;
#X connect 6 0 7 1;
#X connect 7 0 8 0;
#X connect 8 0 17 0;
#X connect 9 0 7 1;
#X connect 10 0 7 1;
#X connect 11 0 7 1;
#X connect 12 0 7 1;
#X connect 13 0 7 1;
#X connect 14 0 15 0;
#X connect 14 1 1 0;
#X connect 14 2 2 0;
#X connect 14 3 3 0;
#X connect 14 4 4 0;
#X connect 14 5 5 0;
#X connect 15 0 6 0;
#X connect 16 0 7 0;
#X restore -86 72 pd shifter3;
#X obj -7 199 + 35;
#X obj -43 200 vsl 15 30 0 600 0 0 empty empty empty 0 -9 0 10 -33289
-262144 -1 0 1;
#X obj -8 -3 r datosP1;
#X obj -8 39 resample 20;
#X floatatom 55 19 5 0 0 0 - - -;
#X obj 55 -1 r speed;
#X obj 193 31 resample 20;
#X floatatom 256 11 5 0 0 0 - - -;
#X obj 256 -9 r speed;
#X obj 404 31 resample 20;
#X floatatom 467 11 5 0 0 0 - - -;
#X obj 467 -9 r speed;
#X obj 593 31 resample 20;
#X floatatom 656 11 5 0 0 0 - - -;
#X obj 656 -9 r speed;
#X obj 779 27 resample 20;
#X floatatom 842 7 5 0 0 0 - - -;
#X obj 842 -13 r speed;
#X obj 662 -100 s speed;
#X floatatom 662 -121 5 0 0 0 - - -;
#X floatatom 125 -162 5 0 0 0 - - -;
#X floatatom 166 -162 5 0 0 0 - - -;
#X floatatom 81 -162 5 0 0 0 - - -;
#X floatatom 42 -162 5 0 0 0 - - -;
#X floatatom 245 -162 5 0 0 0 - - -;
#X floatatom 206 -162 5 0 0 0 - - -;
#N canvas 73 463 1044 581 OSC 0;
#X obj 53 -4 unpackOSC;
#X text 62 -20 recibiendo datos;
#X obj 54 -57 import mrpeach;
#X obj 51 54 print unpacked;
#X obj 53 -34 udpreceive 8666;
#X obj 193 292 outlet;
#X obj 243 253 outlet;
#X obj 300 212 outlet;
#X obj 358 177 outlet;
#X obj 417 149 outlet;
#X obj 478 113 outlet;
#X obj 575 225 outlet;
#X obj 625 186 outlet;
#X obj 682 145 outlet;
#X obj 740 110 outlet;
#X obj 799 82 outlet;
#X obj 860 46 outlet;
#X obj 556 -56 routeOSC /potencial/AF3/t /potencial/F7/t /potencial/F3/t
/potencial/F4/t /potencial/F8/t /potencial/AF4/t;
#X obj 191 -52 routeOSC /potencial/AF3/d /potencial/F7/mb /potencial/F3/a
/potencial/F4/mb /potencial/F8/a /potencial/AF4/a;
#X connect 0 0 17 0;
#X connect 0 0 18 0;
#X connect 4 0 0 0;
#X connect 17 0 11 0;
#X connect 17 1 12 0;
#X connect 17 2 13 0;
#X connect 17 3 14 0;
#X connect 17 4 15 0;
#X connect 17 5 16 0;
#X connect 18 0 5 0;
#X connect 18 1 6 0;
#X connect 18 2 7 0;
#X connect 18 3 8 0;
#X connect 18 4 9 0;
#X connect 18 5 10 0;
#X coords 0 581 1 580 300 85 0;
#X restore 52 -202 pd OSC 1 2 3 4 5 6 7 8 9 10 11 12 13 14 15 16 17
18 19 20 21 22 23 24 25 26 27 28;
#X obj 704 -152 s all control;
#X floatatom 703 -183 5 0 0 0 - - -;
#X obj -131 201 r all control;
#X obj 70 196 r all control;
#X obj 277 192 r all control;
#X obj 473 196 r all control;
#X obj 660 196 r all control;
#X obj -65 273 noteout 1;
#X obj 136 270 noteout 2;
#X obj 347 268 noteout 3;
#X obj 539 270 noteout 4;
#X obj 723 270 noteout 5;
#X connect 1 0 0 0;
#X connect 1 0 3 0;
#X connect 2 0 1 0;
#X connect 3 0 103 0;
#X connect 4 0 8 0;
#X connect 5 0 4 1;
#X connect 6 0 106 0;
#X connect 7 0 2 1;
#X connect 8 0 6 0;
#X connect 8 0 100 0;
#X connect 9 0 15 0;
#X connect 9 0 71 0;
#X connect 10 0 11 0;
#X connect 11 0 15 0;
#X connect 11 0 34 0;
#X connect 12 0 10 0;
#X connect 12 1 9 0;
#X connect 13 0 220 0;
#X connect 14 0 12 0;
#X connect 14 0 12 1;
#X connect 15 0 153 0;
#X connect 16 0 22 0;
#X connect 16 0 74 0;
#X connect 17 0 18 0;
#X connect 18 0 22 0;
#X connect 18 0 38 0;
#X connect 19 0 17 0;
#X connect 19 1 16 0;
#X connect 20 0 223 0;
#X connect 21 0 19 0;
#X connect 21 0 19 1;
#X connect 22 0 54 0;
#X connect 23 0 29 0;
#X connect 23 0 77 0;
#X connect 24 0 25 0;
#X connect 25 0 29 0;
#X connect 25 0 42 0;
#X connect 26 0 24 0;
#X connect 26 1 23 0;
#X connect 27 0 226 0;
#X connect 28 0 26 0;
#X connect 28 0 26 1;
#X connect 29 0 154 0;
#X connect 30 0 32 0;
#X connect 31 0 30 0;
#X connect 34 0 33 0;
#X connect 35 0 34 3;
#X connect 36 0 35 0;
#X connect 38 0 37 0;
#X connect 39 0 38 3;
#X connect 40 0 39 0;
#X connect 42 0 41 0;
#X connect 43 0 42 3;
#X connect 44 0 43 0;
#X connect 45 0 53 0;
#X connect 46 0 69 0;
#X connect 47 0 72 0;
#X connect 48 0 75 0;
#X connect 49 0 45 0;
#X connect 51 0 2 0;
#X connect 52 0 4 0;
#X connect 53 0 50 0;
#X connect 54 0 47 0;
#X connect 55 0 56 0;
#X connect 56 0 65 0;
#X connect 57 0 62 0;
#X connect 58 0 59 0;
#X connect 59 0 159 0;
#X connect 60 0 61 0;
#X connect 61 0 67 0;
#X connect 62 0 66 0;
#X connect 63 0 64 0;
#X connect 64 0 68 0;
#X connect 69 0 247 0;
#X connect 69 1 247 1;
#X connect 70 0 69 1;
#X connect 71 0 69 2;
#X connect 72 0 248 0;
#X connect 72 1 248 1;
#X connect 73 0 72 1;
#X connect 74 0 72 2;
#X connect 75 0 249 0;
#X connect 75 1 249 1;
#X connect 76 0 75 1;
#X connect 77 0 75 2;
#X connect 78 0 80 0;
#X connect 78 0 98 0;
#X connect 79 0 78 0;
#X connect 80 0 104 0;
#X connect 81 0 85 0;
#X connect 82 0 81 1;
#X connect 83 0 107 0;
#X connect 84 0 79 1;
#X connect 85 0 83 0;
#X connect 85 0 101 0;
#X connect 86 0 79 0;
#X connect 87 0 81 0;
#X connect 88 0 90 0;
#X connect 88 0 99 0;
#X connect 89 0 88 0;
#X connect 90 0 105 0;
#X connect 91 0 95 0;
#X connect 92 0 91 1;
#X connect 93 0 108 0;
#X connect 94 0 89 1;
#X connect 95 0 93 0;
#X connect 95 0 102 0;
#X connect 96 0 89 0;
#X connect 97 0 91 0;
#X connect 109 0 124 0;
#X connect 109 0 117 0;
#X connect 110 0 13 0;
#X connect 117 0 118 0;
#X connect 117 1 119 0;
#X connect 117 2 120 0;
#X connect 117 3 121 0;
#X connect 117 4 122 0;
#X connect 117 5 123 0;
#X connect 125 0 140 0;
#X connect 125 0 139 0;
#X connect 132 0 142 0;
#X connect 132 0 141 0;
#X connect 139 0 126 0;
#X connect 139 1 127 0;
#X connect 139 2 128 0;
#X connect 139 3 129 0;
#X connect 139 4 130 0;
#X connect 139 5 131 0;
#X connect 141 0 133 0;
#X connect 141 1 134 0;
#X connect 141 2 135 0;
#X connect 141 3 136 0;
#X connect 141 4 137 0;
#X connect 141 5 138 0;
#X connect 143 0 20 0;
#X connect 144 0 151 0;
#X connect 144 0 152 0;
#X connect 152 0 145 0;
#X connect 152 1 146 0;
#X connect 152 2 147 0;
#X connect 152 3 148 0;
#X connect 152 4 149 0;
#X connect 152 5 150 0;
#X connect 153 0 46 0;
#X connect 154 0 48 0;
#X connect 155 0 76 0;
#X connect 156 0 73 0;
#X connect 157 0 70 0;
#X connect 158 0 27 0;
#X connect 160 0 166 0;
#X connect 160 0 174 0;
#X connect 161 0 162 0;
#X connect 162 0 166 0;
#X connect 162 0 168 0;
#X connect 163 0 161 0;
#X connect 163 1 160 0;
#X connect 164 0 217 0;
#X connect 165 0 163 0;
#X connect 165 0 163 1;
#X connect 166 0 184 0;
#X connect 168 0 167 0;
#X connect 169 0 168 3;
#X connect 170 0 169 0;
#X connect 171 0 172 0;
#X connect 172 0 246 0;
#X connect 172 1 246 1;
#X connect 173 0 172 1;
#X connect 174 0 172 2;
#X connect 175 0 183 0;
#X connect 175 0 182 0;
#X connect 182 0 176 0;
#X connect 182 1 177 0;
#X connect 182 2 178 0;
#X connect 182 3 179 0;
#X connect 182 4 180 0;
#X connect 182 5 181 0;
#X connect 184 0 171 0;
#X connect 185 0 173 0;
#X connect 186 0 164 0;
#X connect 187 0 193 0;
#X connect 187 0 201 0;
#X connect 188 0 189 0;
#X connect 189 0 193 0;
#X connect 189 0 195 0;
#X connect 190 0 188 0;
#X connect 190 1 187 0;
#X connect 191 0 214 0;
#X connect 192 0 190 0;
#X connect 192 0 190 1;
#X connect 193 0 211 0;
#X connect 195 0 194 0;
#X connect 196 0 195 3;
#X connect 197 0 196 0;
#X connect 198 0 199 0;
#X connect 199 0 245 0;
#X connect 199 1 245 1;
#X connect 200 0 199 1;
#X connect 201 0 199 2;
#X connect 202 0 210 0;
#X connect 202 0 209 0;
#X connect 209 0 203 0;
#X connect 209 1 204 0;
#X connect 209 2 205 0;
#X connect 209 3 206 0;
#X connect 209 4 207 0;
#X connect 209 5 208 0;
#X connect 211 0 198 0;
#X connect 212 0 200 0;
#X connect 213 0 191 0;
#X connect 214 0 192 0;
#X connect 215 0 214 1;
#X connect 216 0 215 0;
#X connect 217 0 165 0;
#X connect 218 0 217 1;
#X connect 219 0 218 0;
#X connect 220 0 14 0;
#X connect 221 0 220 1;
#X connect 222 0 221 0;
#X connect 223 0 21 0;
#X connect 224 0 223 1;
#X connect 225 0 224 0;
#X connect 226 0 28 0;
#X connect 227 0 226 1;
#X connect 228 0 227 0;
#X connect 230 0 229 0;
#X connect 231 0 58 0;
#X connect 232 0 60 0;
#X connect 233 0 57 0;
#X connect 234 0 55 0;
#X connect 236 0 63 0;
#X connect 237 0 234 0;
#X connect 237 1 233 0;
#X connect 237 2 231 0;
#X connect 237 3 232 0;
#X connect 237 4 236 0;
#X connect 237 5 235 0;
#X connect 239 0 238 0;
#X connect 240 0 212 0;
#X connect 241 0 185 0;
#X connect 242 0 157 0;
#X connect 243 0 156 0;
#X connect 244 0 155 0;
