#N canvas 110 36 1083 614 10;
#X obj 499 306 makenote 80 500;
#X msg 38 80 60;
#X obj 511 335 noteout 4;
#X obj 38 -115 r b;
#X obj 38 -80 > 4200;
#X obj 38 -11 spigot;
#X floatatom 38 -45 5 0 0 0 - - -;
#X obj 179 -13 spigot;
#X floatatom 179 -47 5 0 0 0 - - -;
#X obj 179 -117 r b1;
#X obj 236 -13 spigot;
#X floatatom 236 -47 5 0 0 0 - - -;
#X obj 38 47 bng 15 250 50 0 empty empty empty 17 7 0 10 -262144 -1
-1;
#X obj 179 55 bng 15 250 50 0 empty empty empty 17 7 0 10 -262144 -1
-1;
#X obj 225 54 bng 15 250 50 0 empty empty empty 17 7 0 10 -262144 -1
-1;
#X floatatom 49 10 5 0 0 0 - - -;
#X floatatom 189 8 5 0 0 0 - - -;
#X floatatom 249 9 5 0 0 0 - - -;
#X obj 94 -115 r b;
#X obj 94 -11 spigot;
#X floatatom 94 -45 5 0 0 0 - - -;
#X floatatom 105 10 5 0 0 0 - - -;
#X obj 94 -80 < 4200;
#X obj 76 47 bng 15 250 50 0 empty empty empty 17 7 0 10 -262144 -1
-1;
#X obj 179 -82 > 4400;
#X obj 236 -82 > 5000;
#X obj 236 -117 r b2;
#X msg 320 86 64;
#X obj 321 -15 spigot;
#X floatatom 321 -49 5 0 0 0 - - -;
#X obj 378 -15 spigot;
#X floatatom 378 -49 5 0 0 0 - - -;
#X obj 321 53 bng 15 250 50 0 empty empty empty 17 7 0 10 -262144 -1
-1;
#X obj 367 52 bng 15 250 50 0 empty empty empty 17 7 0 10 -262144 -1
-1;
#X floatatom 331 6 5 0 0 0 - - -;
#X floatatom 391 7 5 0 0 0 - - -;
#X obj 321 -84 > 4400;
#X obj 378 -84 > 5000;
#X obj 321 -119 r b3;
#X obj 378 -119 r b3;
#X msg 498 86 67;
#X obj 459 -16 spigot;
#X floatatom 459 -50 5 0 0 0 - - -;
#X obj 516 -16 spigot;
#X floatatom 516 -50 5 0 0 0 - - -;
#X obj 459 52 bng 15 250 50 0 empty empty empty 17 7 0 10 -262144 -1
-1;
#X obj 505 51 bng 15 250 50 0 empty empty empty 17 7 0 10 -262144 -1
-1;
#X floatatom 469 5 5 0 0 0 - - -;
#X floatatom 529 6 5 0 0 0 - - -;
#X obj 459 -85 > 4400;
#X obj 516 -85 > 5000;
#X obj 459 -120 r b4;
#X obj 516 -120 r b4;
#X obj 597 -17 spigot;
#X floatatom 597 -51 5 0 0 0 - - -;
#X obj 654 -17 spigot;
#X floatatom 654 -51 5 0 0 0 - - -;
#X obj 597 51 bng 15 250 50 0 empty empty empty 17 7 0 10 -262144 -1
-1;
#X obj 643 50 bng 15 250 50 0 empty empty empty 17 7 0 10 -262144 -1
-1;
#X floatatom 607 4 5 0 0 0 - - -;
#X floatatom 667 5 5 0 0 0 - - -;
#X obj 597 -86 > 4400;
#X obj 654 -86 > 5000;
#X obj 597 -121 r b5;
#X obj 654 -121 r b5;
#X obj 733 -18 spigot;
#X floatatom 733 -52 5 0 0 0 - - -;
#X obj 790 -18 spigot;
#X floatatom 790 -52 5 0 0 0 - - -;
#X obj 733 50 bng 15 250 50 0 empty empty empty 17 7 0 10 -262144 -1
-1;
#X obj 779 49 bng 15 250 50 0 empty empty empty 17 7 0 10 -262144 -1
-1;
#X floatatom 743 3 5 0 0 0 - - -;
#X floatatom 803 4 5 0 0 0 - - -;
#X obj 733 -87 > 4400;
#X obj 790 -87 > 5000;
#X obj 733 -122 r b6;
#X obj 790 -122 r b6;
#X obj 863 -20 spigot;
#X floatatom 863 -54 5 0 0 0 - - -;
#X obj 920 -20 spigot;
#X floatatom 920 -54 5 0 0 0 - - -;
#X obj 863 48 bng 15 250 50 0 empty empty empty 17 7 0 10 -262144 -1
-1;
#X obj 909 47 bng 15 250 50 0 empty empty empty 17 7 0 10 -262144 -1
-1;
#X floatatom 873 1 5 0 0 0 - - -;
#X floatatom 933 2 5 0 0 0 - - -;
#X obj 863 -89 > 4400;
#X obj 920 -89 > 5000;
#X obj 863 -124 r b7;
#X obj 920 -124 r b7;
#X msg 76 80 61;
#X msg 178 88 62;
#X msg 218 89 63;
#X msg 360 87 65;
#X msg 458 85 66;
#X msg 596 84 68;
#X msg 636 85 69;
#X msg 732 83 70;
#X msg 772 84 71;
#X msg 862 79 72;
#X msg 902 82 73;
#X connect 0 0 2 0;
#X connect 0 1 2 1;
#X connect 1 0 0 0;
#X connect 3 0 4 0;
#X connect 4 0 6 0;
#X connect 5 0 12 0;
#X connect 5 0 15 0;
#X connect 6 0 5 0;
#X connect 6 0 5 1;
#X connect 7 0 13 0;
#X connect 7 0 16 0;
#X connect 8 0 7 0;
#X connect 8 0 7 1;
#X connect 9 0 24 0;
#X connect 10 0 14 0;
#X connect 10 0 17 0;
#X connect 11 0 10 0;
#X connect 11 0 10 1;
#X connect 12 0 1 0;
#X connect 13 0 90 0;
#X connect 14 0 91 0;
#X connect 18 0 22 0;
#X connect 19 0 23 0;
#X connect 19 0 21 0;
#X connect 20 0 19 0;
#X connect 20 0 19 1;
#X connect 22 0 20 0;
#X connect 23 0 89 0;
#X connect 24 0 8 0;
#X connect 25 0 11 0;
#X connect 26 0 25 0;
#X connect 27 0 0 0;
#X connect 28 0 32 0;
#X connect 28 0 34 0;
#X connect 29 0 28 0;
#X connect 29 0 28 1;
#X connect 30 0 33 0;
#X connect 30 0 35 0;
#X connect 31 0 30 0;
#X connect 31 0 30 1;
#X connect 32 0 27 0;
#X connect 33 0 92 0;
#X connect 36 0 29 0;
#X connect 37 0 31 0;
#X connect 38 0 36 0;
#X connect 39 0 37 0;
#X connect 40 0 0 0;
#X connect 41 0 45 0;
#X connect 41 0 47 0;
#X connect 42 0 41 0;
#X connect 42 0 41 1;
#X connect 43 0 46 0;
#X connect 43 0 48 0;
#X connect 44 0 43 0;
#X connect 44 0 43 1;
#X connect 45 0 93 0;
#X connect 46 0 40 0;
#X connect 49 0 42 0;
#X connect 50 0 44 0;
#X connect 51 0 49 0;
#X connect 52 0 50 0;
#X connect 53 0 57 0;
#X connect 53 0 59 0;
#X connect 54 0 53 0;
#X connect 54 0 53 1;
#X connect 55 0 58 0;
#X connect 55 0 60 0;
#X connect 56 0 55 0;
#X connect 56 0 55 1;
#X connect 57 0 94 0;
#X connect 58 0 95 0;
#X connect 61 0 54 0;
#X connect 62 0 56 0;
#X connect 63 0 61 0;
#X connect 64 0 62 0;
#X connect 65 0 69 0;
#X connect 65 0 71 0;
#X connect 66 0 65 0;
#X connect 66 0 65 1;
#X connect 67 0 70 0;
#X connect 67 0 72 0;
#X connect 68 0 67 0;
#X connect 68 0 67 1;
#X connect 69 0 96 0;
#X connect 70 0 97 0;
#X connect 73 0 66 0;
#X connect 74 0 68 0;
#X connect 75 0 73 0;
#X connect 76 0 74 0;
#X connect 77 0 81 0;
#X connect 77 0 83 0;
#X connect 78 0 77 0;
#X connect 78 0 77 1;
#X connect 79 0 82 0;
#X connect 79 0 84 0;
#X connect 80 0 79 0;
#X connect 80 0 79 1;
#X connect 81 0 98 0;
#X connect 82 0 99 0;
#X connect 85 0 78 0;
#X connect 86 0 80 0;
#X connect 87 0 85 0;
#X connect 88 0 86 0;
#X connect 89 0 0 0;
#X connect 90 0 0 0;
#X connect 91 0 0 0;
#X connect 92 0 0 0;
#X connect 93 0 0 0;
#X connect 94 0 0 0;
#X connect 95 0 0 0;
#X connect 96 0 0 0;
#X connect 97 0 0 0;
#X connect 98 0 0 0;
#X connect 99 0 0 0;
