#N canvas 0 22 929 746 10;
#X declare -lib mrpeach;
#X declare -stdpath extra/list-abs -stdpath extra/moocow -stdpath extra/zexy
;
#N canvas 0 22 450 300 (subpatch) 0;
#X array fm-output 441 float 4;
#X coords 0 1.02 440 -1.02 350 230 1 0 0;
#X restore 326 262 graph;
#X msg -115 425 bang;
#X obj -162 451 tabwrite~ fm-output;
#X obj -162 396 osc~;
#X obj -58 392 tgl 15 0 empty empty empty 17 7 0 10 -262144 -1 -1 1
1;
#X obj -58 430 bng 15 250 50 0 empty empty empty 17 7 0 10 -262144
-1 -1;
#X obj -58 407 metro 100;
#X obj -37 428 s bang;
#X obj -115 403 r bang;
#X obj -100 -54 import mrpeach;
#X obj -173 -74 route /groupclient/ping;
#X obj -173 -54 print ping;
#X obj -173 -93 unpackOSC;
#X obj -112 -93 print rede;
#X obj -172 -113 udpreceive 22244;
#X obj -173 -34 routeOSC /EEGcinthia/F7 /EEGcinthia/FC5 /EEGcinthia/F3
/EEGcinthia/AF3 /EEGcinthia/gyroY /EEGcinthia/gyroX;
#X obj 38 23 gemhead;
#X obj 38 41 pix_video;
#X obj 38 99 pix_texture;
#X obj 38 81 pix_blob 4;
#X msg 114 60 destroy;
#X msg 114 78 reset;
#X obj 114 96 gemwin;
#X obj 113 23 tgl 15 0 empty empty empty 17 7 0 10 -262144 -1 -1 0
1;
#X msg 113 41 create;
#X obj 38 118 square 5;
#X obj 9 393 tgl 15 0 empty empty empty 17 7 0 10 -262144 -1 -1 1 1
;
#X obj 9 427 bng 15 250 50 0 empty empty empty 17 7 0 10 -262144 -1
-1;
#X obj 9 407 metro 100;
#X obj 183 -198 hsl 128 70 0 127 0 0 empty empty Brain_Waves 10 29
1 15 -1 -1 -262144 0 1;
#X obj 180 -122 bng 133 250 50 0 empty del empty 17 7 0 10 -1 -262144
-1;
#X obj 38 62 pix_rgba;
#X obj 183 11 hsl 128 15 0 127 0 0 empty empty Delta_(O.5_to_4Hz) 2
7 0 10 -1 -1 -262144 0 1;
#X obj 183 165 hsl 128 15 0 127 0 0 empty empty Theta_(4_to_8Hz) 2
7 0 10 -1 -1 -262144 0 1;
#X obj 183 319 hsl 128 15 0 127 0 0 empty empty Alpha_(8_to_12Hz) 2
7 0 10 -1 -1 -262144 0 1;
#X obj 183 475 hsl 128 15 0 127 0 0 empty empty Beta_(13_to_30Hz) 2
7 0 10 -1 -1 -262144 0 1;
#N canvas 491 374 450 300 route 0;
#X obj -76 110 route 1 2 3 4 5 6 7 8 9 10 11 12 13 14 15 16 17;
#X obj -106 160 outlet;
#X obj -107 186 outlet;
#X obj -104 213 outlet;
#X obj -53 159 outlet;
#X obj -52 186 outlet;
#X obj -51 212 outlet;
#X obj 4 158 outlet;
#X obj 5 185 outlet;
#X obj 6 211 outlet;
#X obj 60 152 outlet;
#X obj 61 179 outlet;
#X obj 62 205 outlet;
#X obj 114 150 outlet;
#X obj 115 177 outlet;
#X obj 116 203 outlet;
#X obj -29 63 inlet;
#X obj 37 54 s del;
#X obj 86 54 s the;
#X obj 131 54 s alp;
#X obj 176 55 s bet;
#X connect 0 0 1 0;
#X connect 0 0 17 0;
#X connect 0 1 2 0;
#X connect 0 1 17 0;
#X connect 0 2 3 0;
#X connect 0 2 17 0;
#X connect 0 3 4 0;
#X connect 0 3 17 0;
#X connect 0 4 5 0;
#X connect 0 4 18 0;
#X connect 0 5 6 0;
#X connect 0 5 18 0;
#X connect 0 6 7 0;
#X connect 0 6 18 0;
#X connect 0 7 8 0;
#X connect 0 7 18 0;
#X connect 0 8 9 0;
#X connect 0 8 19 0;
#X connect 0 9 10 0;
#X connect 0 9 19 0;
#X connect 0 10 11 0;
#X connect 0 10 19 0;
#X connect 0 11 12 0;
#X connect 0 11 20 0;
#X connect 0 12 13 0;
#X connect 0 12 20 0;
#X connect 0 13 14 0;
#X connect 0 13 20 0;
#X connect 0 14 15 0;
#X connect 16 0 0 0;
#X restore -173 7 pd route;
#X obj 180 32 bng 133 250 50 0 empty the empty 17 7 0 10 -1 -262144
-1;
#X obj 180 185 bng 133 250 50 0 empty alp empty 17 7 0 10 -1 -262144
-1;
#X obj 180 341 bng 133 250 50 0 empty bet empty 17 7 0 10 -1 -262144
-1;
#X msg 94 118 dimen 720 640;
#X obj 83 184 s d1;
#X obj 339 -181 openpanel;
#X obj 339 -199 bng 15 250 50 0 empty empty empty 0 -6 0 8 -1 -1 -1
;
#X obj 339 -141 soundfiler;
#X obj 339 -118 expr 44100 / $f1;
#X floatatom 339 -97 5 0 0 0 - - -;
#X obj 339 -75 phasor~;
#X obj 339 -53 *~;
#X msg 339 -160 read -resize \$1 table19;
#X text 364 -201 archivos de audio;
#X msg -214 166 0.01;
#X msg -150 165 0.15;
#X msg -115 166 0.25;
#X msg -49 166 0.35;
#X msg 25 166 0.45;
#X msg 64 166 0.67;
#X msg 103 166 0.88;
#X obj 117 181 s d2;
#X obj 149 183 s d3;
#X obj -172 -198 hsl 350 70 0 200 0 0 empty empty Gen 25 35 1 20 -1
-1 -262144 0 1;
#N canvas 752 80 578 534 build 0;
#X obj 80 42 inlet chars;
#X text -13 8 build each comma separated symbol;
#X text 181 272 send out symbol on comma;
#X obj 173 300 r \$0-reset;
#X obj 80 74 route bang;
#X obj 170 153 tgl 15 0 empty empty empty 17 7 0 10 -262144 -1 -1 0
1;
#X obj 170 179 moses 1;
#X obj 185 379 list prepend;
#X obj 275 379 list;
#X obj 137 273 t b b;
#X msg 173 330 bang;
#X obj 164 406 list;
#X obj 137 236 spigot;
#X obj 242 108 r \$0-reset;
#X msg 242 133 0;
#X obj 137 107 sel 44 34;
#X msg 170 206 1;
#X msg 209 205 0;
#X obj 164 498 outlet symbol;
#X text 248 207 keep building list if we are inside a quoted string
;
#X obj 258 303 t a;
#X text 172 82 check for comma \, and quote ";
#X obj 3 40 inlet send;
#X obj 164 436 wchars2any 128 -1;
#X obj 164 468 l2s;
#X connect 0 0 4 0;
#X connect 3 0 10 0;
#X connect 4 1 15 0;
#X connect 5 0 6 0;
#X connect 6 0 16 0;
#X connect 6 1 17 0;
#X connect 7 0 8 0;
#X connect 7 0 11 1;
#X connect 8 0 7 1;
#X connect 9 0 10 0;
#X connect 9 1 11 0;
#X connect 10 0 11 1;
#X connect 10 0 7 1;
#X connect 11 0 23 0;
#X connect 12 0 9 0;
#X connect 13 0 14 0;
#X connect 14 0 5 0;
#X connect 15 0 12 0;
#X connect 15 1 5 0;
#X connect 15 2 20 0;
#X connect 16 0 12 1;
#X connect 17 0 12 1;
#X connect 20 0 7 0;
#X connect 22 0 9 0;
#X connect 23 0 24 0;
#X connect 24 0 18 0;
#X restore 522 115 pd build symbol;
#N canvas 1037 114 238 405 build 0;
#X obj 91 208 list prepend;
#X obj 182 208 list;
#X obj 56 240 list;
#X msg 17 174 bang;
#X obj 56 321 list trim;
#X obj 36 106 s \$0-done;
#X obj 17 42 inlet send;
#X obj 91 177 inlet symbols;
#X obj 113 377 outlet list;
#X obj 17 74 t b b b;
#X text 12 11 build each line;
#X obj 72 140 r \$0-reset;
#X obj 56 267 l2s;
#N canvas 991 616 373 196 default 0;
#X text 14 14 use comma as the default delimiter since it will never
be in the list (as opposed to spaces ...);
#X obj 16 162 outlet;
#X obj 16 135 symbol;
#X msg 16 80 44;
#X obj 16 54 loadbang;
#X text 72 80 sigh \, convert comma ascii code to a symbol;
#X obj 16 107 bytes2any;
#X connect 2 0 1 0;
#X connect 3 0 6 0;
#X connect 4 0 3 0;
#X connect 6 0 2 0;
#X restore 110 247 pd default delim;
#X text 90 269 convert symbols to nums;
#X obj 56 350 route bang;
#X obj 56 293 s2l;
#X connect 0 0 1 0;
#X connect 0 0 2 1;
#X connect 1 0 0 1;
#X connect 2 0 12 0;
#X connect 3 0 2 1;
#X connect 3 0 1 0;
#X connect 4 0 15 0;
#X connect 6 0 9 0;
#X connect 7 0 0 0;
#X connect 9 0 3 0;
#X connect 9 1 5 0;
#X connect 9 2 2 0;
#X connect 11 0 3 0;
#X connect 12 0 16 0;
#X connect 13 0 12 1;
#X connect 13 0 16 1;
#X connect 15 1 8 0;
#X connect 16 0 4 0;
#X restore 447 142 pd build line;
#X obj 403 -37 sel 10 13;
#X text 467 -38 check for EOL and CR;
#X msg 428 200 bang;
#X obj 428 228 s \$0-reset;
#X obj 428 91 t b b b;
#X obj 403 -95 inlet bytes;
#X obj 447 172 outlet list;
#X obj 536 173 outlet line read;
#X obj 403 53 spigot;
#X msg 436 25 1;
#X msg 470 24 0;
#X obj 436 -6 loadbang;
#X obj 582 2 t b a;
#X text 461 49 ignore EOL if immediately after a CR ...;
#X obj 403 -66 list-drip;
#N canvas 0 22 450 300 declares 0;
#X obj 22 18 declare -stdpath extra/list-abs -stdpath extra/moocow
-stdpath extra/zexy;
#X restore 515 -163 pd declares;
#X obj 39 379 random 30;
#X msg -180 166 0.1;
#X msg -78 166 0.3;
#X msg -13 166 0.4;
#X obj -189 493 output~;
#X msg 145 166 1;
#X obj 29 423 random 10;
#X connect 1 0 2 0;
#X connect 3 0 2 0;
#X connect 3 0 83 0;
#X connect 3 0 83 1;
#X connect 4 0 6 0;
#X connect 5 0 7 0;
#X connect 6 0 5 0;
#X connect 8 0 1 0;
#X connect 10 0 11 0;
#X connect 12 0 10 0;
#X connect 12 0 13 0;
#X connect 12 0 15 0;
#X connect 14 0 12 0;
#X connect 16 0 17 0;
#X connect 17 0 31 0;
#X connect 18 0 25 0;
#X connect 19 0 18 0;
#X connect 20 0 22 0;
#X connect 21 0 22 0;
#X connect 23 0 22 0;
#X connect 24 0 22 0;
#X connect 26 0 28 0;
#X connect 27 0 85 0;
#X connect 28 0 27 0;
#X connect 31 0 19 0;
#X connect 36 0 51 0;
#X connect 36 1 80 0;
#X connect 36 2 52 0;
#X connect 36 3 53 0;
#X connect 36 4 81 0;
#X connect 36 5 54 0;
#X connect 36 6 82 0;
#X connect 36 7 55 0;
#X connect 36 8 56 0;
#X connect 36 9 57 0;
#X connect 36 11 84 0;
#X connect 40 0 22 0;
#X connect 42 0 49 0;
#X connect 43 0 42 0;
#X connect 44 0 45 0;
#X connect 44 0 48 1;
#X connect 45 0 46 0;
#X connect 46 0 47 0;
#X connect 47 0 48 0;
#X connect 49 0 44 0;
#X connect 51 0 3 0;
#X connect 51 0 41 0;
#X connect 51 0 59 0;
#X connect 52 0 3 0;
#X connect 52 0 41 0;
#X connect 53 0 3 0;
#X connect 53 0 41 0;
#X connect 54 0 3 0;
#X connect 54 0 58 0;
#X connect 54 0 41 0;
#X connect 55 0 3 0;
#X connect 55 0 58 0;
#X connect 56 0 3 0;
#X connect 56 0 41 0;
#X connect 56 0 59 0;
#X connect 56 0 58 0;
#X connect 57 0 3 0;
#X connect 57 0 41 0;
#X connect 57 0 59 0;
#X connect 61 0 62 1;
#X connect 62 0 69 0;
#X connect 63 0 71 0;
#X connect 63 1 67 0;
#X connect 63 1 73 0;
#X connect 63 2 75 0;
#X connect 65 0 66 0;
#X connect 67 0 65 0;
#X connect 67 0 70 0;
#X connect 67 1 62 0;
#X connect 67 2 61 0;
#X connect 68 0 77 0;
#X connect 71 0 67 0;
#X connect 72 0 71 1;
#X connect 73 0 71 1;
#X connect 74 0 72 0;
#X connect 75 0 72 0;
#X connect 75 1 61 1;
#X connect 77 0 63 0;
#X connect 79 0 36 0;
#X connect 80 0 3 0;
#X connect 81 0 3 0;
#X connect 81 0 41 0;
#X connect 82 0 3 0;
#X connect 82 0 58 0;
#X connect 82 0 41 0;
#X connect 84 0 3 0;
#X connect 84 0 59 0;
#X connect 84 0 41 0;
#X connect 84 0 58 0;
#X connect 85 0 36 0;
