#N canvas -4 23 1278 744 10;
#X declare -lib mrpeach;
#X obj 915 20 ctlout 1;
#X floatatom 890 -1 5 0 0 0 - - -;
#X obj 890 -23 -;
#X obj 890 27 vsl 15 30 0 127 0 0 empty empty empty 0 -9 0 10 -33289
-262144 -1 0 1;
#X obj 899 127 -;
#X floatatom 925 105 5 0 0 0 - - -;
#X obj 890 179 vsl 15 30 0 127 0 0 empty empty empty 0 -9 0 10 -1 -262144
-1 0 1;
#X floatatom 927 -56 5 0 0 0 - - -;
#X floatatom 899 151 5 0 0 0 - - -;
#X floatatom 447 53 5 0 0 0 - - -;
#X obj 406 54 bng 15 250 50 0 empty empty empty 17 7 0 10 -262144 -1
-1;
#X obj 406 75 t b;
#X obj 406 29 moses;
#X obj 406 -31 average;
#X floatatom 406 7 5 0 0 0 - - -;
#X floatatom 407 127 5 0 0 0 - - -;
#X floatatom 636 54 5 0 0 0 - - -;
#X obj 595 55 bng 15 250 50 0 empty empty empty 17 7 0 10 -262144 -1
-1;
#X obj 595 76 t b;
#X obj 595 30 moses;
#X obj 595 -33 average;
#X floatatom 595 8 5 0 0 0 - - -;
#X floatatom 596 128 5 0 0 0 - - -;
#X floatatom 822 51 5 0 0 0 - - -;
#X obj 781 52 bng 15 250 50 0 empty empty empty 17 7 0 10 -262144 -1
-1;
#X obj 781 73 t b;
#X obj 781 27 moses;
#X obj 781 -37 average;
#X floatatom 781 5 5 0 0 0 - - -;
#X floatatom 782 125 5 0 0 0 - - -;
#X obj 968 -147 bng 15 250 50 0 empty empty empty 17 7 0 10 -262144
-1 -1;
#X msg 848 -148 reset time;
#X obj 920 -147 s time;
#X floatatom 357 116 5 0 0 0 - - -;
#X obj 357 92 counter;
#X obj 386 72 bng 15 250 50 0 empty empty empty 17 7 0 10 -262144 -1
-1;
#X obj 363 49 r time;
#X floatatom 546 117 5 0 0 0 - - -;
#X obj 546 93 counter;
#X obj 575 73 bng 15 250 50 0 empty empty empty 17 7 0 10 -262144 -1
-1;
#X obj 552 50 r time;
#X floatatom 731 114 5 0 0 0 - - -;
#X obj 731 90 counter;
#X obj 760 70 bng 15 250 50 0 empty empty empty 17 7 0 10 -262144 -1
-1;
#X obj 737 47 r time;
#X obj 812 -101 average;
#X floatatom 407 176 5 0 0 0 - - -;
#X floatatom 596 177 5 0 0 0 - - -;
#X floatatom 782 175 5 0 0 0 - - -;
#X obj 812 -124 r AF3 F7 FC5 F8 FC6 T7 T8 O1;
#X obj 905 -101 s avr;
#X obj 892 -57 r avr;
#X obj 882 104 r avr;
#X floatatom 866 -101 5 0 0 0 - - -;
#X obj 596 152 + 20;
#X obj 43 -167 vsl 30 40 0 1023 0 0 empty empty empty 0 -9 0 10 -1
-262144 -1 0 1;
#X floatatom 43 -124 5 0 0 0 - - -;
#X obj 101 -168 vsl 30 40 0 1023 0 0 empty empty empty 0 -9 0 10 -1
-262144 -1 0 1;
#X obj 160 -168 vsl 30 40 1 1023 0 0 empty empty empty 0 -9 0 10 -1
-262144 -1 0 1;
#X floatatom 160 -124 5 0 0 0 - - -;
#X obj 215 -168 vsl 30 40 1 1023 0 0 empty empty empty 0 -9 0 10 -1
-262144 -1 0 1;
#X floatatom 215 -124 5 0 0 0 - - -;
#X floatatom 101 -124 5 0 0 0 - - -;
#X obj 271 -168 vsl 30 40 1 1023 0 0 empty empty empty 0 -9 0 10 -1
-262144 -1 0 1;
#X floatatom 271 -124 5 0 0 0 - - -;
#X obj 43 -108 s datos1;
#X obj 101 -108 s datos2;
#X obj 215 -108 s datos4;
#X obj 271 -108 s datos5;
#X obj 349 200 makenote;
#X floatatom 407 200 5 0 0 0 - - -;
#X floatatom 445 200 5 0 0 0 - - -;
#X obj 541 202 makenote;
#X floatatom 599 202 5 0 0 0 - - -;
#X floatatom 637 202 5 0 0 0 - - -;
#X obj 725 202 makenote;
#X floatatom 783 202 5 0 0 0 - - -;
#X floatatom 821 202 5 0 0 0 - - -;
#X floatatom 980 -5 5 0 0 0 - - -;
#X obj 980 -27 -;
#X obj 980 23 vsl 15 30 0 127 0 0 empty empty empty 0 -9 0 10 -33289
-262144 -1 0 1;
#X obj 989 123 -;
#X floatatom 1015 101 5 0 0 0 - - -;
#X obj 980 175 vsl 15 30 0 127 0 0 empty empty empty 0 -9 0 10 -1 -262144
-1 0 1;
#X floatatom 1005 -50 5 0 0 0 - - -;
#X floatatom 989 147 5 0 0 0 - - -;
#X obj 962 -51 r avr;
#X obj 972 100 r avr;
#X floatatom 1074 -7 5 0 0 0 - - -;
#X obj 1074 -29 -;
#X obj 1074 21 vsl 15 30 0 127 0 0 empty empty empty 0 -9 0 10 -33289
-262144 -1 0 1;
#X obj 1078 119 -;
#X floatatom 1104 97 5 0 0 0 - - -;
#X obj 1069 171 vsl 15 30 0 127 0 0 empty empty empty 0 -9 0 10 -1
-262144 -1 0 1;
#X floatatom 1099 -52 5 0 0 0 - - -;
#X floatatom 1078 143 5 0 0 0 - - -;
#X obj 1056 -53 r avr;
#X obj 1061 96 r avr;
#X obj 1005 16 ctlout 2;
#X obj 1099 14 ctlout 3;
#X obj 915 175 ctlout 4;
#X obj 1005 171 ctlout 5;
#X obj 1094 167 ctlout 2;
#X obj 891 73 s ctl1;
#X obj 981 69 s ctl2;
#X obj 1075 67 s ctl3;
#X obj 890 221 s ctl4;
#X obj 980 217 s ctl5;
#X obj 1068 214 s ctl6;
#X obj -91 -105 hradio 20 1 0 6 empty empty empty 0 -8 0 10 -262144
-1 -1 0;
#X obj 406 -51 r datosP3;
#X text -91 -122 127;
#X text -68 -122 63;
#X text -49 -122 31;
#X text -27 -122 15;
#X text -4 -122 7;
#X text 15 -122 3;
#N canvas 70 200 450 300 on/off 0;
#X obj 40 76 route 0 1 2 3 4 5;
#X obj 40 43 inlet;
#X obj 41 106 outlet;
#X obj 51 113 outlet;
#X obj 64 115 outlet;
#X obj 81 121 outlet;
#X obj 95 130 outlet;
#X obj 111 138 outlet;
#X obj 126 145 outlet;
#X connect 0 0 2 0;
#X connect 0 1 3 0;
#X connect 0 2 4 0;
#X connect 0 3 5 0;
#X connect 0 4 6 0;
#X connect 0 5 7 0;
#X connect 0 6 8 0;
#X connect 1 0 0 0;
#X restore -91 -84 pd on/off;
#X obj -91 -67 tgl 12 0 empty empty empty 8 -8 0 10 -262144 -1 -1 0
1;
#X obj -69 -67 tgl 12 0 empty empty empty 8 -8 0 10 -262144 -1 -1 0
1;
#X obj -47 -67 tgl 12 0 empty empty empty 8 -8 0 10 -262144 -1 -1 0
1;
#X obj -24 -67 tgl 12 0 empty empty empty 8 -8 0 10 -262144 -1 -1 0
1;
#X obj -2 -67 tgl 12 0 empty empty empty 8 -8 0 10 -262144 -1 -1 0
1;
#X obj 17 -67 tgl 12 0 empty empty empty 8 -8 0 10 -262144 -1 -1 0
1;
#N canvas 13 265 837 349 shifterAll 0;
#X obj -13 -28 inlet;
#X obj 9 32 tgl 15 0 empty empty empty 17 7 0 10 -262144 -1 -1 0 1
;
#X obj 31 32 tgl 15 0 empty empty empty 17 7 0 10 -262144 -1 -1 0 1
;
#X obj 55 32 tgl 15 0 empty empty empty 17 7 0 10 -262144 -1 -1 0 1
;
#X obj 77 32 tgl 15 0 empty empty empty 17 7 0 10 -262144 -1 -1 0 1
;
#X obj 100 32 tgl 15 0 empty empty empty 17 7 0 10 -262144 -1 -1 0
1;
#X msg -23 55 127;
#X obj -288 242 /;
#X obj -343 290 r datos1;
#X floatatom -288 264 5 0 0 0 - - -;
#X obj -288 288 s datosP1;
#X msg 8 55 63.5;
#X msg 46 55 31.5;
#X msg 81 53 15.5;
#X msg 121 53 7.5;
#X msg 156 54 3.5;
#X obj -12 -3 route 0 1 2 3 4 5;
#X obj -11 32 tgl 15 0 empty empty empty 17 7 0 10 -262144 -1 -1 0
1;
#X obj -134 242 /;
#X floatatom -134 264 5 0 0 0 - - -;
#X obj -188 288 r datos2;
#X obj -134 288 s datosP2;
#X obj 4 240 /;
#X floatatom 4 262 5 0 0 0 - - -;
#X obj -50 286 r datos3;
#X obj 4 286 s datosP3;
#X obj 140 239 /;
#X floatatom 140 261 5 0 0 0 - - -;
#X obj 86 285 r datos4;
#X obj 140 285 s datosP4;
#X obj 271 238 /;
#X floatatom 271 260 5 0 0 0 - - -;
#X obj 217 284 r datos5;
#X obj 271 284 s datosP5;
#X obj 407 237 /;
#X floatatom 407 259 5 0 0 0 - - -;
#X obj 353 283 r datos6;
#X obj 407 283 s datosP6;
#X connect 0 0 16 0;
#X connect 1 0 11 0;
#X connect 2 0 12 0;
#X connect 3 0 13 0;
#X connect 4 0 14 0;
#X connect 5 0 15 0;
#X connect 6 0 7 1;
#X connect 6 0 18 1;
#X connect 6 0 22 1;
#X connect 6 0 26 1;
#X connect 6 0 30 1;
#X connect 6 0 34 1;
#X connect 7 0 9 0;
#X connect 8 0 7 0;
#X connect 9 0 10 0;
#X connect 11 0 7 1;
#X connect 11 0 18 1;
#X connect 11 0 22 1;
#X connect 11 0 26 1;
#X connect 11 0 30 1;
#X connect 11 0 34 1;
#X connect 12 0 7 1;
#X connect 12 0 18 1;
#X connect 12 0 22 1;
#X connect 12 0 26 1;
#X connect 12 0 30 1;
#X connect 12 0 34 1;
#X connect 13 0 7 1;
#X connect 13 0 18 1;
#X connect 13 0 22 1;
#X connect 13 0 26 1;
#X connect 13 0 30 1;
#X connect 13 0 34 1;
#X connect 14 0 7 1;
#X connect 14 0 18 1;
#X connect 14 0 22 1;
#X connect 14 0 26 1;
#X connect 14 0 30 1;
#X connect 14 0 34 1;
#X connect 15 0 7 1;
#X connect 15 0 18 1;
#X connect 15 0 22 1;
#X connect 15 0 26 1;
#X connect 15 0 30 1;
#X connect 15 0 34 1;
#X connect 16 0 17 0;
#X connect 16 1 1 0;
#X connect 16 2 2 0;
#X connect 16 3 3 0;
#X connect 16 4 4 0;
#X connect 16 5 5 0;
#X connect 17 0 6 0;
#X connect 18 0 19 0;
#X connect 19 0 21 0;
#X connect 20 0 18 0;
#X connect 22 0 23 0;
#X connect 23 0 25 0;
#X connect 24 0 22 0;
#X connect 26 0 27 0;
#X connect 27 0 29 0;
#X connect 28 0 26 0;
#X connect 30 0 31 0;
#X connect 31 0 33 0;
#X connect 32 0 30 0;
#X connect 34 0 35 0;
#X connect 35 0 37 0;
#X connect 36 0 34 0;
#X restore 42 -85 pd shifterAll;
#X obj 390 -43 vradio 10 1 0 6 empty empty empty 0 -8 0 10 -262144
-1 -1 0;
#X obj 378 -43 tgl 10 0 empty empty empty 8 -8 0 10 -262144 -1 -1 0
1;
#X obj 378 -33 tgl 10 0 empty empty empty 8 -8 0 10 -262144 -1 -1 0
1;
#X obj 378 -22 tgl 10 0 empty empty empty 8 -8 0 10 -262144 -1 -1 0
1;
#X obj 378 -11 tgl 10 0 empty empty empty 8 -8 0 10 -262144 -1 -1 0
1;
#X obj 378 -2 tgl 10 0 empty empty empty 8 -8 0 10 -262144 -1 -1 0
1;
#X obj 378 8 tgl 10 0 empty empty empty 8 -8 0 10 -262144 -1 -1 0 1
;
#X obj 582 -42 vradio 10 1 0 6 empty empty empty 0 -8 0 10 -262144
-1 -1 0;
#X obj 570 -42 tgl 10 0 empty empty empty 8 -8 0 10 -262144 -1 -1 0
1;
#X obj 570 -32 tgl 10 0 empty empty empty 8 -8 0 10 -262144 -1 -1 0
1;
#X obj 570 -21 tgl 10 0 empty empty empty 8 -8 0 10 -262144 -1 -1 0
1;
#X obj 570 -10 tgl 10 0 empty empty empty 8 -8 0 10 -262144 -1 -1 0
1;
#X obj 570 -1 tgl 10 0 empty empty empty 8 -8 0 10 -262144 -1 -1 0
1;
#X obj 570 9 tgl 10 0 empty empty empty 8 -8 0 10 -262144 -1 -1 0 1
;
#N canvas 70 200 450 300 on/off3 0;
#X obj 40 76 route 0 1 2 3 4 5;
#X obj 40 43 inlet;
#X obj 41 106 outlet;
#X obj 51 113 outlet;
#X obj 64 115 outlet;
#X obj 81 121 outlet;
#X obj 95 130 outlet;
#X obj 111 138 outlet;
#X obj 126 145 outlet;
#X connect 0 0 2 0;
#X connect 0 1 3 0;
#X connect 0 2 4 0;
#X connect 0 3 5 0;
#X connect 0 4 6 0;
#X connect 0 5 7 0;
#X connect 0 6 8 0;
#X connect 1 0 0 0;
#X restore 262 23 pd on/off3;
#N canvas 25 187 1021 549 shifter3 0;
#X obj -304 -20 inlet;
#X obj -282 40 tgl 15 0 empty empty empty 17 7 0 10 -262144 -1 -1 0
1;
#X obj -260 40 tgl 15 0 empty empty empty 17 7 0 10 -262144 -1 -1 0
1;
#X obj -236 40 tgl 15 0 empty empty empty 17 7 0 10 -262144 -1 -1 0
1;
#X obj -214 40 tgl 15 0 empty empty empty 17 7 0 10 -262144 -1 -1 0
1;
#X obj -191 40 tgl 15 0 empty empty empty 17 7 0 10 -262144 -1 -1 0
1;
#X msg -314 63 127;
#X obj -239 150 /;
#X floatatom -239 172 5 0 0 0 - - -;
#X msg -283 63 63.5;
#X msg -245 63 31.5;
#X msg -210 61 15.5;
#X msg -170 61 7.5;
#X msg -135 62 3.5;
#X obj -303 5 route 0 1 2 3 4 5;
#X obj -302 40 tgl 15 0 empty empty empty 17 7 0 10 -262144 -1 -1 0
1;
#X obj -294 198 r datos3;
#X obj -239 198 s datosP3;
#X connect 0 0 14 0;
#X connect 1 0 9 0;
#X connect 2 0 10 0;
#X connect 3 0 11 0;
#X connect 4 0 12 0;
#X connect 5 0 13 0;
#X connect 6 0 7 1;
#X connect 7 0 8 0;
#X connect 8 0 17 0;
#X connect 9 0 7 1;
#X connect 10 0 7 1;
#X connect 11 0 7 1;
#X connect 12 0 7 1;
#X connect 13 0 7 1;
#X connect 14 0 15 0;
#X connect 14 1 1 0;
#X connect 14 2 2 0;
#X connect 14 3 3 0;
#X connect 14 4 4 0;
#X connect 14 5 5 0;
#X connect 15 0 6 0;
#X connect 16 0 7 0;
#X restore 328 24 pd shifter3;
#N canvas 70 200 450 300 on/off4 0;
#X obj 40 76 route 0 1 2 3 4 5;
#X obj 40 43 inlet;
#X obj 41 106 outlet;
#X obj 51 113 outlet;
#X obj 64 115 outlet;
#X obj 81 121 outlet;
#X obj 95 130 outlet;
#X obj 111 138 outlet;
#X obj 126 145 outlet;
#X connect 0 0 2 0;
#X connect 0 1 3 0;
#X connect 0 2 4 0;
#X connect 0 3 5 0;
#X connect 0 4 6 0;
#X connect 0 5 7 0;
#X connect 0 6 8 0;
#X connect 1 0 0 0;
#X restore 454 25 pd on/off4;
#N canvas 25 187 1021 549 shifter4 0;
#X obj -304 -20 inlet;
#X obj -282 40 tgl 15 0 empty empty empty 17 7 0 10 -262144 -1 -1 0
1;
#X obj -260 40 tgl 15 0 empty empty empty 17 7 0 10 -262144 -1 -1 0
1;
#X obj -236 40 tgl 15 0 empty empty empty 17 7 0 10 -262144 -1 -1 0
1;
#X obj -214 40 tgl 15 0 empty empty empty 17 7 0 10 -262144 -1 -1 0
1;
#X obj -191 40 tgl 15 0 empty empty empty 17 7 0 10 -262144 -1 -1 0
1;
#X msg -314 63 127;
#X obj -239 150 /;
#X floatatom -239 172 5 0 0 0 - - -;
#X msg -283 63 63.5;
#X msg -245 63 31.5;
#X msg -210 61 15.5;
#X msg -170 61 7.5;
#X msg -135 62 3.5;
#X obj -303 5 route 0 1 2 3 4 5;
#X obj -302 40 tgl 15 0 empty empty empty 17 7 0 10 -262144 -1 -1 0
1;
#X obj -239 198 s datosP4;
#X obj -294 198 r datos4;
#X connect 0 0 14 0;
#X connect 1 0 9 0;
#X connect 2 0 10 0;
#X connect 3 0 11 0;
#X connect 4 0 12 0;
#X connect 5 0 13 0;
#X connect 6 0 7 1;
#X connect 7 0 8 0;
#X connect 8 0 16 0;
#X connect 9 0 7 1;
#X connect 10 0 7 1;
#X connect 11 0 7 1;
#X connect 12 0 7 1;
#X connect 13 0 7 1;
#X connect 14 0 15 0;
#X connect 14 1 1 0;
#X connect 14 2 2 0;
#X connect 14 3 3 0;
#X connect 14 4 4 0;
#X connect 14 5 5 0;
#X connect 15 0 6 0;
#X connect 17 0 7 0;
#X restore 520 25 pd shifter4;
#X obj 595 -52 r datosP4;
#X obj 768 -45 vradio 10 1 0 6 empty empty empty 0 -8 0 10 -262144
-1 -1 0;
#X obj 756 -45 tgl 10 0 empty empty empty 8 -8 0 10 -262144 -1 -1 0
1;
#X obj 756 -35 tgl 10 0 empty empty empty 8 -8 0 10 -262144 -1 -1 0
1;
#X obj 756 -24 tgl 10 0 empty empty empty 8 -8 0 10 -262144 -1 -1 0
1;
#X obj 756 -13 tgl 10 0 empty empty empty 8 -8 0 10 -262144 -1 -1 0
1;
#X obj 756 -4 tgl 10 0 empty empty empty 8 -8 0 10 -262144 -1 -1 0
1;
#X obj 756 6 tgl 10 0 empty empty empty 8 -8 0 10 -262144 -1 -1 0 1
;
#N canvas 25 187 1021 549 shifter5 0;
#X obj -304 -20 inlet;
#X obj -282 40 tgl 15 0 empty empty empty 17 7 0 10 -262144 -1 -1 0
1;
#X obj -260 40 tgl 15 0 empty empty empty 17 7 0 10 -262144 -1 -1 0
1;
#X obj -236 40 tgl 15 0 empty empty empty 17 7 0 10 -262144 -1 -1 0
1;
#X obj -214 40 tgl 15 0 empty empty empty 17 7 0 10 -262144 -1 -1 0
1;
#X obj -191 40 tgl 15 0 empty empty empty 17 7 0 10 -262144 -1 -1 0
1;
#X msg -314 63 127;
#X obj -239 150 /;
#X floatatom -239 172 5 0 0 0 - - -;
#X msg -283 63 63.5;
#X msg -245 63 31.5;
#X msg -210 61 15.5;
#X msg -170 61 7.5;
#X msg -135 62 3.5;
#X obj -303 5 route 0 1 2 3 4 5;
#X obj -302 40 tgl 15 0 empty empty empty 17 7 0 10 -262144 -1 -1 0
1;
#X obj -294 198 r datos5;
#X obj -239 198 s datosP5;
#X connect 0 0 14 0;
#X connect 1 0 9 0;
#X connect 2 0 10 0;
#X connect 3 0 11 0;
#X connect 4 0 12 0;
#X connect 5 0 13 0;
#X connect 6 0 7 1;
#X connect 7 0 8 0;
#X connect 8 0 17 0;
#X connect 9 0 7 1;
#X connect 10 0 7 1;
#X connect 11 0 7 1;
#X connect 12 0 7 1;
#X connect 13 0 7 1;
#X connect 14 0 15 0;
#X connect 14 1 1 0;
#X connect 14 2 2 0;
#X connect 14 3 3 0;
#X connect 14 4 4 0;
#X connect 14 5 5 0;
#X connect 15 0 6 0;
#X connect 16 0 7 0;
#X restore 706 22 pd shifter5;
#N canvas 70 200 450 300 on/off5 0;
#X obj 40 76 route 0 1 2 3 4 5;
#X obj 40 43 inlet;
#X obj 41 106 outlet;
#X obj 51 113 outlet;
#X obj 64 115 outlet;
#X obj 81 121 outlet;
#X obj 95 130 outlet;
#X obj 111 138 outlet;
#X obj 126 145 outlet;
#X connect 0 0 2 0;
#X connect 0 1 3 0;
#X connect 0 2 4 0;
#X connect 0 3 5 0;
#X connect 0 4 6 0;
#X connect 0 5 7 0;
#X connect 0 6 8 0;
#X connect 1 0 0 0;
#X restore 640 22 pd on/off5;
#X obj 407 151 + 35;
#X obj 782 149 + 45;
#X obj 751 155 vsl 15 30 0 600 0 0 empty empty empty 0 -9 0 10 -33289
-262144 -1 0 1;
#X obj 563 154 vsl 15 30 0 600 0 0 empty empty empty 0 -9 0 10 -33289
-262144 -1 0 1;
#X obj 371 152 vsl 15 30 0 600 0 0 empty empty empty 0 -9 0 10 -33289
-262144 -1 0 1;
#X obj 781 -56 r datosP2;
#X obj 160 -108 s datos3;
#X floatatom 236 55 5 0 0 0 - - -;
#X obj 195 56 bng 15 250 50 0 empty empty empty 17 7 0 10 -262144 -1
-1;
#X obj 195 77 t b;
#X obj 195 31 moses;
#X obj 195 -33 average;
#X floatatom 195 9 5 0 0 0 - - -;
#X floatatom 196 129 5 0 0 0 - - -;
#X floatatom 146 118 5 0 0 0 - - -;
#X obj 146 94 counter;
#X obj 175 74 bng 15 250 50 0 empty empty empty 17 7 0 10 -262144 -1
-1;
#X obj 152 51 r time;
#X floatatom 196 178 5 0 0 0 - - -;
#X obj 138 202 makenote;
#X floatatom 196 202 5 0 0 0 - - -;
#X floatatom 234 202 5 0 0 0 - - -;
#X obj 179 -41 vradio 10 1 0 6 empty empty empty 0 -8 0 10 -262144
-1 -1 0;
#X obj 167 -41 tgl 10 0 empty empty empty 8 -8 0 10 -262144 -1 -1 0
1;
#X obj 167 -31 tgl 10 0 empty empty empty 8 -8 0 10 -262144 -1 -1 0
1;
#X obj 167 -20 tgl 10 0 empty empty empty 8 -8 0 10 -262144 -1 -1 0
1;
#X obj 167 -9 tgl 10 0 empty empty empty 8 -8 0 10 -262144 -1 -1 0
1;
#X obj 167 0 tgl 10 0 empty empty empty 8 -8 0 10 -262144 -1 -1 0 1
;
#X obj 167 10 tgl 10 0 empty empty empty 8 -8 0 10 -262144 -1 -1 0
1;
#N canvas 70 200 450 300 on/off3 0;
#X obj 40 76 route 0 1 2 3 4 5;
#X obj 40 43 inlet;
#X obj 41 106 outlet;
#X obj 51 113 outlet;
#X obj 64 115 outlet;
#X obj 81 121 outlet;
#X obj 95 130 outlet;
#X obj 111 138 outlet;
#X obj 126 145 outlet;
#X connect 0 0 2 0;
#X connect 0 1 3 0;
#X connect 0 2 4 0;
#X connect 0 3 5 0;
#X connect 0 4 6 0;
#X connect 0 5 7 0;
#X connect 0 6 8 0;
#X connect 1 0 0 0;
#X restore 51 25 pd on/off3;
#N canvas 25 187 1021 549 shifter3 0;
#X obj -304 -20 inlet;
#X obj -282 40 tgl 15 0 empty empty empty 17 7 0 10 -262144 -1 -1 0
1;
#X obj -260 40 tgl 15 0 empty empty empty 17 7 0 10 -262144 -1 -1 0
1;
#X obj -236 40 tgl 15 0 empty empty empty 17 7 0 10 -262144 -1 -1 0
1;
#X obj -214 40 tgl 15 0 empty empty empty 17 7 0 10 -262144 -1 -1 0
1;
#X obj -191 40 tgl 15 0 empty empty empty 17 7 0 10 -262144 -1 -1 0
1;
#X msg -314 63 127;
#X obj -239 150 /;
#X floatatom -239 172 5 0 0 0 - - -;
#X msg -283 63 63.5;
#X msg -245 63 31.5;
#X msg -210 61 15.5;
#X msg -170 61 7.5;
#X msg -135 62 3.5;
#X obj -303 5 route 0 1 2 3 4 5;
#X obj -302 40 tgl 15 0 empty empty empty 17 7 0 10 -262144 -1 -1 0
1;
#X obj -294 198 r datos3;
#X obj -239 198 s datosP3;
#X connect 0 0 14 0;
#X connect 1 0 9 0;
#X connect 2 0 10 0;
#X connect 3 0 11 0;
#X connect 4 0 12 0;
#X connect 5 0 13 0;
#X connect 6 0 7 1;
#X connect 7 0 8 0;
#X connect 8 0 17 0;
#X connect 9 0 7 1;
#X connect 10 0 7 1;
#X connect 11 0 7 1;
#X connect 12 0 7 1;
#X connect 13 0 7 1;
#X connect 14 0 15 0;
#X connect 14 1 1 0;
#X connect 14 2 2 0;
#X connect 14 3 3 0;
#X connect 14 4 4 0;
#X connect 14 5 5 0;
#X connect 15 0 6 0;
#X connect 16 0 7 0;
#X restore 117 26 pd shifter3;
#X obj 196 153 + 35;
#X obj 160 154 vsl 15 30 0 600 0 0 empty empty empty 0 -9 0 10 -33289
-262144 -1 0 1;
#X obj 195 -52 r datosP2;
#X floatatom 35 58 5 0 0 0 - - -;
#X obj -6 59 bng 15 250 50 0 empty empty empty 17 7 0 10 -262144 -1
-1;
#X obj -6 80 t b;
#X obj -6 39 moses;
#X obj -6 -25 average;
#X floatatom -6 18 5 0 0 0 - - -;
#X floatatom -5 132 5 0 0 0 - - -;
#X floatatom -55 121 5 0 0 0 - - -;
#X obj -55 97 counter;
#X obj -26 77 bng 15 250 50 0 empty empty empty 17 7 0 10 -262144 -1
-1;
#X obj -49 54 r time;
#X floatatom -5 181 5 0 0 0 - - -;
#X obj -63 205 makenote;
#X floatatom -5 205 5 0 0 0 - - -;
#X floatatom 33 205 5 0 0 0 - - -;
#X obj -22 -38 vradio 10 1 0 6 empty empty empty 0 -8 0 10 -262144
-1 -1 0;
#X obj -34 -38 tgl 10 0 empty empty empty 8 -8 0 10 -262144 -1 -1 0
1;
#X obj -34 -28 tgl 10 0 empty empty empty 8 -8 0 10 -262144 -1 -1 0
1;
#X obj -34 -17 tgl 10 0 empty empty empty 8 -8 0 10 -262144 -1 -1 0
1;
#X obj -34 -6 tgl 10 0 empty empty empty 8 -8 0 10 -262144 -1 -1 0
1;
#X obj -34 3 tgl 10 0 empty empty empty 8 -8 0 10 -262144 -1 -1 0 1
;
#X obj -34 13 tgl 10 0 empty empty empty 8 -8 0 10 -262144 -1 -1 0
1;
#N canvas 70 200 450 300 on/off3 0;
#X obj 40 76 route 0 1 2 3 4 5;
#X obj 40 43 inlet;
#X obj 41 106 outlet;
#X obj 51 113 outlet;
#X obj 64 115 outlet;
#X obj 81 121 outlet;
#X obj 95 130 outlet;
#X obj 111 138 outlet;
#X obj 126 145 outlet;
#X connect 0 0 2 0;
#X connect 0 1 3 0;
#X connect 0 2 4 0;
#X connect 0 3 5 0;
#X connect 0 4 6 0;
#X connect 0 5 7 0;
#X connect 0 6 8 0;
#X connect 1 0 0 0;
#X restore -150 28 pd on/off3;
#N canvas 25 187 1021 549 shifter3 0;
#X obj -304 -20 inlet;
#X obj -282 40 tgl 15 0 empty empty empty 17 7 0 10 -262144 -1 -1 0
1;
#X obj -260 40 tgl 15 0 empty empty empty 17 7 0 10 -262144 -1 -1 0
1;
#X obj -236 40 tgl 15 0 empty empty empty 17 7 0 10 -262144 -1 -1 0
1;
#X obj -214 40 tgl 15 0 empty empty empty 17 7 0 10 -262144 -1 -1 0
1;
#X obj -191 40 tgl 15 0 empty empty empty 17 7 0 10 -262144 -1 -1 0
1;
#X msg -314 63 127;
#X obj -239 150 /;
#X floatatom -239 172 5 0 0 0 - - -;
#X msg -283 63 63.5;
#X msg -245 63 31.5;
#X msg -210 61 15.5;
#X msg -170 61 7.5;
#X msg -135 62 3.5;
#X obj -303 5 route 0 1 2 3 4 5;
#X obj -302 40 tgl 15 0 empty empty empty 17 7 0 10 -262144 -1 -1 0
1;
#X obj -294 198 r datos3;
#X obj -239 198 s datosP3;
#X connect 0 0 14 0;
#X connect 1 0 9 0;
#X connect 2 0 10 0;
#X connect 3 0 11 0;
#X connect 4 0 12 0;
#X connect 5 0 13 0;
#X connect 6 0 7 1;
#X connect 7 0 8 0;
#X connect 8 0 17 0;
#X connect 9 0 7 1;
#X connect 10 0 7 1;
#X connect 11 0 7 1;
#X connect 12 0 7 1;
#X connect 13 0 7 1;
#X connect 14 0 15 0;
#X connect 14 1 1 0;
#X connect 14 2 2 0;
#X connect 14 3 3 0;
#X connect 14 4 4 0;
#X connect 14 5 5 0;
#X connect 15 0 6 0;
#X connect 16 0 7 0;
#X restore -84 29 pd shifter3;
#X obj -5 156 + 35;
#X obj -41 157 vsl 15 30 0 600 0 0 empty empty empty 0 -9 0 10 -33289
-262144 -1 0 1;
#X obj -6 -46 r datosP1;
#X obj -6 -4 resample 20;
#X floatatom 57 -24 5 0 0 0 - - -;
#X obj 57 -44 r speed;
#X obj 195 -12 resample 20;
#X floatatom 258 -32 5 0 0 0 - - -;
#X obj 258 -52 r speed;
#X obj 406 -12 resample 20;
#X floatatom 469 -32 5 0 0 0 - - -;
#X obj 469 -52 r speed;
#X obj 595 -12 resample 20;
#X floatatom 658 -32 5 0 0 0 - - -;
#X obj 658 -52 r speed;
#X obj 781 -16 resample 20;
#X floatatom 844 -36 5 0 0 0 - - -;
#X obj 844 -56 r speed;
#X obj 991 -126 s speed;
#X floatatom 991 -147 5 0 0 0 - - -;
#X obj 225 -338 hsl 250 30 0 127 0 0 empty empty EEG_Frequency_to_midi_notes
2 14 0 15 -1 -1 -191407 0 1;
#X obj 1045 -126 s all control;
#X floatatom 1044 -157 5 0 0 0 - - -;
#X obj -129 158 r all control;
#X obj 72 153 r all control;
#X obj 279 149 r all control;
#X obj 475 153 r all control;
#X obj 662 153 r all control;
#X obj -63 230 noteout 1;
#X obj 138 227 noteout 2;
#X obj 349 225 noteout 3;
#X obj 541 227 noteout 4;
#X obj 725 227 noteout 5;
#X floatatom 125 -250 5 0 0 0 - - -;
#X floatatom 166 -250 5 0 0 0 - - -;
#X floatatom 87 -250 5 0 0 0 - - -;
#X floatatom 43 -250 5 0 0 0 - - -;
#X floatatom 250 -250 5 0 0 0 - - -;
#X floatatom 206 -250 5 0 0 0 - - -;
#X obj 43 -232 * 0.2;
#X floatatom 43 -194 5 0 0 0 - - -;
#X obj 87 -232 * 0.2;
#X floatatom 87 -194 5 0 0 0 - - -;
#X obj 125 -232 * 0.2;
#X floatatom 125 -194 5 0 0 0 - - -;
#X obj 166 -232 * 0.2;
#X floatatom 166 -193 5 0 0 0 - - -;
#X obj 206 -232 * 0.2;
#X floatatom 207 -194 5 0 0 0 - - -;
#X obj 250 -232 * 0.2;
#X floatatom 251 -192 5 0 0 0 - - -;
#X obj 45 -355 unpackOSC;
#X obj 46 -398 import mrpeach;
#X obj 109 -354 print unpacked;
#X obj 43 -315 resample 20;
#X floatatom 120 -315 5 0 0 0 - - -;
#X obj 43 -379 udpreceive 32000;
#X obj 43 -291 routeOSC /attention /meditation /delta /theta /lowAlpha
/highAlpha /lowBeta /highBeta /lowGamma /highGamma;
#X floatatom 340 -250 5 0 0 0 - - -;
#X floatatom 296 -250 5 0 0 0 - - -;
#X obj 296 -232 * 0.2;
#X floatatom 297 -194 5 0 0 0 - - -;
#X obj 340 -232 * 0.2;
#X floatatom 341 -192 5 0 0 0 - - -;
#X floatatom 429 -250 5 0 0 0 - - -;
#X floatatom 385 -250 5 0 0 0 - - -;
#X obj 385 -232 * 0.2;
#X floatatom 386 -193 5 0 0 0 - - -;
#X obj 429 -232 * 0.2;
#X floatatom 430 -191 5 0 0 0 - - -;
#X obj 43 -213 s at;
#X obj 87 -213 s mt;
#X obj 125 -213 s d;
#X obj 166 -212 s t;
#X obj 206 -211 s la;
#X obj 250 -210 s ha;
#X obj 296 -211 s lb;
#X obj 340 -210 s hb;
#X obj 385 -210 s lg;
#X obj 429 -209 s hg;
#X obj 120 -335 r resample;
#X obj 331 -169 vsl 30 40 1 1023 0 0 empty empty empty 0 -9 0 10 -1
-262144 -1 0 1;
#X floatatom 331 -125 5 0 0 0 - - -;
#X obj 331 -109 s datos6;
#X obj 392 -171 vsl 30 40 1 1023 0 0 empty empty empty 0 -9 0 10 -1
-262144 -1 0 1;
#X floatatom 392 -127 5 0 0 0 - - -;
#X obj 392 -111 s datos7;
#X obj 450 -172 vsl 30 40 1 1023 0 0 empty empty empty 0 -9 0 10 -1
-262144 -1 0 1;
#X floatatom 450 -128 5 0 0 0 - - -;
#X obj 450 -112 s datos8;
#X obj 510 -173 vsl 30 40 1 1023 0 0 empty empty empty 0 -9 0 10 -1
-262144 -1 0 1;
#X floatatom 510 -129 5 0 0 0 - - -;
#X obj 510 -113 s datos9;
#X connect 1 0 0 0;
#X connect 1 0 3 0;
#X connect 2 0 1 0;
#X connect 3 0 103 0;
#X connect 4 0 8 0;
#X connect 5 0 4 1;
#X connect 6 0 106 0;
#X connect 7 0 2 1;
#X connect 8 0 6 0;
#X connect 8 0 100 0;
#X connect 9 0 15 0;
#X connect 9 0 71 0;
#X connect 10 0 11 0;
#X connect 11 0 15 0;
#X connect 11 0 34 0;
#X connect 12 0 10 0;
#X connect 12 1 9 0;
#X connect 13 0 220 0;
#X connect 14 0 12 0;
#X connect 14 0 12 1;
#X connect 15 0 153 0;
#X connect 16 0 22 0;
#X connect 16 0 74 0;
#X connect 17 0 18 0;
#X connect 18 0 22 0;
#X connect 18 0 38 0;
#X connect 19 0 17 0;
#X connect 19 1 16 0;
#X connect 20 0 223 0;
#X connect 21 0 19 0;
#X connect 21 0 19 1;
#X connect 22 0 54 0;
#X connect 23 0 29 0;
#X connect 23 0 77 0;
#X connect 24 0 25 0;
#X connect 25 0 29 0;
#X connect 25 0 42 0;
#X connect 26 0 24 0;
#X connect 26 1 23 0;
#X connect 27 0 226 0;
#X connect 28 0 26 0;
#X connect 28 0 26 1;
#X connect 29 0 154 0;
#X connect 30 0 32 0;
#X connect 31 0 30 0;
#X connect 34 0 33 0;
#X connect 35 0 34 3;
#X connect 36 0 35 0;
#X connect 38 0 37 0;
#X connect 39 0 38 3;
#X connect 40 0 39 0;
#X connect 42 0 41 0;
#X connect 43 0 42 3;
#X connect 44 0 43 0;
#X connect 45 0 53 0;
#X connect 46 0 69 0;
#X connect 47 0 72 0;
#X connect 48 0 75 0;
#X connect 49 0 45 0;
#X connect 51 0 2 0;
#X connect 52 0 4 0;
#X connect 53 0 50 0;
#X connect 54 0 47 0;
#X connect 55 0 56 0;
#X connect 56 0 65 0;
#X connect 57 0 62 0;
#X connect 58 0 59 0;
#X connect 59 0 159 0;
#X connect 60 0 61 0;
#X connect 61 0 67 0;
#X connect 62 0 66 0;
#X connect 63 0 64 0;
#X connect 64 0 68 0;
#X connect 69 0 241 0;
#X connect 69 1 241 1;
#X connect 70 0 69 1;
#X connect 71 0 69 2;
#X connect 72 0 242 0;
#X connect 72 1 242 1;
#X connect 73 0 72 1;
#X connect 74 0 72 2;
#X connect 75 0 243 0;
#X connect 75 1 243 1;
#X connect 76 0 75 1;
#X connect 77 0 75 2;
#X connect 78 0 80 0;
#X connect 78 0 98 0;
#X connect 79 0 78 0;
#X connect 80 0 104 0;
#X connect 81 0 85 0;
#X connect 82 0 81 1;
#X connect 83 0 107 0;
#X connect 84 0 79 1;
#X connect 85 0 83 0;
#X connect 85 0 101 0;
#X connect 86 0 79 0;
#X connect 87 0 81 0;
#X connect 88 0 90 0;
#X connect 88 0 99 0;
#X connect 89 0 88 0;
#X connect 90 0 105 0;
#X connect 91 0 95 0;
#X connect 92 0 91 1;
#X connect 93 0 108 0;
#X connect 94 0 89 1;
#X connect 95 0 93 0;
#X connect 95 0 102 0;
#X connect 96 0 89 0;
#X connect 97 0 91 0;
#X connect 109 0 124 0;
#X connect 109 0 117 0;
#X connect 110 0 13 0;
#X connect 117 0 118 0;
#X connect 117 1 119 0;
#X connect 117 2 120 0;
#X connect 117 3 121 0;
#X connect 117 4 122 0;
#X connect 117 5 123 0;
#X connect 125 0 140 0;
#X connect 125 0 139 0;
#X connect 132 0 142 0;
#X connect 132 0 141 0;
#X connect 139 0 126 0;
#X connect 139 1 127 0;
#X connect 139 2 128 0;
#X connect 139 3 129 0;
#X connect 139 4 130 0;
#X connect 139 5 131 0;
#X connect 141 0 133 0;
#X connect 141 1 134 0;
#X connect 141 2 135 0;
#X connect 141 3 136 0;
#X connect 141 4 137 0;
#X connect 141 5 138 0;
#X connect 143 0 20 0;
#X connect 144 0 151 0;
#X connect 144 0 152 0;
#X connect 152 0 145 0;
#X connect 152 1 146 0;
#X connect 152 2 147 0;
#X connect 152 3 148 0;
#X connect 152 4 149 0;
#X connect 152 5 150 0;
#X connect 153 0 46 0;
#X connect 154 0 48 0;
#X connect 155 0 76 0;
#X connect 156 0 73 0;
#X connect 157 0 70 0;
#X connect 158 0 27 0;
#X connect 160 0 166 0;
#X connect 160 0 174 0;
#X connect 161 0 162 0;
#X connect 162 0 166 0;
#X connect 162 0 168 0;
#X connect 163 0 161 0;
#X connect 163 1 160 0;
#X connect 164 0 217 0;
#X connect 165 0 163 0;
#X connect 165 0 163 1;
#X connect 166 0 184 0;
#X connect 168 0 167 0;
#X connect 169 0 168 3;
#X connect 170 0 169 0;
#X connect 171 0 172 0;
#X connect 172 0 240 0;
#X connect 172 1 240 1;
#X connect 173 0 172 1;
#X connect 174 0 172 2;
#X connect 175 0 183 0;
#X connect 175 0 182 0;
#X connect 182 0 176 0;
#X connect 182 1 177 0;
#X connect 182 2 178 0;
#X connect 182 3 179 0;
#X connect 182 4 180 0;
#X connect 182 5 181 0;
#X connect 184 0 171 0;
#X connect 185 0 173 0;
#X connect 186 0 164 0;
#X connect 187 0 193 0;
#X connect 187 0 201 0;
#X connect 188 0 189 0;
#X connect 189 0 193 0;
#X connect 189 0 195 0;
#X connect 190 0 188 0;
#X connect 190 1 187 0;
#X connect 191 0 214 0;
#X connect 192 0 190 0;
#X connect 192 0 190 1;
#X connect 193 0 211 0;
#X connect 195 0 194 0;
#X connect 196 0 195 3;
#X connect 197 0 196 0;
#X connect 198 0 199 0;
#X connect 199 0 239 0;
#X connect 199 1 239 1;
#X connect 200 0 199 1;
#X connect 201 0 199 2;
#X connect 202 0 210 0;
#X connect 202 0 209 0;
#X connect 209 0 203 0;
#X connect 209 1 204 0;
#X connect 209 2 205 0;
#X connect 209 3 206 0;
#X connect 209 4 207 0;
#X connect 209 5 208 0;
#X connect 211 0 198 0;
#X connect 212 0 200 0;
#X connect 213 0 191 0;
#X connect 214 0 192 0;
#X connect 215 0 214 1;
#X connect 216 0 215 0;
#X connect 217 0 165 0;
#X connect 218 0 217 1;
#X connect 219 0 218 0;
#X connect 220 0 14 0;
#X connect 221 0 220 1;
#X connect 222 0 221 0;
#X connect 223 0 21 0;
#X connect 224 0 223 1;
#X connect 225 0 224 0;
#X connect 226 0 28 0;
#X connect 227 0 226 1;
#X connect 228 0 227 0;
#X connect 230 0 229 0;
#X connect 233 0 232 0;
#X connect 234 0 212 0;
#X connect 235 0 185 0;
#X connect 236 0 157 0;
#X connect 237 0 156 0;
#X connect 238 0 155 0;
#X connect 244 0 254 0;
#X connect 245 0 256 0;
#X connect 246 0 252 0;
#X connect 247 0 250 0;
#X connect 248 0 260 0;
#X connect 249 0 258 0;
#X connect 250 0 251 0;
#X connect 251 0 281 0;
#X connect 251 0 55 0;
#X connect 252 0 253 0;
#X connect 253 0 282 0;
#X connect 253 0 57 0;
#X connect 254 0 255 0;
#X connect 255 0 283 0;
#X connect 255 0 58 0;
#X connect 256 0 257 0;
#X connect 257 0 284 0;
#X connect 257 0 60 0;
#X connect 258 0 259 0;
#X connect 259 0 285 0;
#X connect 259 0 63 0;
#X connect 260 0 261 0;
#X connect 261 0 286 0;
#X connect 261 0 292 0;
#X connect 262 0 265 0;
#X connect 265 0 268 0;
#X connect 266 0 265 1;
#X connect 267 0 262 0;
#X connect 268 0 247 0;
#X connect 268 1 246 0;
#X connect 268 2 244 0;
#X connect 268 3 245 0;
#X connect 268 4 249 0;
#X connect 268 5 248 0;
#X connect 268 6 270 0;
#X connect 268 7 269 0;
#X connect 268 8 276 0;
#X connect 268 9 275 0;
#X connect 269 0 273 0;
#X connect 270 0 271 0;
#X connect 271 0 272 0;
#X connect 272 0 287 0;
#X connect 273 0 274 0;
#X connect 274 0 288 0;
#X connect 274 0 295 0;
#X connect 275 0 279 0;
#X connect 276 0 277 0;
#X connect 277 0 278 0;
#X connect 278 0 289 0;
#X connect 278 0 298 0;
#X connect 279 0 280 0;
#X connect 280 0 290 0;
#X connect 280 0 301 0;
#X connect 291 0 266 0;
#X connect 292 0 293 0;
#X connect 293 0 294 0;
#X connect 295 0 296 0;
#X connect 296 0 297 0;
#X connect 298 0 299 0;
#X connect 299 0 300 0;
#X connect 301 0 302 0;
#X connect 302 0 303 0;
