#N canvas 615 147 632 400 10;
#X declare -lib cyclone -lib unauthorized;
#X msg -15 231 [;
#X msg -234 232 ];
#X msg -300 148 disconnect;
#X obj -212 205 t b list b;
#X obj -365 87 loadbang;
#X obj -212 174 pack;
#X obj -245 283 sendOSC;
#X floatatom -168 122 5 1 20 0 - - -;
#X floatatom -212 122 5 0 200 0 - - -;
#X obj -357 25 import cyclone unauthorized;
#X obj -180 147 t b f;
#X obj -212 63 r b;
#X obj -164 70 r b1;
#X text -214 44 AF3;
#X text -137 98 F7;
#X msg 246 230 [;
#X msg 21 230 ];
#X obj 24 205 t b list b;
#X obj 24 174 pack;
#X floatatom 69 113 5 0 15 0 - - -;
#X floatatom 25 112 5 0 20 0 - - -;
#X obj 37 149 t b f;
#X obj -167 99 / 127;
#X obj -210 95 / 127;
#X msg 99 63 0.1;
#X msg 130 63 0.3;
#X msg 161 63 0.5;
#X msg -206 232 send /print \$1 \, send /print \$2;
#X msg -365 120 connect localhost 11112;
#X msg 31 234 send /b10s/blob/ \$1 \, /b10s/blob/ \$2;
#X connect 0 0 6 0;
#X connect 1 0 6 0;
#X connect 2 0 6 0;
#X connect 3 0 1 0;
#X connect 3 1 27 0;
#X connect 3 2 0 0;
#X connect 4 0 28 0;
#X connect 5 0 3 0;
#X connect 7 0 10 0;
#X connect 8 0 5 0;
#X connect 10 0 5 0;
#X connect 10 1 5 1;
#X connect 11 0 23 0;
#X connect 12 0 22 0;
#X connect 15 0 6 0;
#X connect 16 0 6 0;
#X connect 17 0 16 0;
#X connect 17 1 29 0;
#X connect 17 2 15 0;
#X connect 18 0 17 0;
#X connect 19 0 21 0;
#X connect 20 0 18 0;
#X connect 21 0 18 0;
#X connect 21 1 18 1;
#X connect 22 0 7 0;
#X connect 23 0 8 0;
#X connect 24 0 19 0;
#X connect 25 0 19 0;
#X connect 26 0 19 0;
#X connect 27 0 6 0;
#X connect 28 0 6 0;
#X connect 29 0 6 0;
