#N canvas 14 23 1261 743 10;
#X declare -lib mrpeach;
#N canvas 155 132 555 363 (subpatch) 0;
#X obj 25 8 bng 15 250 50 0 empty empty empty 17 7 0 10 -262144 -159808
-1;
#X obj 42 8 bng 15 250 50 0 empty empty empty 17 7 0 10 -262144 -159808
-1;
#X floatatom -60 52 5 0 0 0 - - -;
#X obj 13 26 hsl 128 15 0.5 3 1 0 empty empty empty -2 -8 0 10 -262144
-159808 -1 0 1;
#X obj 10 8 bng 15 250 50 0 empty empty empty 17 7 0 10 -262144 -159808
-1;
#X obj -66 128 &&;
#X floatatom -60 86 5 0 0 0 - - -;
#X floatatom -66 146 5 0 0 0 - - -;
#X obj -65 166 sel 1;
#X obj 128 8 bng 15 250 50 0 empty empty empty 17 7 0 10 -262144 -159808
-1;
#X obj -60 70 clip 0.4 4;
#X obj -86 107 > 0.5;
#X obj -48 108 < 4;
#X obj -9 -27 sel 0.5 1 1.5 2 2.5 3;
#X obj 59 8 bng 15 250 50 0 empty empty empty 17 7 0 10 -262144 -159808
-1;
#X obj 76 8 bng 15 250 50 0 empty empty empty 17 7 0 10 -262144 -159808
-1;
#X obj -60 28 inlet;
#X obj 128 54 outlet;
#X floatatom 93 7 5 0 0 0 - - -;
#X floatatom 70 92 5 0 0 0 - - -;
#X obj 71 115 s AF3D;
#X connect 2 0 10 0;
#X connect 3 0 19 0;
#X connect 5 0 7 0;
#X connect 6 0 3 0;
#X connect 6 0 11 0;
#X connect 6 0 12 0;
#X connect 6 0 13 0;
#X connect 6 0 18 0;
#X connect 7 0 8 0;
#X connect 8 0 9 0;
#X connect 9 0 17 0;
#X connect 10 0 6 0;
#X connect 11 0 5 0;
#X connect 12 0 5 1;
#X connect 13 1 4 0;
#X connect 13 2 0 0;
#X connect 13 3 1 0;
#X connect 13 4 14 0;
#X connect 13 5 15 0;
#X connect 16 0 2 0;
#X connect 19 0 20 0;
#X coords 0 1 100 -1 150 50 1 0 0;
#X restore 273 153 graph;
#N canvas 315 59 555 363 (subpatch) 0;
#X obj 23 10 bng 15 250 50 0 empty empty empty 17 7 0 10 -262144 -232576
-1;
#X obj 40 10 bng 15 250 50 0 empty empty empty 17 7 0 10 -262144 -232576
-1;
#X obj 57 10 bng 15 250 50 0 empty empty empty 17 7 0 10 -262144 -232576
-1;
#X floatatom -103 -129 5 0 0 0 - - -;
#X obj 10 28 hsl 128 15 3 8 1 0 empty empty empty -2 -8 0 10 -262144
-232576 -1 0 1;
#X obj 8 10 bng 15 250 50 0 empty empty empty 17 7 0 10 -262144 -232576
-1;
#X obj -103 -31 &&;
#X floatatom -103 -88 5 0 0 0 - - -;
#X floatatom -104 -8 5 0 0 0 - - -;
#X obj -95 -55 < 8;
#X obj -104 12 sel 1;
#X obj 123 8 bng 15 250 50 0 empty empty empty 17 7 0 10 -262144 -232576
-1;
#X obj -103 -112 clip 3 8;
#X obj -60 -74 sel 3 4 5 6 7 8;
#X obj -121 -56 > 3;
#X obj -106 -154 inlet;
#X obj 111 54 outlet;
#X floatatom 79 9 5 0 0 0 - - -;
#X floatatom 33 61 5 0 0 0 - - -;
#X obj 34 84 s AF3T;
#X connect 3 0 12 0;
#X connect 4 0 18 0;
#X connect 6 0 8 0;
#X connect 7 0 9 0;
#X connect 7 0 4 0;
#X connect 7 0 13 0;
#X connect 7 0 14 0;
#X connect 7 0 17 0;
#X connect 8 0 10 0;
#X connect 9 0 6 1;
#X connect 10 0 11 0;
#X connect 11 0 16 0;
#X connect 12 0 7 0;
#X connect 13 1 5 0;
#X connect 13 2 0 0;
#X connect 13 3 1 0;
#X connect 13 4 2 0;
#X connect 14 0 6 0;
#X connect 15 0 3 0;
#X connect 18 0 19 0;
#X coords 0 1 100 -1 150 50 1 0 0;
#X restore 442 150 graph;
#N canvas 346 345 555 363 (subpatch) 0;
#X obj 20 10 bng 15 250 50 0 empty empty empty 17 7 0 10 -262144 -260097
-1;
#X obj 37 10 bng 15 250 50 0 empty empty empty 17 7 0 10 -262144 -260097
-1;
#X obj 54 10 bng 15 250 50 0 empty empty empty 17 7 0 10 -262144 -260097
-1;
#X floatatom -161 -3 5 0 0 0 - - -;
#X obj 7 30 hsl 128 15 7 13 1 0 empty empty empty -2 -8 0 10 -262144
-260097 -1 0 1;
#X obj 71 10 bng 15 250 50 0 empty empty empty 17 7 0 10 -262144 -260097
-1;
#X obj 5 10 bng 15 250 50 0 empty empty empty 17 7 0 10 -262144 -260097
-1;
#X obj -161 95 &&;
#X floatatom -161 38 5 0 0 0 - - -;
#X floatatom -162 118 5 0 0 0 - - -;
#X obj -161 138 sel 1;
#X obj 127 10 bng 15 250 50 0 empty empty empty 17 7 0 10 -262144 -260097
-1;
#X obj -179 70 > 7;
#X obj -153 71 < 13;
#X obj -161 14 clip 7 13;
#X obj -117 52 sel 7 8 9 10 11 12 13;
#X floatatom 91 9 5 0 0 0 - - -;
#X obj -160 -30 inlet;
#X obj 127 70 outlet;
#X floatatom 49 96 5 0 0 0 - - -;
#X obj 50 119 s AF3A;
#X connect 3 0 14 0;
#X connect 4 0 19 0;
#X connect 7 0 9 0;
#X connect 8 0 4 0;
#X connect 8 0 12 0;
#X connect 8 0 13 0;
#X connect 8 0 15 0;
#X connect 8 0 16 0;
#X connect 9 0 10 0;
#X connect 10 0 11 0;
#X connect 11 0 18 0;
#X connect 12 0 7 0;
#X connect 13 0 7 1;
#X connect 14 0 8 0;
#X connect 15 1 6 0;
#X connect 15 2 0 0;
#X connect 15 3 1 0;
#X connect 15 4 2 0;
#X connect 15 5 5 0;
#X connect 17 0 3 0;
#X connect 19 0 20 0;
#X coords 0 1 100 -1 150 50 1 0 0;
#X restore 272 263 graph;
#N canvas 240 62 555 363 (subpatch) 0;
#X floatatom -204 6 5 0 0 0 - - -;
#X obj 9 30 hsl 128 15 11 15 1 0 empty empty empty -2 -8 0 10 -262144
-2112 -1 0 1;
#X obj 6 9 bng 15 250 50 0 empty empty empty 17 7 0 10 -262144 -2112
-1;
#X obj -204 105 &&;
#X floatatom -204 47 5 0 0 0 - - -;
#X floatatom -206 127 5 0 0 0 - - -;
#X obj -205 147 sel 1;
#X obj 116 9 bng 15 250 50 0 empty empty empty 17 7 0 10 -262144 -1
-1;
#X obj -204 23 clip 11 16;
#X obj -161 61 sel 11 12 13 14 15;
#X obj -223 79 > 11;
#X obj -196 81 < 15;
#X obj 23 9 bng 15 250 50 0 empty empty empty 17 7 0 10 -262144 -2112
-1;
#X obj 40 9 bng 15 250 50 0 empty empty empty 17 7 0 10 -262144 -2112
-1;
#X obj 58 9 bng 15 250 50 0 empty empty empty 17 7 0 10 -262144 -2112
-1;
#X floatatom 79 9 5 0 0 0 - - -;
#X obj -205 -20 inlet;
#X obj 114 58 outlet;
#X floatatom 18 73 5 0 0 0 - - -;
#X obj 19 96 s AF3SB;
#X connect 0 0 8 0;
#X connect 1 0 18 0;
#X connect 3 0 5 0;
#X connect 4 0 1 0;
#X connect 4 0 9 0;
#X connect 4 0 10 0;
#X connect 4 0 11 0;
#X connect 4 0 15 0;
#X connect 5 0 6 0;
#X connect 6 0 7 0;
#X connect 7 0 17 0;
#X connect 8 0 4 0;
#X connect 9 1 2 0;
#X connect 9 2 12 0;
#X connect 9 3 13 0;
#X connect 9 4 14 0;
#X connect 10 0 3 0;
#X connect 11 0 3 1;
#X connect 16 0 0 0;
#X connect 18 0 19 0;
#X coords 0 1 100 -1 150 50 1 0 0;
#X restore 269 367 graph;
#N canvas 239 258 555 363 (subpatch) 0;
#X obj 23 10 bng 15 250 50 0 empty empty empty 17 7 0 10 -262144 -26493
-1;
#X obj 41 10 bng 15 250 50 0 empty empty empty 17 7 0 10 -262144 -26493
-1;
#X obj 58 10 bng 15 250 50 0 empty empty empty 17 7 0 10 -262144 -26493
-1;
#X floatatom -105 50 5 0 0 0 - - -;
#X obj 8 29 hsl 128 15 14 19 1 0 empty empty empty -2 -8 0 10 -262144
-26493 -1 0 1;
#X obj 8 10 bng 15 250 50 0 empty empty empty 17 7 0 10 -262144 -26493
-1;
#X obj -105 149 &&;
#X floatatom -105 91 5 0 0 0 - - -;
#X floatatom -107 171 5 0 0 0 - - -;
#X obj -106 191 sel 1;
#X obj 125 11 bng 15 250 50 0 empty empty empty 17 7 0 10 -262144 -1
-1;
#X obj -105 67 clip 15 21;
#X obj -123 123 > 15;
#X obj -97 125 < 21;
#X obj 72 10 bng 15 250 50 0 empty empty empty 17 7 0 10 -262144 -26493
-1;
#X obj -74 104 sel 15 16 17 18 19 20 21;
#X floatatom 90 10 5 0 0 0 - - -;
#X obj -109 24 inlet;
#X obj 126 59 outlet;
#X floatatom 110 132 5 0 0 0 - - -;
#X obj 111 155 s AF3MB;
#X connect 3 0 11 0;
#X connect 4 0 19 0;
#X connect 6 0 8 0;
#X connect 7 0 4 0;
#X connect 7 0 12 0;
#X connect 7 0 13 0;
#X connect 7 0 15 0;
#X connect 8 0 9 0;
#X connect 9 0 10 0;
#X connect 10 0 18 0;
#X connect 11 0 7 0;
#X connect 12 0 6 0;
#X connect 13 0 6 1;
#X connect 15 1 5 0;
#X connect 15 2 0 0;
#X connect 15 3 1 0;
#X connect 15 4 2 0;
#X connect 15 5 14 0;
#X connect 17 0 3 0;
#X connect 19 0 20 0;
#X coords 0 1 100 -1 150 50 1 0 0;
#X restore 442 366 graph;
#N canvas 158 367 450 300 noteDelta1 0;
#X obj 37 71 makenote;
#X floatatom 67 52 5 0 0 0 - - -;
#X floatatom 105 52 5 0 0 0 - - -;
#X msg 37 52 70;
#X obj 37 24 inlet;
#X obj 77 22 r vel;
#X obj 119 24 r dur;
#X floatatom 9 93 5 0 0 0 - - -;
#X obj 15 117 * 0.3;
#X obj 95 70 noteout 1;
#X connect 0 0 9 0;
#X connect 0 1 9 1;
#X connect 1 0 0 1;
#X connect 2 0 0 2;
#X connect 3 0 0 0;
#X connect 4 0 3 0;
#X connect 5 0 1 0;
#X connect 6 0 2 0;
#X connect 7 0 8 0;
#X restore 273 206 pd noteDelta1;
#N canvas 413 140 402 279 ARGO 0;
#X obj 101 101 cnv 10 95 41 \$0-A \$0-B empty 20 12 0 14 -1 -1 1.04858e+06
;
#X obj 101 109 nbx 4 12 0 1e+37 0 0 \$0 \$0-ReceiveCpuPeak CPUPeak
45 7 1 11 -228856 -1 -228856 8 256;
#X obj 101 122 nbx 4 12 0 1e+37 0 0 \$0 \$0-ReceiveCpuMean CPUMean
45 7 1 11 -228856 -1 -228856 7.9 256;
#X obj 145 -55 cputime;
#X obj 145 -76 t b b;
#X text 188 24 (c) musil@iem.kug.ac.at;
#X text 230 37 IEM KUG;
#X text 78 18 CPU-load;
#X obj 144 -125 loadbang;
#X text 205 48 graz \, austria 2001;
#X obj 145 -100 metro 500;
#X obj 145 -34 * 0.2;
#X text 237 -88 -dsp-load in %;
#X text 228 -101 measure average- and peak-;
#X obj 37 18 * 100;
#X obj 37 63 int;
#X obj 37 41 + 0.499;
#X obj 37 86 * 0.01;
#N canvas 524 162 422 273 1p1zmodif 0;
#X text 134 89 (c) musil@iem.kug.ac.at;
#X text 179 99 IEM KUG;
#X obj 14 195 +;
#X text 151 108 graz \, austria 2001;
#X text 135 71 y[n] = a0*x[n] + a1*x[n-1] + b1*y[n-1];
#X text 18 13 x[n];
#X text 16 244 y[n];
#X text 84 111 y[n-1];
#X text 134 56 <float> control-IIR-filter 1.order;
#X obj 15 28 inlet;
#X obj 14 228 outlet;
#X obj 15 112 * 0.1;
#X obj 59 156 * 0.9;
#X text 139 144 a1 = 0;
#X text 139 155 b1 = 0.9;
#X text 139 133 a0 = 0.1;
#X obj 15 50 t f b;
#X text 135 40 Inspiré de 1p1z;
#X obj 59 112 f 0;
#X connect 2 0 10 0;
#X connect 2 0 18 1;
#X connect 9 0 16 0;
#X connect 11 0 2 0;
#X connect 12 0 2 1;
#X connect 16 0 11 0;
#X connect 16 1 18 0;
#X connect 18 0 12 0;
#X restore 37 -8 pd 1p1zmodif;
#X text 146 9 Inspiré de 5.reference/iemabs/help-dsp.pd;
#X text 141 83 25 3 2010;
#X connect 3 0 11 0;
#X connect 4 0 3 0;
#X connect 4 1 3 1;
#X connect 8 0 10 0;
#X connect 10 0 4 0;
#X connect 11 0 18 0;
#X connect 11 0 1 0;
#X connect 14 0 16 0;
#X connect 15 0 17 0;
#X connect 16 0 15 0;
#X connect 17 0 2 0;
#X connect 18 0 14 0;
#X coords 0 -1 1 1 97 43 1 100 100;
#X restore 660 254 pd ARGO;
#N canvas 162 59 450 300 noteTeta1 0;
#X obj 25 169 makenote;
#X floatatom 55 150 5 0 0 0 - - -;
#X floatatom 93 150 5 0 0 0 - - -;
#X obj 31 99 inlet;
#X obj 57 121 r vel;
#X obj 99 123 r dur;
#X obj 81 169 noteout 2;
#X msg 25 150 70;
#X connect 0 0 6 0;
#X connect 0 1 6 1;
#X connect 1 0 0 1;
#X connect 2 0 0 2;
#X connect 3 0 7 0;
#X connect 4 0 1 0;
#X connect 5 0 2 0;
#X connect 7 0 0 0;
#X restore 442 203 pd noteTeta1;
#N canvas 162 59 450 300 notealpha1 0;
#X obj 31 99 inlet;
#X obj 34 160 makenote;
#X floatatom 64 141 5 0 0 0 - - -;
#X floatatom 102 141 5 0 0 0 - - -;
#X obj 67 117 r vel;
#X obj 109 119 r dur;
#X obj 90 160 noteout 3;
#X msg 34 141 70;
#X connect 0 0 7 0;
#X connect 1 0 6 0;
#X connect 1 1 6 1;
#X connect 2 0 1 1;
#X connect 3 0 1 2;
#X connect 4 0 2 0;
#X connect 5 0 3 0;
#X connect 7 0 1 0;
#X restore 272 316 pd notealpha1;
#N canvas 162 59 807 540 notesbeta1 0;
#X obj 31 99 inlet;
#X obj 29 147 makenote;
#X floatatom 59 128 5 0 0 0 - - -;
#X floatatom 97 128 5 0 0 0 - - -;
#X obj 69 104 r vel;
#X obj 111 106 r dur;
#X obj 85 147 noteout 4;
#X msg 30 127 70;
#X connect 0 0 7 0;
#X connect 1 0 6 0;
#X connect 1 1 6 1;
#X connect 2 0 1 1;
#X connect 3 0 1 2;
#X connect 4 0 2 0;
#X connect 5 0 3 0;
#X connect 7 0 1 0;
#X restore 269 421 pd notesbeta1;
#N canvas 162 59 807 540 notembeta1 0;
#X obj 31 99 inlet;
#X obj 31 146 makenote;
#X floatatom 61 127 5 0 0 0 - - -;
#X floatatom 99 127 5 0 0 0 - - -;
#X obj 87 146 noteout 5;
#X obj 69 99 r vel;
#X obj 109 100 r dur;
#X msg 31 127 70;
#X connect 0 0 7 0;
#X connect 1 0 4 0;
#X connect 1 1 4 1;
#X connect 2 0 1 1;
#X connect 3 0 1 2;
#X connect 5 0 2 0;
#X connect 6 0 3 0;
#X connect 7 0 1 0;
#X restore 442 419 pd notembeta1;
#N canvas 94 38 1103 744 (subpatch) 0;
#X obj -109 24 inlet;
#X obj 126 59 outlet;
#X obj 19 14 bng 15 250 50 0 empty empty empty 17 7 0 10 -262144 -19198
-1;
#X obj 37 14 bng 15 250 50 0 empty empty empty 17 7 0 10 -262144 -19198
-1;
#X obj 54 14 bng 15 250 50 0 empty empty empty 17 7 0 10 -262144 -19198
-1;
#X floatatom -98 54 5 0 0 0 - - -;
#X obj 6 31 hsl 128 15 22 30 1 0 empty empty empty -2 -8 0 10 -262144
-19198 -1 0 1;
#X obj 71 14 bng 15 250 50 0 empty empty empty 17 7 0 10 -262144 -19198
-1;
#X obj 4 14 bng 15 250 50 0 empty empty empty 17 7 0 10 -262144 -19198
-1;
#X obj 86 14 bng 15 250 50 0 empty empty empty 17 7 0 10 -262144 -19198
-1;
#X obj -98 153 &&;
#X floatatom -98 95 5 0 0 0 - - -;
#X floatatom -100 175 5 0 0 0 - - -;
#X obj -99 195 sel 1;
#X obj 122 14 bng 15 250 50 0 empty empty empty 17 7 0 10 -262144 -1
-1;
#X obj -98 71 clip 22 30;
#X obj -117 127 > 22;
#X obj -90 129 < 30;
#X obj 100 14 bng 15 250 50 0 empty empty empty 17 7 0 10 -262144 -19198
-1;
#X obj 6 -23 sel 22 23 24 25 26 27 28 29 30;
#X floatatom 51 84 5 0 0 0 - - -;
#X obj 52 107 s AFHB;
#X connect 0 0 5 0;
#X connect 5 0 15 0;
#X connect 6 0 20 0;
#X connect 10 0 12 0;
#X connect 11 0 6 0;
#X connect 11 0 16 0;
#X connect 11 0 17 0;
#X connect 11 0 19 0;
#X connect 12 0 13 0;
#X connect 13 0 14 0;
#X connect 14 0 1 0;
#X connect 15 0 11 0;
#X connect 16 0 10 0;
#X connect 17 0 10 1;
#X connect 19 1 8 0;
#X connect 19 2 2 0;
#X connect 19 3 3 0;
#X connect 19 4 4 0;
#X connect 19 5 7 0;
#X connect 19 6 9 0;
#X connect 19 7 18 0;
#X connect 20 0 21 0;
#X coords 0 1 100 -1 150 50 1 0 0;
#X restore 269 480 graph;
#N canvas 162 59 807 540 notehbeta1 0;
#X obj 31 99 inlet;
#X obj 31 146 makenote;
#X floatatom 61 127 5 0 0 0 - - -;
#X floatatom 99 127 5 0 0 0 - - -;
#X obj 87 146 noteout 6;
#X obj 70 100 r vel;
#X obj 110 94 r dur;
#X msg 31 127 70;
#X connect 0 0 7 0;
#X connect 1 0 4 0;
#X connect 1 1 4 1;
#X connect 2 0 1 1;
#X connect 3 0 1 2;
#X connect 5 0 2 0;
#X connect 6 0 3 0;
#X connect 7 0 1 0;
#X restore 268 533 pd notehbeta1;
#N canvas 94 38 1103 744 (subpatch) 0;
#X obj 24 9 bng 15 250 50 0 empty empty empty 17 7 0 10 -262144 -258113
-1;
#X obj 41 9 bng 15 250 50 0 empty empty empty 17 7 0 10 -262144 -258113
-1;
#X obj 58 9 bng 15 250 50 0 empty empty empty 17 7 0 10 -262144 -258113
-1;
#X floatatom -65 102 5 0 0 0 - - -;
#X obj 5 26 hsl 128 15 31 45 1 0 empty empty empty -2 -8 0 10 -262144
-258113 -1 0 1;
#X obj 75 9 bng 15 250 50 0 empty empty empty 17 7 0 10 -262144 -258113
-1;
#X obj 8 9 bng 15 250 50 0 empty empty empty 17 7 0 10 -262144 -258113
-1;
#X obj 90 9 bng 15 250 50 0 empty empty empty 17 7 0 10 -262144 -258113
-1;
#X obj -65 200 &&;
#X floatatom -65 143 5 0 0 0 - - -;
#X floatatom -67 223 5 0 0 0 - - -;
#X obj -66 243 sel 1;
#X obj 135 26 bng 15 250 50 0 empty empty empty 17 7 0 10 -262144 -1
-1;
#X obj 104 9 bng 15 250 50 0 empty empty empty 17 7 0 10 -262144 -258113
-1;
#X obj -65 119 clip 31 45;
#X obj 9 -11 sel 31 32 33 34 35 36 37 38 39 40 41 42 43 44 45;
#X obj -83 175 > 31;
#X obj -57 176 < 45;
#X obj 120 9 bng 15 250 50 0 empty empty empty 17 7 0 10 -262144 -258113
-1;
#X obj 135 9 bng 15 250 50 0 empty empty empty 17 7 0 10 -262144 -258113
-1;
#X obj 152 9 bng 15 250 50 0 empty empty empty 17 7 0 10 -262144 -258113
-1;
#X obj 170 9 bng 15 250 50 0 empty empty empty 17 7 0 10 -262144 -258113
-1;
#X obj 188 9 bng 15 250 50 0 empty empty empty 17 7 0 10 -262144 -258113
-1;
#X obj 209 9 bng 15 250 50 0 empty empty empty 17 7 0 10 -262144 -258113
-1;
#X floatatom 130 152 5 0 0 0 - - -;
#X obj 131 175 s AF3G;
#X connect 3 0 14 0;
#X connect 4 0 24 0;
#X connect 8 0 10 0;
#X connect 9 0 4 0;
#X connect 9 0 15 0;
#X connect 9 0 16 0;
#X connect 9 0 17 0;
#X connect 10 0 11 0;
#X connect 11 0 12 0;
#X connect 14 0 9 0;
#X connect 15 1 6 0;
#X connect 15 2 0 0;
#X connect 15 3 1 0;
#X connect 15 4 2 0;
#X connect 15 5 5 0;
#X connect 15 6 7 0;
#X connect 15 7 13 0;
#X connect 15 8 18 0;
#X connect 15 9 19 0;
#X connect 15 10 20 0;
#X connect 15 11 21 0;
#X connect 15 12 22 0;
#X connect 15 13 23 0;
#X connect 16 0 8 0;
#X connect 17 0 8 1;
#X connect 24 0 25 0;
#X coords 0 1 100 -1 150 50 1 0 0;
#X restore 440 477 graph;
#N canvas 162 59 807 540 notehbeta1 0;
#X obj 31 99 inlet;
#X obj 31 146 makenote;
#X floatatom 61 127 5 0 0 0 - - -;
#X floatatom 99 127 5 0 0 0 - - -;
#X obj 87 146 noteout 2;
#X msg 31 127 45;
#X connect 0 0 5 0;
#X connect 1 0 4 0;
#X connect 1 1 4 1;
#X connect 2 0 1 1;
#X connect 3 0 1 2;
#X connect 5 0 1 0;
#X restore 440 530 pd notehbeta1;
#X obj 662 59 s vel;
#X obj 704 59 s dur;
#X floatatom 662 40 5 0 0 0 - - -;
#X floatatom 703 40 5 0 0 0 - - -;
#X obj 660 165 tgl 30 0 startOsc empty empty 17 7 0 10 -262144 -1 -1
0 1;
#X obj 660 198 s startOSC;
#N canvas -13 23 486 330 GetOSC 1;
#X floatatom -33 222 5 0 0 0 - - -;
#X floatatom 8 222 5 0 0 0 - - -;
#X floatatom -71 222 5 0 0 0 - - -;
#X floatatom -115 222 5 0 0 0 - - -;
#X floatatom 92 222 5 0 0 0 - - -;
#X floatatom 48 222 5 0 0 0 - - -;
#X obj -115 240 * 0.2;
#X floatatom -115 278 5 0 0 0 - - -;
#X obj -71 240 * 0.2;
#X floatatom -71 278 5 0 0 0 - - -;
#X obj -33 240 * 0.2;
#X floatatom -33 278 5 0 0 0 - - -;
#X obj 8 240 * 0.2;
#X floatatom 8 279 5 0 0 0 - - -;
#X obj 48 240 * 0.2;
#X floatatom 49 278 5 0 0 0 - - -;
#X obj 92 240 * 0.2;
#X floatatom 93 280 5 0 0 0 - - -;
#X obj -103 60 unpackOSC;
#X text -6 18 recibiendo datos;
#X obj -102 17 import mrpeach;
#X obj -39 61 print unpacked;
#X obj -105 122 resample 20;
#X floatatom -28 122 5 0 0 0 - - -;
#X obj -105 36 udpreceive 32000;
#X obj -106 167 routeOSC /attention /meditation /delta /theta /lowAlpha
/highAlpha /lowBeta /highBeta /lowGamma /highGamma;
#X floatatom 182 222 5 0 0 0 - - -;
#X floatatom 138 222 5 0 0 0 - - -;
#X obj 138 240 * 0.2;
#X floatatom 139 278 5 0 0 0 - - -;
#X obj 182 240 * 0.2;
#X floatatom 183 280 5 0 0 0 - - -;
#X floatatom 271 222 5 0 0 0 - - -;
#X floatatom 227 222 5 0 0 0 - - -;
#X obj 227 240 * 0.2;
#X floatatom 228 279 5 0 0 0 - - -;
#X obj 271 240 * 0.2;
#X floatatom 272 281 5 0 0 0 - - -;
#X obj -115 259 s at;
#X obj -71 259 s mt;
#X obj -33 259 s d;
#X obj 8 260 s t;
#X obj 48 261 s la;
#X obj 92 262 s ha;
#X obj 138 261 s lb;
#X obj 182 262 s hb;
#X obj 227 262 s lg;
#X obj 271 263 s hg;
#X obj -28 102 r resample;
#X connect 0 0 10 0;
#X connect 1 0 12 0;
#X connect 2 0 8 0;
#X connect 3 0 6 0;
#X connect 4 0 16 0;
#X connect 5 0 14 0;
#X connect 6 0 7 0;
#X connect 7 0 38 0;
#X connect 8 0 9 0;
#X connect 9 0 39 0;
#X connect 10 0 11 0;
#X connect 11 0 40 0;
#X connect 12 0 13 0;
#X connect 13 0 41 0;
#X connect 14 0 15 0;
#X connect 15 0 42 0;
#X connect 16 0 17 0;
#X connect 17 0 43 0;
#X connect 18 0 22 0;
#X connect 22 0 25 0;
#X connect 23 0 22 1;
#X connect 24 0 18 0;
#X connect 25 0 3 0;
#X connect 25 1 2 0;
#X connect 25 2 0 0;
#X connect 25 3 1 0;
#X connect 25 4 5 0;
#X connect 25 5 4 0;
#X connect 25 6 27 0;
#X connect 25 7 26 0;
#X connect 25 8 33 0;
#X connect 25 9 32 0;
#X connect 26 0 30 0;
#X connect 27 0 28 0;
#X connect 28 0 29 0;
#X connect 29 0 44 0;
#X connect 30 0 31 0;
#X connect 31 0 45 0;
#X connect 32 0 36 0;
#X connect 33 0 34 0;
#X connect 34 0 35 0;
#X connect 35 0 46 0;
#X connect 36 0 37 0;
#X connect 37 0 47 0;
#X connect 48 0 23 0;
#X restore 660 219 pd GetOSC;
#N canvas 149 22 708 699 SendOSC 1;
#X floatatom 55 134 5 0 0 0 - - -;
#X obj 56 58 r AF3C;
#X floatatom 116 94 5 0 0 0 - - -;
#X obj 116 73 r F7C;
#X floatatom 160 63 5 0 0 0 - - -;
#X obj 160 42 r F3C;
#X floatatom 207 13 5 0 0 0 - - -;
#X obj 208 -8 r F4C;
#X floatatom 258 9 5 0 0 0 - - -;
#X obj 258 -12 r F8C;
#X floatatom 303 -16 5 0 0 0 - - -;
#X obj 303 -37 r AF4C;
#X msg 160 83 send /F3 \$1;
#X msg 209 56 send /F4 \$1;
#X msg 258 27 send /F8 \$1;
#X msg 303 3 send /AF4 \$1;
#X msg 117 115 send /F7 \$1;
#X floatatom 47 278 0 0 0 0 - - -;
#X msg 13 -103 disconnect;
#X obj 48 250 sendOSC;
#X obj -138 -198 loadbang;
#X floatatom 304 247 5 50 10000 0 - - -;
#X text 13 -179 send a message to sclang;
#X obj 279 134 vsl 15 128 50 2000 0 0 empty empty freq_for_SC 0 -9
0 10 -262144 -1 -1 0 1;
#X obj 334 189 random 1000;
#X obj 334 211 + 50;
#X obj 336 144 tgl 15 0 empty empty empty 17 7 0 10 -262144 -1 -1 0
1;
#X obj 335 166 metro 125;
#X msg 52 164 send /AF3 \$1;
#X msg -138 -177 connect localhost 57120;
#X obj 208 36 * 0.1;
#X connect 0 0 28 0;
#X connect 1 0 0 0;
#X connect 2 0 16 0;
#X connect 3 0 2 0;
#X connect 4 0 12 0;
#X connect 5 0 4 0;
#X connect 6 0 30 0;
#X connect 7 0 6 0;
#X connect 8 0 14 0;
#X connect 9 0 8 0;
#X connect 10 0 15 0;
#X connect 11 0 10 0;
#X connect 12 0 19 0;
#X connect 13 0 19 0;
#X connect 14 0 19 0;
#X connect 15 0 19 0;
#X connect 16 0 19 0;
#X connect 18 0 19 0;
#X connect 19 0 17 0;
#X connect 20 0 29 0;
#X connect 21 0 28 0;
#X connect 21 0 16 0;
#X connect 21 0 13 0;
#X connect 21 0 12 0;
#X connect 21 0 14 0;
#X connect 21 0 15 0;
#X connect 23 0 21 0;
#X connect 24 0 25 0;
#X connect 25 0 23 0;
#X connect 26 0 27 0;
#X connect 27 0 24 0;
#X connect 28 0 19 0;
#X connect 29 0 19 0;
#X connect 30 0 13 0;
#X restore 728 219 pd SendOSC;
#N canvas 76 22 1125 699 correlations 0;
#X obj 76 134 correlation 20;
#X floatatom 40 175 5 0 0 0 - - -;
#X obj 26 57 r avr1;
#X obj 75 108 t f f;
#X obj 26 81 resample 20;
#X obj 182 52 r avr2;
#X obj 226 53 r avr4;
#X obj 336 50 r avr3;
#X obj 383 51 r avr4;
#X obj 68 191 sel 1;
#X obj 124 206 bng 15 250 50 0 empty empty empty 17 7 0 10 -262144
-1 -1;
#X obj 41 260 ctlout;
#X obj 72 58 r avr6;
#X obj 68 214 t b b;
#X msg 53 239 10;
#X msg 85 239 1;
#X obj 124 229 outlet;
#X obj 232 129 correlation 20;
#X floatatom 196 163 5 0 0 0 - - -;
#X obj 231 103 t f f;
#X obj 182 76 resample 20;
#X obj 224 186 sel 1;
#X obj 269 201 bng 15 250 50 0 empty empty empty 17 7 0 10 -262144
-1 -1;
#X obj 197 255 ctlout;
#X obj 224 209 t b b;
#X msg 209 234 10;
#X obj 269 224 outlet;
#X obj 386 127 correlation 20;
#X floatatom 350 168 5 0 0 0 - - -;
#X obj 385 101 t f f;
#X obj 336 74 resample 20;
#X obj 378 184 sel 1;
#X obj 434 199 bng 15 250 50 0 empty empty empty 17 7 0 10 -262144
-1 -1;
#X obj 351 253 ctlout;
#X obj 378 207 t b b;
#X msg 363 232 10;
#X obj 434 222 outlet;
#X msg 241 234 3;
#X msg 395 232 4;
#X obj 141 208 s bang1;
#X obj 547 125 correlation 20;
#X floatatom 511 166 5 0 0 0 - - -;
#X obj 546 99 t f f;
#X obj 497 72 resample 20;
#X obj 539 182 sel 1;
#X obj 595 197 bng 15 250 50 0 empty empty empty 17 7 0 10 -262144
-1 -1;
#X obj 512 251 ctlout;
#X obj 539 205 t b b;
#X msg 524 230 10;
#X obj 595 220 outlet;
#X msg 556 230 4;
#X obj 497 48 r avr1;
#X obj 544 49 r avr2;
#X obj 288 203 s bang2;
#X obj 456 201 s bang3;
#X obj 617 199 s bang4;
#X obj 77 380 correlation 20;
#X floatatom 41 421 5 0 0 0 - - -;
#X obj 76 354 t f f;
#X obj 27 327 resample 20;
#X obj 69 437 sel 1;
#X obj 125 452 bng 15 250 50 0 empty empty empty 17 7 0 10 -262144
-1 -1;
#X obj 42 506 ctlout;
#X obj 69 460 t b b;
#X msg 54 485 10;
#X obj 125 475 outlet;
#X msg 86 485 4;
#X obj 27 303 r avr2;
#X obj 74 304 r avr3;
#X obj 147 454 s bang5;
#X obj 243 376 correlation 20;
#X floatatom 207 417 5 0 0 0 - - -;
#X obj 242 350 t f f;
#X obj 193 323 resample 20;
#X obj 235 433 sel 1;
#X obj 291 448 bng 15 250 50 0 empty empty empty 17 7 0 10 -262144
-1 -1;
#X obj 208 502 ctlout;
#X obj 235 456 t b b;
#X msg 220 481 10;
#X obj 291 471 outlet;
#X msg 252 481 4;
#X obj 193 299 r avr4;
#X obj 240 300 r avr5;
#X obj 407 372 correlation 20;
#X floatatom 371 413 5 0 0 0 - - -;
#X obj 406 346 t f f;
#X obj 357 319 resample 20;
#X obj 399 429 sel 1;
#X obj 455 444 bng 15 250 50 0 empty empty empty 17 7 0 10 -262144
-1 -1;
#X obj 372 498 ctlout;
#X obj 399 452 t b b;
#X msg 384 477 10;
#X obj 455 467 outlet;
#X msg 416 477 4;
#X obj 357 295 r avr5;
#X obj 404 296 r avr6;
#X obj 313 450 s bang6;
#X obj 477 446 s bang7;
#X connect 0 0 1 0;
#X connect 1 0 9 0;
#X connect 1 0 11 0;
#X connect 2 0 4 0;
#X connect 3 0 0 0;
#X connect 3 1 0 1;
#X connect 4 0 3 0;
#X connect 5 0 20 0;
#X connect 6 0 20 0;
#X connect 7 0 30 0;
#X connect 8 0 30 0;
#X connect 9 0 13 0;
#X connect 9 0 10 0;
#X connect 10 0 16 0;
#X connect 10 0 39 0;
#X connect 12 0 4 0;
#X connect 13 0 14 0;
#X connect 13 1 15 0;
#X connect 14 0 11 1;
#X connect 15 0 11 2;
#X connect 17 0 18 0;
#X connect 18 0 21 0;
#X connect 18 0 23 0;
#X connect 19 0 17 0;
#X connect 19 1 17 1;
#X connect 20 0 19 0;
#X connect 21 0 24 0;
#X connect 21 0 22 0;
#X connect 22 0 26 0;
#X connect 22 0 53 0;
#X connect 24 0 25 0;
#X connect 24 1 37 0;
#X connect 25 0 23 1;
#X connect 27 0 28 0;
#X connect 28 0 31 0;
#X connect 28 0 33 0;
#X connect 29 0 27 0;
#X connect 29 1 27 1;
#X connect 30 0 29 0;
#X connect 31 0 34 0;
#X connect 31 0 32 0;
#X connect 32 0 36 0;
#X connect 32 0 54 0;
#X connect 34 0 35 0;
#X connect 34 1 38 0;
#X connect 35 0 33 1;
#X connect 37 0 23 2;
#X connect 38 0 33 2;
#X connect 40 0 41 0;
#X connect 41 0 44 0;
#X connect 41 0 46 0;
#X connect 42 0 40 0;
#X connect 42 1 40 1;
#X connect 43 0 42 0;
#X connect 44 0 47 0;
#X connect 44 0 45 0;
#X connect 45 0 49 0;
#X connect 45 0 55 0;
#X connect 47 0 48 0;
#X connect 47 1 50 0;
#X connect 48 0 46 1;
#X connect 50 0 46 2;
#X connect 51 0 43 0;
#X connect 52 0 43 0;
#X connect 56 0 57 0;
#X connect 57 0 60 0;
#X connect 57 0 62 0;
#X connect 58 0 56 0;
#X connect 58 1 56 1;
#X connect 59 0 58 0;
#X connect 60 0 63 0;
#X connect 60 0 61 0;
#X connect 61 0 65 0;
#X connect 61 0 69 0;
#X connect 63 0 64 0;
#X connect 63 0 61 0;
#X connect 63 1 66 0;
#X connect 64 0 62 1;
#X connect 66 0 62 2;
#X connect 67 0 59 0;
#X connect 68 0 59 0;
#X connect 70 0 71 0;
#X connect 71 0 74 0;
#X connect 71 0 76 0;
#X connect 72 0 70 0;
#X connect 72 1 70 1;
#X connect 73 0 72 0;
#X connect 74 0 77 0;
#X connect 74 0 75 0;
#X connect 75 0 79 0;
#X connect 75 0 96 0;
#X connect 77 0 78 0;
#X connect 77 1 80 0;
#X connect 78 0 76 1;
#X connect 80 0 76 2;
#X connect 81 0 73 0;
#X connect 82 0 73 0;
#X connect 83 0 84 0;
#X connect 84 0 87 0;
#X connect 84 0 89 0;
#X connect 85 0 83 0;
#X connect 85 1 83 1;
#X connect 86 0 85 0;
#X connect 87 0 90 0;
#X connect 87 0 88 0;
#X connect 88 0 92 0;
#X connect 88 0 97 0;
#X connect 90 0 91 0;
#X connect 90 1 93 0;
#X connect 91 0 89 1;
#X connect 93 0 89 2;
#X connect 94 0 86 0;
#X connect 95 0 86 0;
#X restore 662 83 pd correlations electodes;
#N canvas 306 77 725 452 correlations 0;
#X obj 76 134 correlation 20;
#X floatatom 72 157 5 0 0 0 - - -;
#X obj 26 57 r avr1;
#X obj 75 108 t f f;
#X obj 26 81 resample 20;
#X obj 203 133 correlation 20;
#X floatatom 199 156 5 0 0 0 - - -;
#X obj 202 107 t f f;
#X obj 181 80 resample 20;
#X obj 333 132 correlation 20;
#X floatatom 329 155 5 0 0 0 - - -;
#X obj 332 106 t f f;
#X obj 311 79 resample 20;
#X obj 182 52 r avr2;
#X obj 226 53 r avr4;
#X obj 299 36 r avr3;
#X obj 363 23 r avr4;
#X obj 71 184 outlet;
#X obj 198 182 outlet;
#X obj 330 177 outlet;
#X obj 381 174 sel 1;
#X obj 249 182 sel 1;
#X obj 118 185 sel 1;
#X obj 88 249 bng 15 250 50 0 empty empty empty 17 7 0 10 -262144 -1
-1;
#X obj 42 251 ctlout;
#X msg 41 226 10 1 0;
#X obj 43 202 t b;
#X obj 72 58 r avr6;
#X obj 394 77 resample 20;
#X obj 243 255 bng 15 250 50 0 empty empty empty 17 7 0 10 -262144
-1 -1;
#X obj 197 257 ctlout;
#X msg 196 232 10 1 0;
#X obj 198 208 t b;
#X connect 0 0 1 0;
#X connect 1 0 17 0;
#X connect 1 0 22 0;
#X connect 2 0 4 0;
#X connect 3 0 0 1;
#X connect 3 1 0 0;
#X connect 4 0 3 0;
#X connect 5 0 6 0;
#X connect 6 0 18 0;
#X connect 6 0 21 0;
#X connect 7 0 5 1;
#X connect 7 1 5 0;
#X connect 8 0 7 0;
#X connect 9 0 10 0;
#X connect 10 0 19 0;
#X connect 10 0 20 0;
#X connect 11 0 9 1;
#X connect 11 1 9 0;
#X connect 12 0 11 0;
#X connect 13 0 8 0;
#X connect 14 0 8 0;
#X connect 15 0 12 0;
#X connect 16 0 12 0;
#X connect 22 0 26 0;
#X connect 25 0 24 0;
#X connect 25 0 23 0;
#X connect 26 0 25 0;
#X connect 27 0 4 0;
#X connect 31 0 30 0;
#X connect 31 0 29 0;
#X connect 32 0 31 0;
#X restore 662 123 pd correlations frequency;
#X obj 726 165 tgl 30 0 startOsc empty empty 17 7 0 10 -262144 -1 -1
0 1;
#X obj 728 197 s sendOSC;
#X obj 662 103 bng 15 250 50 0 empty empty empty 17 7 0 10 -262144
-1 -1;
#X obj 735 102 bng 15 250 50 0 empty empty empty 17 7 0 10 -262144
-1 -1;
#X obj 802 103 bng 15 250 50 0 empty empty empty 17 7 0 10 -262144
-1 -1;
#X floatatom 745 40 5 0 0 0 - - -;
#X obj 743 59 s resample;
#X obj 273 133 r d;
#X obj 442 130 r t;
#X obj 272 243 r la;
#N canvas 346 345 555 363 (subpatch) 0;
#X obj 20 10 bng 15 250 50 0 empty empty empty 17 7 0 10 -262144 -260097
-1;
#X obj 37 10 bng 15 250 50 0 empty empty empty 17 7 0 10 -262144 -260097
-1;
#X obj 54 10 bng 15 250 50 0 empty empty empty 17 7 0 10 -262144 -260097
-1;
#X floatatom -161 -3 5 0 0 0 - - -;
#X obj 7 30 hsl 128 15 7 13 1 0 empty empty empty -2 -8 0 10 -262144
-260097 -1 0 1;
#X obj 71 10 bng 15 250 50 0 empty empty empty 17 7 0 10 -262144 -260097
-1;
#X obj 5 10 bng 15 250 50 0 empty empty empty 17 7 0 10 -262144 -260097
-1;
#X obj -161 95 &&;
#X floatatom -161 38 5 0 0 0 - - -;
#X floatatom -162 118 5 0 0 0 - - -;
#X obj -161 138 sel 1;
#X obj 127 10 bng 15 250 50 0 empty empty empty 17 7 0 10 -262144 -260097
-1;
#X obj -179 70 > 7;
#X obj -153 71 < 13;
#X obj -161 14 clip 7 13;
#X obj -117 52 sel 7 8 9 10 11 12 13;
#X floatatom 91 9 5 0 0 0 - - -;
#X obj -160 -30 inlet;
#X obj 127 70 outlet;
#X floatatom 49 96 5 0 0 0 - - -;
#X obj 50 119 s AF3A;
#X connect 3 0 14 0;
#X connect 4 0 19 0;
#X connect 7 0 9 0;
#X connect 8 0 4 0;
#X connect 8 0 12 0;
#X connect 8 0 13 0;
#X connect 8 0 15 0;
#X connect 8 0 16 0;
#X connect 9 0 10 0;
#X connect 10 0 11 0;
#X connect 11 0 18 0;
#X connect 12 0 7 0;
#X connect 13 0 7 1;
#X connect 14 0 8 0;
#X connect 15 1 6 0;
#X connect 15 2 0 0;
#X connect 15 3 1 0;
#X connect 15 4 2 0;
#X connect 15 5 5 0;
#X connect 17 0 3 0;
#X connect 19 0 20 0;
#X coords 0 1 100 -1 150 50 1 0 0;
#X restore 442 260 graph;
#N canvas 162 59 450 300 notealpha1 0;
#X obj 31 99 inlet;
#X obj 34 160 makenote;
#X floatatom 64 141 5 0 0 0 - - -;
#X floatatom 102 141 5 0 0 0 - - -;
#X obj 67 117 r vel;
#X obj 109 119 r dur;
#X obj 90 160 noteout 3;
#X msg 34 141 70;
#X connect 0 0 7 0;
#X connect 1 0 6 0;
#X connect 1 1 6 1;
#X connect 2 0 1 1;
#X connect 3 0 1 2;
#X connect 4 0 2 0;
#X connect 5 0 3 0;
#X connect 7 0 1 0;
#X restore 442 313 pd notealpha1;
#X obj 442 240 r ha;
#X obj 270 347 r lb;
#X obj 442 348 r hb;
#X obj 270 461 r lg;
#X obj 440 458 r hg;
#N canvas 155 132 555 363 (subpatch) 0;
#X obj 25 8 bng 15 250 50 0 empty empty empty 17 7 0 10 -262144 -159808
-1;
#X obj 42 8 bng 15 250 50 0 empty empty empty 17 7 0 10 -262144 -159808
-1;
#X floatatom -60 52 5 0 0 0 - - -;
#X obj 13 26 hsl 128 15 0.5 3 1 0 empty empty empty -2 -8 0 10 -262144
-159808 -1 0 1;
#X obj 10 8 bng 15 250 50 0 empty empty empty 17 7 0 10 -262144 -159808
-1;
#X obj -66 128 &&;
#X floatatom -60 86 5 0 0 0 - - -;
#X floatatom -66 146 5 0 0 0 - - -;
#X obj -65 166 sel 1;
#X obj 128 8 bng 15 250 50 0 empty empty empty 17 7 0 10 -262144 -159808
-1;
#X obj -60 70 clip 0.4 4;
#X obj -86 107 > 0.5;
#X obj -48 108 < 4;
#X obj -9 -27 sel 0.5 1 1.5 2 2.5 3;
#X obj 59 8 bng 15 250 50 0 empty empty empty 17 7 0 10 -262144 -159808
-1;
#X obj 76 8 bng 15 250 50 0 empty empty empty 17 7 0 10 -262144 -159808
-1;
#X obj -60 28 inlet;
#X obj 128 54 outlet;
#X floatatom 93 7 5 0 0 0 - - -;
#X floatatom 70 92 5 0 0 0 - - -;
#X obj 71 115 s AF3D;
#X connect 2 0 10 0;
#X connect 3 0 19 0;
#X connect 5 0 7 0;
#X connect 6 0 3 0;
#X connect 6 0 11 0;
#X connect 6 0 12 0;
#X connect 6 0 13 0;
#X connect 6 0 18 0;
#X connect 7 0 8 0;
#X connect 8 0 9 0;
#X connect 9 0 17 0;
#X connect 10 0 6 0;
#X connect 11 0 5 0;
#X connect 12 0 5 1;
#X connect 13 1 4 0;
#X connect 13 2 0 0;
#X connect 13 3 1 0;
#X connect 13 4 14 0;
#X connect 13 5 15 0;
#X connect 16 0 2 0;
#X connect 19 0 20 0;
#X coords 0 1 100 -1 150 50 1 0 0;
#X restore 273 46 graph;
#N canvas 315 59 555 363 (subpatch) 0;
#X obj 23 10 bng 15 250 50 0 empty empty empty 17 7 0 10 -262144 -232576
-1;
#X obj 40 10 bng 15 250 50 0 empty empty empty 17 7 0 10 -262144 -232576
-1;
#X obj 57 10 bng 15 250 50 0 empty empty empty 17 7 0 10 -262144 -232576
-1;
#X floatatom -103 -129 5 0 0 0 - - -;
#X obj 10 28 hsl 128 15 3 8 1 0 empty empty empty -2 -8 0 10 -262144
-232576 -1 0 1;
#X obj 8 10 bng 15 250 50 0 empty empty empty 17 7 0 10 -262144 -232576
-1;
#X obj -103 -31 &&;
#X floatatom -103 -88 5 0 0 0 - - -;
#X floatatom -104 -8 5 0 0 0 - - -;
#X obj -95 -55 < 8;
#X obj -104 12 sel 1;
#X obj 123 8 bng 15 250 50 0 empty empty empty 17 7 0 10 -262144 -232576
-1;
#X obj -103 -112 clip 3 8;
#X obj -60 -74 sel 3 4 5 6 7 8;
#X obj -121 -56 > 3;
#X obj -106 -154 inlet;
#X obj 111 54 outlet;
#X floatatom 79 9 5 0 0 0 - - -;
#X floatatom 33 61 5 0 0 0 - - -;
#X obj 34 84 s AF3T;
#X connect 3 0 12 0;
#X connect 4 0 18 0;
#X connect 6 0 8 0;
#X connect 7 0 9 0;
#X connect 7 0 4 0;
#X connect 7 0 13 0;
#X connect 7 0 14 0;
#X connect 7 0 17 0;
#X connect 8 0 10 0;
#X connect 9 0 6 1;
#X connect 10 0 11 0;
#X connect 11 0 16 0;
#X connect 12 0 7 0;
#X connect 13 1 5 0;
#X connect 13 2 0 0;
#X connect 13 3 1 0;
#X connect 13 4 2 0;
#X connect 14 0 6 0;
#X connect 15 0 3 0;
#X connect 18 0 19 0;
#X coords 0 1 100 -1 150 50 1 0 0;
#X restore 442 43 graph;
#N canvas 158 367 450 300 noteDelta1 0;
#X obj 37 71 makenote;
#X floatatom 67 52 5 0 0 0 - - -;
#X floatatom 105 52 5 0 0 0 - - -;
#X msg 37 52 70;
#X obj 37 24 inlet;
#X obj 77 22 r vel;
#X obj 119 24 r dur;
#X floatatom 9 93 5 0 0 0 - - -;
#X obj 15 117 * 0.3;
#X obj 95 70 noteout 1;
#X connect 0 0 9 0;
#X connect 0 1 9 1;
#X connect 1 0 0 1;
#X connect 2 0 0 2;
#X connect 3 0 0 0;
#X connect 4 0 3 0;
#X connect 5 0 1 0;
#X connect 6 0 2 0;
#X connect 7 0 8 0;
#X restore 273 99 pd noteDelta1;
#N canvas 162 59 450 300 noteTeta1 0;
#X obj 25 169 makenote;
#X floatatom 55 150 5 0 0 0 - - -;
#X floatatom 93 150 5 0 0 0 - - -;
#X obj 31 99 inlet;
#X obj 57 121 r vel;
#X obj 99 123 r dur;
#X obj 81 169 noteout 2;
#X msg 25 150 70;
#X connect 0 0 6 0;
#X connect 0 1 6 1;
#X connect 1 0 0 1;
#X connect 2 0 0 2;
#X connect 3 0 7 0;
#X connect 4 0 1 0;
#X connect 5 0 2 0;
#X connect 7 0 0 0;
#X restore 442 96 pd noteTeta1;
#X obj 273 26 r at;
#X obj 442 23 r mt;
#X connect 0 0 5 0;
#X connect 1 0 7 0;
#X connect 2 0 8 0;
#X connect 3 0 9 0;
#X connect 4 0 10 0;
#X connect 11 0 12 0;
#X connect 17 0 15 0;
#X connect 18 0 16 0;
#X connect 19 0 20 0;
#X connect 23 0 27 0;
#X connect 23 2 28 0;
#X connect 23 4 29 0;
#X connect 25 0 26 0;
#X connect 30 0 31 0;
#X connect 32 0 0 0;
#X connect 33 0 1 0;
#X connect 34 0 2 0;
#X connect 35 0 36 0;
#X connect 37 0 35 0;
#X connect 38 0 3 0;
#X connect 39 0 4 0;
#X connect 40 0 11 0;
#X connect 42 0 44 0;
#X connect 43 0 45 0;
#X connect 46 0 42 0;
#X connect 47 0 43 0;
