#N canvas 34 22 1280 752 10;
#X declare -lib mrpeach;
#X obj 912 166 ctlout 1;
#X floatatom 887 145 5 0 0 0 - - -;
#X obj 887 123 -;
#X obj 887 173 vsl 15 30 0 127 0 0 empty empty empty 0 -9 0 10 -33289
-262144 -1 2900 1;
#X obj 896 273 -;
#X floatatom 922 251 5 0 0 0 - - -;
#X obj 887 325 vsl 15 30 0 127 0 0 empty empty empty 0 -9 0 10 -1 -262144
-1 2900 1;
#X floatatom 912 100 5 0 0 0 - - -;
#X floatatom 896 297 5 0 0 0 - - -;
#X obj 211 179 moses;
#X obj 211 131 average;
#X floatatom 211 157 5 0 0 0 - - -;
#X floatatom 444 199 5 0 0 0 - - -;
#X obj 403 200 bng 15 250 50 0 empty empty empty 17 7 0 10 -262144
-1 -1;
#X obj 403 221 t b;
#X obj 403 175 moses;
#X obj 403 127 average;
#X floatatom 403 153 5 0 0 0 - - -;
#X floatatom 404 273 5 0 0 0 - - -;
#X floatatom 633 200 5 0 0 0 - - -;
#X obj 592 201 bng 15 250 50 0 empty empty empty 17 7 0 10 -262144
-1 -1;
#X obj 592 222 t b;
#X obj 592 176 moses;
#X obj 592 128 average;
#X floatatom 592 154 5 0 0 0 - - -;
#X floatatom 593 274 5 0 0 0 - - -;
#X floatatom 819 197 5 0 0 0 - - -;
#X obj 778 198 bng 15 250 50 0 empty empty empty 17 7 0 10 -262144
-1 -1;
#X obj 778 219 t b;
#X obj 778 173 moses;
#X obj 778 125 average;
#X floatatom 778 151 5 0 0 0 - - -;
#X floatatom 779 271 5 0 0 0 - - -;
#X floatatom 68 208 5 0 0 0 - - -;
#X obj 26 180 moses;
#X obj 26 132 average;
#X floatatom 26 158 5 0 0 0 - - -;
#X obj 688 -17 bng 15 250 50 0 empty empty empty 17 7 0 10 -262144
-1 -1;
#X msg 568 -18 reset time;
#X obj 640 -17 s time;
#X floatatom 354 262 5 0 0 0 - - -;
#X obj 354 238 counter;
#X obj 383 218 bng 15 250 50 0 empty empty empty 17 7 0 10 -262144
-1 -1;
#X obj 360 195 r time;
#X floatatom 543 263 5 0 0 0 - - -;
#X obj 543 239 counter;
#X obj 572 219 bng 15 250 50 0 empty empty empty 17 7 0 10 -262144
-1 -1;
#X obj 549 196 r time;
#X floatatom 728 260 5 0 0 0 - - -;
#X obj 728 236 counter;
#X obj 757 216 bng 15 250 50 0 empty empty empty 17 7 0 10 -262144
-1 -1;
#X obj 734 193 r time;
#X obj 532 29 average;
#X floatatom 404 322 5 0 0 0 - - -;
#X floatatom 593 323 5 0 0 0 - - -;
#X floatatom 780 321 5 0 0 0 - - -;
#X obj 532 6 r AF3 F7 FC5 F8 FC6 T7 T8 O1;
#X obj 625 29 s avr;
#X obj 869 99 r avr;
#X obj 879 250 r avr;
#X floatatom 586 29 5 0 0 0 - - -;
#X obj -22 354 makenote;
#X obj -22 379 noteout 1;
#X floatatom 36 354 5 0 0 0 - - -;
#X floatatom 72 344 5 0 0 0 - - -;
#X obj 346 346 makenote;
#X floatatom 405 346 5 0 0 0 - - -;
#X floatatom 442 346 5 0 0 0 - - -;
#X obj 538 348 makenote;
#X floatatom 596 348 5 0 0 0 - - -;
#X floatatom 634 348 5 0 0 0 - - -;
#X obj 538 373 noteout 4;
#X obj 346 371 noteout 3;
#X obj 722 348 makenote;
#X floatatom 780 348 5 0 0 0 - - -;
#X floatatom 818 348 5 0 0 0 - - -;
#X obj 722 373 noteout 5;
#X floatatom 977 141 5 0 0 0 - - -;
#X obj 977 119 -;
#X obj 977 169 vsl 15 30 0 127 0 0 empty empty empty 0 -9 0 10 -33289
-262144 -1 2900 1;
#X obj 986 269 -;
#X floatatom 1012 247 5 0 0 0 - - -;
#X obj 977 321 vsl 15 30 0 127 0 0 empty empty empty 0 -9 0 10 -1 -262144
-1 2900 1;
#X floatatom 1002 96 5 0 0 0 - - -;
#X floatatom 986 293 5 0 0 0 - - -;
#X obj 959 95 r avr;
#X obj 969 246 r avr;
#X floatatom 1071 139 5 0 0 0 - - -;
#X obj 1071 117 -;
#X obj 1071 167 vsl 15 30 0 127 0 0 empty empty empty 0 -9 0 10 -33289
-262144 -1 2900 1;
#X obj 1075 265 -;
#X floatatom 1101 243 5 0 0 0 - - -;
#X obj 1066 317 vsl 15 30 0 127 0 0 empty empty empty 0 -9 0 10 -1
-262144 -1 2900 1;
#X floatatom 1096 94 5 0 0 0 - - -;
#X floatatom 1075 289 5 0 0 0 - - -;
#X obj 1053 93 r avr;
#X obj 1058 242 r avr;
#X obj 1002 162 ctlout 2;
#X obj 1096 160 ctlout 3;
#X obj 912 321 ctlout 4;
#X obj 1002 317 ctlout 5;
#X obj 1091 313 ctlout 2;
#X obj 888 219 s ctl1;
#X obj 978 215 s ctl2;
#X obj 1072 213 s ctl3;
#X obj 887 367 s ctl4;
#X obj 977 363 s ctl5;
#X obj 1065 360 s ctl6;
#X obj -49 -29 hradio 20 1 0 6 empty empty empty 0 -8 0 10 -262144
-1 -1 0;
#X text -49 -46 127;
#X text -26 -46 63;
#X text -7 -46 31;
#X text 15 -46 15;
#X text 38 -46 7;
#X text 57 -46 3;
#N canvas 70 200 450 300 on/off 0;
#X obj 40 76 route 0 1 2 3 4 5;
#X obj 40 43 inlet;
#X obj 41 106 outlet;
#X obj 51 113 outlet;
#X obj 64 115 outlet;
#X obj 81 121 outlet;
#X obj 95 130 outlet;
#X obj 111 138 outlet;
#X obj 126 145 outlet;
#X connect 0 0 2 0;
#X connect 0 1 3 0;
#X connect 0 2 4 0;
#X connect 0 3 5 0;
#X connect 0 4 6 0;
#X connect 0 5 7 0;
#X connect 0 6 8 0;
#X connect 1 0 0 0;
#X restore -49 -8 pd on/off;
#X obj -49 9 tgl 12 0 empty empty empty 8 -8 0 10 -262144 -1 -1 1 1
;
#X obj -27 9 tgl 12 0 empty empty empty 8 -8 0 10 -262144 -1 -1 0 1
;
#X obj -5 9 tgl 12 0 empty empty empty 8 -8 0 10 -262144 -1 -1 0 1
;
#X obj 18 9 tgl 12 0 empty empty empty 8 -8 0 10 -262144 -1 -1 0 1
;
#X obj 40 9 tgl 12 0 empty empty empty 8 -8 0 10 -262144 -1 -1 0 1
;
#X obj 59 9 tgl 12 0 empty empty empty 8 -8 0 10 -262144 -1 -1 0 1
;
#N canvas 209 278 837 349 shifterAll 0;
#X obj -13 -28 inlet;
#X obj 9 32 tgl 15 0 empty empty empty 17 7 0 10 -262144 -1 -1 0 1
;
#X obj 31 32 tgl 15 0 empty empty empty 17 7 0 10 -262144 -1 -1 0 1
;
#X obj 55 32 tgl 15 0 empty empty empty 17 7 0 10 -262144 -1 -1 0 1
;
#X obj 77 32 tgl 15 0 empty empty empty 17 7 0 10 -262144 -1 -1 0 1
;
#X obj 100 32 tgl 15 0 empty empty empty 17 7 0 10 -262144 -1 -1 0
1;
#X msg -23 55 127;
#X obj -288 242 /;
#X obj -343 290 r datos1;
#X floatatom -288 264 5 0 0 0 - - -;
#X obj -288 288 s datosP1;
#X msg 8 55 63.5;
#X msg 46 55 31.5;
#X msg 81 53 15.5;
#X msg 121 53 7.5;
#X msg 156 54 3.5;
#X obj -12 -3 route 0 1 2 3 4 5;
#X obj -11 32 tgl 15 0 empty empty empty 17 7 0 10 -262144 -1 -1 1
1;
#X obj -134 242 /;
#X floatatom -134 264 5 0 0 0 - - -;
#X obj -188 288 r datos2;
#X obj -134 288 s datosP2;
#X obj 4 240 /;
#X floatatom 4 262 5 0 0 0 - - -;
#X obj -50 286 r datos3;
#X obj 4 286 s datosP3;
#X obj 140 239 /;
#X floatatom 140 261 5 0 0 0 - - -;
#X obj 86 285 r datos4;
#X obj 140 285 s datosP4;
#X obj 271 238 /;
#X floatatom 271 260 5 0 0 0 - - -;
#X obj 217 284 r datos5;
#X obj 271 284 s datosP5;
#X obj 407 237 /;
#X floatatom 407 259 5 0 0 0 - - -;
#X obj 353 283 r datos6;
#X obj 407 283 s datosP6;
#X connect 0 0 16 0;
#X connect 1 0 11 0;
#X connect 2 0 12 0;
#X connect 3 0 13 0;
#X connect 4 0 14 0;
#X connect 5 0 15 0;
#X connect 6 0 7 1;
#X connect 6 0 18 1;
#X connect 6 0 22 1;
#X connect 6 0 26 1;
#X connect 6 0 30 1;
#X connect 6 0 34 1;
#X connect 7 0 9 0;
#X connect 8 0 7 0;
#X connect 9 0 10 0;
#X connect 11 0 7 1;
#X connect 11 0 18 1;
#X connect 11 0 22 1;
#X connect 11 0 26 1;
#X connect 11 0 30 1;
#X connect 11 0 34 1;
#X connect 12 0 7 1;
#X connect 12 0 18 1;
#X connect 12 0 22 1;
#X connect 12 0 26 1;
#X connect 12 0 30 1;
#X connect 12 0 34 1;
#X connect 13 0 7 1;
#X connect 13 0 18 1;
#X connect 13 0 22 1;
#X connect 13 0 26 1;
#X connect 13 0 30 1;
#X connect 13 0 34 1;
#X connect 14 0 7 1;
#X connect 14 0 18 1;
#X connect 14 0 22 1;
#X connect 14 0 26 1;
#X connect 14 0 30 1;
#X connect 14 0 34 1;
#X connect 15 0 7 1;
#X connect 15 0 18 1;
#X connect 15 0 22 1;
#X connect 15 0 26 1;
#X connect 15 0 30 1;
#X connect 15 0 34 1;
#X connect 16 0 17 0;
#X connect 16 1 1 0;
#X connect 16 2 2 0;
#X connect 16 3 3 0;
#X connect 16 4 4 0;
#X connect 16 5 5 0;
#X connect 17 0 6 0;
#X connect 18 0 19 0;
#X connect 19 0 21 0;
#X connect 20 0 18 0;
#X connect 22 0 23 0;
#X connect 23 0 25 0;
#X connect 24 0 22 0;
#X connect 26 0 27 0;
#X connect 27 0 29 0;
#X connect 28 0 26 0;
#X connect 30 0 31 0;
#X connect 31 0 33 0;
#X connect 32 0 30 0;
#X connect 34 0 35 0;
#X connect 35 0 37 0;
#X connect 36 0 34 0;
#X restore 50 -9 pd shifterAll;
#X obj 10 108 vradio 10 1 0 6 empty empty empty 0 -8 0 10 -262144 -1
-1 0;
#N canvas 25 187 1021 549 shifter1 0;
#X obj -304 -20 inlet;
#X obj -282 40 tgl 15 0 empty empty empty 17 7 0 10 -262144 -1 -1 0
1;
#X obj -260 40 tgl 15 0 empty empty empty 17 7 0 10 -262144 -1 -1 0
1;
#X obj -236 40 tgl 15 0 empty empty empty 17 7 0 10 -262144 -1 -1 0
1;
#X obj -214 40 tgl 15 0 empty empty empty 17 7 0 10 -262144 -1 -1 0
1;
#X obj -191 40 tgl 15 0 empty empty empty 17 7 0 10 -262144 -1 -1 0
1;
#X msg -314 63 127;
#X obj -239 150 /;
#X obj -294 198 r datos1;
#X floatatom -239 172 5 0 0 0 - - -;
#X obj -239 198 s datosP1;
#X msg -283 63 63.5;
#X msg -245 63 31.5;
#X msg -210 61 15.5;
#X msg -170 61 7.5;
#X msg -135 62 3.5;
#X obj -303 5 route 0 1 2 3 4 5;
#X obj -302 40 tgl 15 0 empty empty empty 17 7 0 10 -262144 -1 -1 0
1;
#X connect 0 0 16 0;
#X connect 1 0 11 0;
#X connect 2 0 12 0;
#X connect 3 0 13 0;
#X connect 4 0 14 0;
#X connect 5 0 15 0;
#X connect 6 0 7 1;
#X connect 7 0 9 0;
#X connect 8 0 7 0;
#X connect 9 0 10 0;
#X connect 11 0 7 1;
#X connect 12 0 7 1;
#X connect 13 0 7 1;
#X connect 14 0 7 1;
#X connect 15 0 7 1;
#X connect 16 0 17 0;
#X connect 16 1 1 0;
#X connect 16 2 2 0;
#X connect 16 3 3 0;
#X connect 16 4 4 0;
#X connect 16 5 5 0;
#X connect 17 0 6 0;
#X restore -52 175 pd shifter1;
#X obj -2 108 tgl 10 0 empty empty empty 8 -8 0 10 -262144 -1 -1 0
1;
#X obj -2 118 tgl 10 0 empty empty empty 8 -8 0 10 -262144 -1 -1 0
1;
#X obj -2 129 tgl 10 0 empty empty empty 8 -8 0 10 -262144 -1 -1 0
1;
#X obj -2 140 tgl 10 0 empty empty empty 8 -8 0 10 -262144 -1 -1 0
1;
#X obj -2 149 tgl 10 0 empty empty empty 8 -8 0 10 -262144 -1 -1 0
1;
#X obj -2 159 tgl 10 0 empty empty empty 8 -8 0 10 -262144 -1 -1 0
1;
#N canvas 70 200 450 300 on/off1 0;
#X obj 40 76 route 0 1 2 3 4 5;
#X obj 40 43 inlet;
#X obj 41 106 outlet;
#X obj 51 113 outlet;
#X obj 64 115 outlet;
#X obj 81 121 outlet;
#X obj 95 130 outlet;
#X obj 111 138 outlet;
#X obj 126 145 outlet;
#X connect 0 0 2 0;
#X connect 0 1 3 0;
#X connect 0 2 4 0;
#X connect 0 3 5 0;
#X connect 0 4 6 0;
#X connect 0 5 7 0;
#X connect 0 6 8 0;
#X connect 1 0 0 0;
#X restore -118 175 pd on/off1;
#X obj 197 106 vradio 10 1 0 6 empty empty empty 0 -8 0 10 -262144
-1 -1 0;
#X obj 185 106 tgl 10 0 empty empty empty 8 -8 0 10 -262144 -1 -1 0
1;
#X obj 185 116 tgl 10 0 empty empty empty 8 -8 0 10 -262144 -1 -1 0
1;
#X obj 185 127 tgl 10 0 empty empty empty 8 -8 0 10 -262144 -1 -1 0
1;
#X obj 185 138 tgl 10 0 empty empty empty 8 -8 0 10 -262144 -1 -1 0
1;
#X obj 185 147 tgl 10 0 empty empty empty 8 -8 0 10 -262144 -1 -1 0
1;
#X obj 185 157 tgl 10 0 empty empty empty 8 -8 0 10 -262144 -1 -1 0
1;
#X obj 387 103 vradio 10 1 0 6 empty empty empty 0 -8 0 10 -262144
-1 -1 0;
#X obj 375 103 tgl 10 0 empty empty empty 8 -8 0 10 -262144 -1 -1 0
1;
#X obj 375 113 tgl 10 0 empty empty empty 8 -8 0 10 -262144 -1 -1 0
1;
#X obj 375 124 tgl 10 0 empty empty empty 8 -8 0 10 -262144 -1 -1 0
1;
#X obj 375 135 tgl 10 0 empty empty empty 8 -8 0 10 -262144 -1 -1 0
1;
#X obj 375 144 tgl 10 0 empty empty empty 8 -8 0 10 -262144 -1 -1 0
1;
#X obj 375 154 tgl 10 0 empty empty empty 8 -8 0 10 -262144 -1 -1 0
1;
#X obj 579 104 vradio 10 1 0 6 empty empty empty 0 -8 0 10 -262144
-1 -1 0;
#X obj 567 104 tgl 10 0 empty empty empty 8 -8 0 10 -262144 -1 -1 0
1;
#X obj 567 114 tgl 10 0 empty empty empty 8 -8 0 10 -262144 -1 -1 0
1;
#X obj 567 125 tgl 10 0 empty empty empty 8 -8 0 10 -262144 -1 -1 0
1;
#X obj 567 136 tgl 10 0 empty empty empty 8 -8 0 10 -262144 -1 -1 0
1;
#X obj 567 145 tgl 10 0 empty empty empty 8 -8 0 10 -262144 -1 -1 0
1;
#X obj 567 155 tgl 10 0 empty empty empty 8 -8 0 10 -262144 -1 -1 0
1;
#N canvas 70 200 450 300 on/off2 0;
#X obj 40 76 route 0 1 2 3 4 5;
#X obj 40 43 inlet;
#X obj 41 106 outlet;
#X obj 51 113 outlet;
#X obj 64 115 outlet;
#X obj 81 121 outlet;
#X obj 95 130 outlet;
#X obj 111 138 outlet;
#X obj 126 145 outlet;
#X connect 0 0 2 0;
#X connect 0 1 3 0;
#X connect 0 2 4 0;
#X connect 0 3 5 0;
#X connect 0 4 6 0;
#X connect 0 5 7 0;
#X connect 0 6 8 0;
#X connect 1 0 0 0;
#X restore 69 173 pd on/off2;
#N canvas 25 187 1021 549 shifter2 0;
#X obj -304 -20 inlet;
#X obj -282 40 tgl 15 0 empty empty empty 17 7 0 10 -262144 -1 -1 0
1;
#X obj -260 40 tgl 15 0 empty empty empty 17 7 0 10 -262144 -1 -1 0
1;
#X obj -236 40 tgl 15 0 empty empty empty 17 7 0 10 -262144 -1 -1 0
1;
#X obj -214 40 tgl 15 0 empty empty empty 17 7 0 10 -262144 -1 -1 0
1;
#X obj -191 40 tgl 15 0 empty empty empty 17 7 0 10 -262144 -1 -1 0
1;
#X msg -314 63 127;
#X obj -239 150 /;
#X floatatom -239 172 5 0 0 0 - - -;
#X msg -283 63 63.5;
#X msg -245 63 31.5;
#X msg -210 61 15.5;
#X msg -170 61 7.5;
#X msg -135 62 3.5;
#X obj -303 5 route 0 1 2 3 4 5;
#X obj -302 40 tgl 15 0 empty empty empty 17 7 0 10 -262144 -1 -1 0
1;
#X obj -294 198 r datos2;
#X obj -239 198 s datosP2;
#X connect 0 0 14 0;
#X connect 1 0 9 0;
#X connect 2 0 10 0;
#X connect 3 0 11 0;
#X connect 4 0 12 0;
#X connect 5 0 13 0;
#X connect 6 0 7 1;
#X connect 7 0 8 0;
#X connect 8 0 17 0;
#X connect 9 0 7 1;
#X connect 10 0 7 1;
#X connect 11 0 7 1;
#X connect 12 0 7 1;
#X connect 13 0 7 1;
#X connect 14 0 15 0;
#X connect 14 1 1 0;
#X connect 14 2 2 0;
#X connect 14 3 3 0;
#X connect 14 4 4 0;
#X connect 14 5 5 0;
#X connect 15 0 6 0;
#X connect 16 0 7 0;
#X restore 135 173 pd shifter2;
#N canvas 70 200 450 300 on/off3 0;
#X obj 40 76 route 0 1 2 3 4 5;
#X obj 40 43 inlet;
#X obj 41 106 outlet;
#X obj 51 113 outlet;
#X obj 64 115 outlet;
#X obj 81 121 outlet;
#X obj 95 130 outlet;
#X obj 111 138 outlet;
#X obj 126 145 outlet;
#X connect 0 0 2 0;
#X connect 0 1 3 0;
#X connect 0 2 4 0;
#X connect 0 3 5 0;
#X connect 0 4 6 0;
#X connect 0 5 7 0;
#X connect 0 6 8 0;
#X connect 1 0 0 0;
#X restore 259 170 pd on/off3;
#N canvas 25 187 1021 549 shifter3 0;
#X obj -304 -20 inlet;
#X obj -282 40 tgl 15 0 empty empty empty 17 7 0 10 -262144 -1 -1 0
1;
#X obj -260 40 tgl 15 0 empty empty empty 17 7 0 10 -262144 -1 -1 0
1;
#X obj -236 40 tgl 15 0 empty empty empty 17 7 0 10 -262144 -1 -1 0
1;
#X obj -214 40 tgl 15 0 empty empty empty 17 7 0 10 -262144 -1 -1 0
1;
#X obj -191 40 tgl 15 0 empty empty empty 17 7 0 10 -262144 -1 -1 0
1;
#X msg -314 63 127;
#X obj -239 150 /;
#X floatatom -239 172 5 0 0 0 - - -;
#X msg -283 63 63.5;
#X msg -245 63 31.5;
#X msg -210 61 15.5;
#X msg -170 61 7.5;
#X msg -135 62 3.5;
#X obj -303 5 route 0 1 2 3 4 5;
#X obj -302 40 tgl 15 0 empty empty empty 17 7 0 10 -262144 -1 -1 0
1;
#X obj -294 198 r datos3;
#X obj -239 198 s datosP3;
#X connect 0 0 14 0;
#X connect 1 0 9 0;
#X connect 2 0 10 0;
#X connect 3 0 11 0;
#X connect 4 0 12 0;
#X connect 5 0 13 0;
#X connect 6 0 7 1;
#X connect 7 0 8 0;
#X connect 8 0 17 0;
#X connect 9 0 7 1;
#X connect 10 0 7 1;
#X connect 11 0 7 1;
#X connect 12 0 7 1;
#X connect 13 0 7 1;
#X connect 14 0 15 0;
#X connect 14 1 1 0;
#X connect 14 2 2 0;
#X connect 14 3 3 0;
#X connect 14 4 4 0;
#X connect 14 5 5 0;
#X connect 15 0 6 0;
#X connect 16 0 7 0;
#X restore 325 170 pd shifter3;
#N canvas 70 200 450 300 on/off4 0;
#X obj 40 76 route 0 1 2 3 4 5;
#X obj 40 43 inlet;
#X obj 41 106 outlet;
#X obj 51 113 outlet;
#X obj 64 115 outlet;
#X obj 81 121 outlet;
#X obj 95 130 outlet;
#X obj 111 138 outlet;
#X obj 126 145 outlet;
#X connect 0 0 2 0;
#X connect 0 1 3 0;
#X connect 0 2 4 0;
#X connect 0 3 5 0;
#X connect 0 4 6 0;
#X connect 0 5 7 0;
#X connect 0 6 8 0;
#X connect 1 0 0 0;
#X restore 451 171 pd on/off4;
#N canvas 25 187 1021 549 shifter4 0;
#X obj -304 -20 inlet;
#X obj -282 40 tgl 15 0 empty empty empty 17 7 0 10 -262144 -1 -1 0
1;
#X obj -260 40 tgl 15 0 empty empty empty 17 7 0 10 -262144 -1 -1 0
1;
#X obj -236 40 tgl 15 0 empty empty empty 17 7 0 10 -262144 -1 -1 0
1;
#X obj -214 40 tgl 15 0 empty empty empty 17 7 0 10 -262144 -1 -1 0
1;
#X obj -191 40 tgl 15 0 empty empty empty 17 7 0 10 -262144 -1 -1 0
1;
#X msg -314 63 127;
#X obj -239 150 /;
#X floatatom -239 172 5 0 0 0 - - -;
#X msg -283 63 63.5;
#X msg -245 63 31.5;
#X msg -210 61 15.5;
#X msg -170 61 7.5;
#X msg -135 62 3.5;
#X obj -303 5 route 0 1 2 3 4 5;
#X obj -302 40 tgl 15 0 empty empty empty 17 7 0 10 -262144 -1 -1 0
1;
#X obj -239 198 s datosP4;
#X obj -294 198 r datos4;
#X connect 0 0 14 0;
#X connect 1 0 9 0;
#X connect 2 0 10 0;
#X connect 3 0 11 0;
#X connect 4 0 12 0;
#X connect 5 0 13 0;
#X connect 6 0 7 1;
#X connect 7 0 8 0;
#X connect 8 0 16 0;
#X connect 9 0 7 1;
#X connect 10 0 7 1;
#X connect 11 0 7 1;
#X connect 12 0 7 1;
#X connect 13 0 7 1;
#X connect 14 0 15 0;
#X connect 14 1 1 0;
#X connect 14 2 2 0;
#X connect 14 3 3 0;
#X connect 14 4 4 0;
#X connect 14 5 5 0;
#X connect 15 0 6 0;
#X connect 17 0 7 0;
#X restore 517 171 pd shifter4;
#X obj 765 101 vradio 10 1 0 6 empty empty empty 0 -8 0 10 -262144
-1 -1 0;
#X obj 753 101 tgl 10 0 empty empty empty 8 -8 0 10 -262144 -1 -1 0
1;
#X obj 753 111 tgl 10 0 empty empty empty 8 -8 0 10 -262144 -1 -1 0
1;
#X obj 753 122 tgl 10 0 empty empty empty 8 -8 0 10 -262144 -1 -1 0
1;
#X obj 753 133 tgl 10 0 empty empty empty 8 -8 0 10 -262144 -1 -1 0
1;
#X obj 753 142 tgl 10 0 empty empty empty 8 -8 0 10 -262144 -1 -1 0
1;
#X obj 753 152 tgl 10 0 empty empty empty 8 -8 0 10 -262144 -1 -1 0
1;
#N canvas 25 187 1021 549 shifter5 0;
#X obj -304 -20 inlet;
#X obj -282 40 tgl 15 0 empty empty empty 17 7 0 10 -262144 -1 -1 0
1;
#X obj -260 40 tgl 15 0 empty empty empty 17 7 0 10 -262144 -1 -1 0
1;
#X obj -236 40 tgl 15 0 empty empty empty 17 7 0 10 -262144 -1 -1 0
1;
#X obj -214 40 tgl 15 0 empty empty empty 17 7 0 10 -262144 -1 -1 0
1;
#X obj -191 40 tgl 15 0 empty empty empty 17 7 0 10 -262144 -1 -1 0
1;
#X msg -314 63 127;
#X obj -239 150 /;
#X floatatom -239 172 5 0 0 0 - - -;
#X msg -283 63 63.5;
#X msg -245 63 31.5;
#X msg -210 61 15.5;
#X msg -170 61 7.5;
#X msg -135 62 3.5;
#X obj -303 5 route 0 1 2 3 4 5;
#X obj -302 40 tgl 15 0 empty empty empty 17 7 0 10 -262144 -1 -1 0
1;
#X obj -294 198 r datos5;
#X obj -239 198 s datosP5;
#X connect 0 0 14 0;
#X connect 1 0 9 0;
#X connect 2 0 10 0;
#X connect 3 0 11 0;
#X connect 4 0 12 0;
#X connect 5 0 13 0;
#X connect 6 0 7 1;
#X connect 7 0 8 0;
#X connect 8 0 17 0;
#X connect 9 0 7 1;
#X connect 10 0 7 1;
#X connect 11 0 7 1;
#X connect 12 0 7 1;
#X connect 13 0 7 1;
#X connect 14 0 15 0;
#X connect 14 1 1 0;
#X connect 14 2 2 0;
#X connect 14 3 3 0;
#X connect 14 4 4 0;
#X connect 14 5 5 0;
#X connect 15 0 6 0;
#X connect 16 0 7 0;
#X restore 703 168 pd shifter5;
#N canvas 70 200 450 300 on/off5 0;
#X obj 40 76 route 0 1 2 3 4 5;
#X obj 40 43 inlet;
#X obj 41 106 outlet;
#X obj 51 113 outlet;
#X obj 64 115 outlet;
#X obj 81 121 outlet;
#X obj 95 130 outlet;
#X obj 111 138 outlet;
#X obj 126 145 outlet;
#X connect 0 0 2 0;
#X connect 0 1 3 0;
#X connect 0 2 4 0;
#X connect 0 3 5 0;
#X connect 0 4 6 0;
#X connect 0 5 7 0;
#X connect 0 6 8 0;
#X connect 1 0 0 0;
#X restore 637 168 pd on/off5;
#X obj 108 -125 hsl 250 30 0 127 0 0 empty empty EEG_Frequency_to_midi_notes
2 14 0 15 -1 -1 -191407 0 1;
#X obj 26 107 r AF3;
#X obj 211 107 r AF4;
#X obj 403 103 r F3;
#X obj 592 104 r F4;
#X obj 778 101 r F7;
#X floatatom 235 -12 5 0 0 0 - - -;
#X floatatom 276 -12 5 0 0 0 - - -;
#X floatatom 191 -12 5 0 0 0 - - -;
#X floatatom 152 -12 5 0 0 0 - - -;
#X floatatom 355 -12 5 0 0 0 - - -;
#X floatatom 316 -12 5 0 0 0 - - -;
#X obj 152 10 s AF3;
#N canvas 73 463 1044 581 OSC 0;
#X obj 53 -4 unpackOSC;
#X text 62 -20 recibiendo datos;
#X obj 54 -57 import mrpeach;
#X obj 51 54 print unpacked;
#X obj 53 -34 udpreceive 8666;
#X obj 193 292 outlet;
#X obj 243 253 outlet;
#X obj 300 212 outlet;
#X obj 358 177 outlet;
#X obj 417 149 outlet;
#X obj 478 113 outlet;
#X obj 575 225 outlet;
#X obj 625 186 outlet;
#X obj 682 145 outlet;
#X obj 740 110 outlet;
#X obj 799 82 outlet;
#X obj 860 46 outlet;
#X obj 556 -56 routeOSC /potencial/AF3/t /potencial/F7/t /potencial/F3/t
/potencial/F4/t /potencial/F8/t /potencial/AF4/t;
#X obj 191 -52 routeOSC /potencial/AF3/d /potencial/F7/mb /potencial/F3/a
/potencial/F4/mb /potencial/F8/a /potencial/AF4/a;
#X connect 0 0 17 0;
#X connect 0 0 18 0;
#X connect 4 0 0 0;
#X connect 17 0 11 0;
#X connect 17 1 12 0;
#X connect 17 2 13 0;
#X connect 17 3 14 0;
#X connect 17 4 15 0;
#X connect 17 5 16 0;
#X connect 18 0 5 0;
#X connect 18 1 6 0;
#X connect 18 2 7 0;
#X connect 18 3 8 0;
#X connect 18 4 9 0;
#X connect 18 5 10 0;
#X coords 0 581 1 580 300 85 0;
#X restore 162 -52 pd OSC 1 2 3 4 5 6 7 8 9 10 11 12 13 14 15 16 17
18 19 20 21 22 23 24 25 26 27 28;
#X obj 191 10 s AF4;
#X obj 235 10 s F3;
#X obj 276 10 s F4;
#X obj 316 10 s F7;
#X obj 355 10 s F8;
#X obj 593 298 * 0.3;
#X obj 404 297 * 0.2;
#X obj 779 295 * 0.2;
#X obj -106 245 sig~;
#X obj -106 296 bng 15 250 50 0 empty empty empty 17 7 0 10 -262144
-1 -1;
#X obj -69 294 bng 15 250 50 0 empty empty empty 17 7 0 10 -262144
-1 -1;
#X obj 25 207 * 0.3;
#X floatatom -106 224 5 0 0 0 - - -;
#X obj 12 302 bng 15 250 50 0 empty empty empty 17 7 0 10 -262144 -1
-1;
#X obj 49 300 bng 15 250 50 0 empty empty empty 17 7 0 10 -262144 -1
-1;
#X msg -108 322 38;
#X msg -67 322 48;
#X msg -3 330 58;
#X msg 36 330 68;
#X obj 287 570 makenote;
#X floatatom 345 570 5 0 0 0 - - -;
#X floatatom 381 560 5 0 0 0 - - -;
#X obj 203 461 sig~;
#X obj 203 512 bng 15 250 50 0 empty empty empty 17 7 0 10 -262144
-1 -1;
#X obj 240 510 bng 15 250 50 0 empty empty empty 17 7 0 10 -262144
-1 -1;
#X floatatom 204 442 5 0 0 0 - - -;
#X obj 321 518 bng 15 250 50 0 empty empty empty 17 7 0 10 -262144
-1 -1;
#X obj 358 516 bng 15 250 50 0 empty empty empty 17 7 0 10 -262144
-1 -1;
#X obj 284 459 threshold~ 15.5 0 18 0;
#X obj 287 595 noteout 2;
#X obj 572 565 makenote;
#X floatatom 630 565 5 0 0 0 - - -;
#X floatatom 666 555 5 0 0 0 - - -;
#X obj 488 456 sig~;
#X obj 488 507 bng 15 250 50 0 empty empty empty 17 7 0 10 -262144
-1 -1;
#X obj 525 505 bng 15 250 50 0 empty empty empty 17 7 0 10 -262144
-1 -1;
#X floatatom 489 437 5 0 0 0 - - -;
#X obj 606 513 bng 15 250 50 0 empty empty empty 17 7 0 10 -262144
-1 -1;
#X obj 643 511 bng 15 250 50 0 empty empty empty 17 7 0 10 -262144
-1 -1;
#X msg 591 541 116;
#X msg 630 541 118;
#X obj 489 480 threshold~ 8 1000 12 1000;
#X obj 206 485 threshold~ 12.5 0 15 0;
#X obj -105 270 threshold~ 35 0 50 0;
#X obj -24 246 threshold~ 22 0 35 0;
#X msg 201 538 100;
#X msg 242 538 90;
#X msg 306 546 80;
#X msg 345 546 85;
#X obj 221 222 * 0.3;
#X obj 569 454 threshold~ 4 0 7 0;
#X obj 572 590 noteout 1;
#X msg 539 539 90;
#X msg 486 533 95;
#X connect 1 0 0 0;
#X connect 1 0 3 0;
#X connect 2 0 1 0;
#X connect 3 0 102 0;
#X connect 4 0 8 0;
#X connect 5 0 4 1;
#X connect 6 0 105 0;
#X connect 7 0 2 1;
#X connect 8 0 6 0;
#X connect 8 0 99 0;
#X connect 9 0 231 0;
#X connect 10 0 11 0;
#X connect 11 0 9 0;
#X connect 11 0 9 1;
#X connect 12 0 18 0;
#X connect 13 0 14 0;
#X connect 14 0 18 0;
#X connect 14 0 41 0;
#X connect 15 0 13 0;
#X connect 15 1 12 0;
#X connect 16 0 17 0;
#X connect 17 0 15 0;
#X connect 17 0 15 1;
#X connect 18 0 188 0;
#X connect 19 0 25 0;
#X connect 20 0 21 0;
#X connect 21 0 25 0;
#X connect 21 0 45 0;
#X connect 22 0 20 0;
#X connect 22 1 19 0;
#X connect 23 0 24 0;
#X connect 24 0 22 0;
#X connect 24 0 22 1;
#X connect 25 0 187 0;
#X connect 26 0 32 0;
#X connect 27 0 28 0;
#X connect 28 0 32 0;
#X connect 28 0 49 0;
#X connect 29 0 27 0;
#X connect 29 1 26 0;
#X connect 30 0 31 0;
#X connect 31 0 29 0;
#X connect 31 0 29 1;
#X connect 32 0 189 0;
#X connect 34 0 193 0;
#X connect 34 1 33 0;
#X connect 35 0 36 0;
#X connect 36 0 34 0;
#X connect 36 0 34 1;
#X connect 37 0 39 0;
#X connect 38 0 37 0;
#X connect 41 0 40 0;
#X connect 42 0 41 3;
#X connect 43 0 42 0;
#X connect 45 0 44 0;
#X connect 46 0 45 3;
#X connect 47 0 46 0;
#X connect 49 0 48 0;
#X connect 50 0 49 3;
#X connect 51 0 50 0;
#X connect 52 0 60 0;
#X connect 53 0 65 0;
#X connect 54 0 68 0;
#X connect 55 0 73 0;
#X connect 56 0 52 0;
#X connect 58 0 2 0;
#X connect 59 0 4 0;
#X connect 60 0 57 0;
#X connect 61 0 62 0;
#X connect 61 1 62 1;
#X connect 63 0 61 1;
#X connect 64 0 61 2;
#X connect 65 0 72 0;
#X connect 65 1 72 1;
#X connect 66 0 65 1;
#X connect 67 0 65 2;
#X connect 68 0 71 0;
#X connect 68 1 71 1;
#X connect 69 0 68 1;
#X connect 70 0 68 2;
#X connect 73 0 76 0;
#X connect 73 1 76 1;
#X connect 74 0 73 1;
#X connect 75 0 73 2;
#X connect 77 0 79 0;
#X connect 77 0 97 0;
#X connect 78 0 77 0;
#X connect 79 0 103 0;
#X connect 80 0 84 0;
#X connect 81 0 80 1;
#X connect 82 0 106 0;
#X connect 83 0 78 1;
#X connect 84 0 82 0;
#X connect 84 0 100 0;
#X connect 85 0 78 0;
#X connect 86 0 80 0;
#X connect 87 0 89 0;
#X connect 87 0 98 0;
#X connect 88 0 87 0;
#X connect 89 0 104 0;
#X connect 90 0 94 0;
#X connect 91 0 90 1;
#X connect 92 0 107 0;
#X connect 93 0 88 1;
#X connect 94 0 92 0;
#X connect 94 0 101 0;
#X connect 95 0 88 0;
#X connect 96 0 90 0;
#X connect 108 0 122 0;
#X connect 108 0 115 0;
#X connect 115 0 116 0;
#X connect 115 1 117 0;
#X connect 115 2 118 0;
#X connect 115 3 119 0;
#X connect 115 4 120 0;
#X connect 115 5 121 0;
#X connect 123 0 124 0;
#X connect 123 0 131 0;
#X connect 131 0 125 0;
#X connect 131 1 126 0;
#X connect 131 2 127 0;
#X connect 131 3 128 0;
#X connect 131 4 129 0;
#X connect 131 5 130 0;
#X connect 132 0 154 0;
#X connect 132 0 153 0;
#X connect 139 0 156 0;
#X connect 139 0 155 0;
#X connect 146 0 158 0;
#X connect 146 0 157 0;
#X connect 153 0 133 0;
#X connect 153 1 134 0;
#X connect 153 2 135 0;
#X connect 153 3 136 0;
#X connect 153 4 137 0;
#X connect 153 5 138 0;
#X connect 155 0 140 0;
#X connect 155 1 141 0;
#X connect 155 2 142 0;
#X connect 155 3 143 0;
#X connect 155 4 144 0;
#X connect 155 5 145 0;
#X connect 157 0 147 0;
#X connect 157 1 148 0;
#X connect 157 2 149 0;
#X connect 157 3 150 0;
#X connect 157 4 151 0;
#X connect 157 5 152 0;
#X connect 159 0 166 0;
#X connect 159 0 167 0;
#X connect 167 0 160 0;
#X connect 167 1 161 0;
#X connect 167 2 162 0;
#X connect 167 3 163 0;
#X connect 167 4 164 0;
#X connect 167 5 165 0;
#X connect 169 0 35 0;
#X connect 170 0 10 0;
#X connect 171 0 16 0;
#X connect 172 0 23 0;
#X connect 173 0 30 0;
#X connect 174 0 183 0;
#X connect 175 0 184 0;
#X connect 176 0 182 0;
#X connect 177 0 180 0;
#X connect 178 0 186 0;
#X connect 179 0 185 0;
#X connect 181 0 177 0;
#X connect 181 1 176 0;
#X connect 181 2 174 0;
#X connect 181 3 175 0;
#X connect 181 4 179 0;
#X connect 181 5 178 0;
#X connect 187 0 54 0;
#X connect 188 0 53 0;
#X connect 188 0 218 0;
#X connect 189 0 55 0;
#X connect 190 0 225 0;
#X connect 190 0 226 0;
#X connect 191 0 197 0;
#X connect 192 0 198 0;
#X connect 193 0 194 0;
#X connect 194 0 190 0;
#X connect 195 0 199 0;
#X connect 196 0 200 0;
#X connect 197 0 61 0;
#X connect 198 0 61 0;
#X connect 199 0 61 0;
#X connect 200 0 61 0;
#X connect 201 0 211 0;
#X connect 201 1 211 1;
#X connect 202 0 201 1;
#X connect 203 0 201 2;
#X connect 204 0 210 0;
#X connect 204 0 224 0;
#X connect 205 0 227 0;
#X connect 206 0 228 0;
#X connect 207 0 204 0;
#X connect 208 0 229 0;
#X connect 209 0 230 0;
#X connect 210 0 208 0;
#X connect 210 1 209 0;
#X connect 212 0 233 0;
#X connect 212 1 233 1;
#X connect 213 0 212 1;
#X connect 214 0 212 2;
#X connect 215 0 223 0;
#X connect 216 0 235 0;
#X connect 217 0 234 0;
#X connect 218 0 215 0;
#X connect 219 0 221 0;
#X connect 220 0 222 0;
#X connect 221 0 212 0;
#X connect 222 0 212 0;
#X connect 223 0 216 0;
#X connect 223 1 217 0;
#X connect 224 0 205 0;
#X connect 224 1 206 0;
#X connect 225 0 191 0;
#X connect 225 1 192 0;
#X connect 226 0 195 0;
#X connect 226 1 196 0;
#X connect 227 0 201 0;
#X connect 228 0 201 0;
#X connect 229 0 201 0;
#X connect 230 0 201 0;
#X connect 231 0 207 0;
#X connect 231 0 218 0;
#X connect 232 0 219 0;
#X connect 232 1 220 0;
#X connect 234 0 212 0;
#X connect 235 0 212 0;
