#N canvas 19 22 1218 749 10;
#X declare -lib mrpeach;
#X obj 429 259 makenote 80 500;
#X obj 963 400 ctlout 1;
#X obj 1061 407 ctlout 2;
#X floatatom 938 379 5 0 0 0 - - -;
#X obj 938 357 -;
#X obj 938 407 vsl 15 30 0 127 0 0 empty empty empty 0 -9 0 10 -33289
-262144 -1 2900 1;
#X obj 1045 359 -;
#X floatatom 1071 337 5 0 0 0 - - -;
#X obj 1036 411 vsl 15 30 0 127 0 0 empty empty empty 0 -9 0 10 -1
-262144 -1 2900 1;
#X floatatom 963 334 5 0 0 0 - - -;
#X floatatom 1045 383 5 0 0 0 - - -;
#X floatatom 289 123 5 0 0 0 - - -;
#X obj 248 124 bng 15 250 50 0 AF3 empty empty 17 7 0 10 -262144 -1
-1;
#X obj 248 145 t b;
#X obj 248 99 moses;
#X obj 248 51 average;
#X floatatom 248 77 5 0 0 0 - - -;
#X floatatom 249 197 5 0 0 0 - - -;
#X floatatom 432 119 5 0 0 0 - - -;
#X obj 391 120 bng 15 250 50 0 empty F7 empty 17 7 0 10 -262144 -1
-1;
#X obj 391 141 t b;
#X obj 391 95 moses;
#X obj 391 47 average;
#X floatatom 391 73 5 0 0 0 - - -;
#X floatatom 392 193 5 0 0 0 - - -;
#X floatatom 573 120 5 0 0 0 - - -;
#X obj 532 121 bng 15 250 50 0 F4 empty empty 17 7 0 10 -262144 -1
-1;
#X obj 532 142 t b;
#X obj 532 96 moses;
#X obj 532 48 average;
#X floatatom 532 74 5 0 0 0 - - -;
#X obj 574 144 / 127;
#X floatatom 533 194 5 0 0 0 - - -;
#X floatatom 723 117 5 0 0 0 - - -;
#X obj 682 118 bng 15 250 50 0 F3 empty empty 17 7 0 10 -262144 -1
-1;
#X obj 682 139 t b;
#X obj 682 93 moses;
#X obj 682 45 average;
#X floatatom 682 71 5 0 0 0 - - -;
#X obj 724 141 / 127;
#X floatatom 683 191 5 0 0 0 - - -;
#X floatatom 872 112 5 0 0 0 - - -;
#X obj 831 113 bng 15 250 50 0 empty empty empty 17 7 0 10 -262144
-1 -1;
#X obj 831 134 t b;
#X obj 831 88 moses;
#X obj 831 40 average;
#X floatatom 831 66 5 0 0 0 - - -;
#X obj 873 136 / 127;
#X floatatom 832 186 5 0 0 0 - - -;
#X floatatom 44 184 5 0 0 0 - - -;
#X obj 44 160 counter;
#X obj 73 140 bng 15 250 50 0 empty empty empty 17 7 0 10 -262144 -1
-1;
#X floatatom 141 123 5 0 0 0 - - -;
#X obj 100 122 bng 15 250 50 0 AF3 empty empty 17 7 0 10 -262144 -1
-1;
#X obj 100 143 t b;
#X obj 100 97 moses;
#X obj 100 49 average;
#X floatatom 100 75 5 0 0 0 - - -;
#X floatatom 101 195 5 0 0 0 - - -;
#X obj 527 -134 bng 15 250 50 0 empty empty empty 17 7 0 10 -262144
-1 -1;
#X msg 407 -135 reset time;
#X obj 479 -134 s time;
#X obj 50 117 r time;
#X floatatom 194 186 5 0 0 0 - - -;
#X obj 194 162 counter;
#X obj 223 142 bng 15 250 50 0 empty empty empty 17 7 0 10 -262144
-1 -1;
#X obj 200 119 r time;
#X floatatom 342 182 5 0 0 0 - - -;
#X obj 342 158 counter;
#X obj 371 138 bng 15 250 50 0 empty empty empty 17 7 0 10 -262144
-1 -1;
#X obj 348 115 r time;
#X floatatom 483 183 5 0 0 0 - - -;
#X obj 483 159 counter;
#X obj 512 139 bng 15 250 50 0 empty empty empty 17 7 0 10 -262144
-1 -1;
#X obj 489 116 r time;
#X floatatom 632 180 5 0 0 0 - - -;
#X obj 632 156 counter;
#X obj 661 136 bng 15 250 50 0 empty empty empty 17 7 0 10 -262144
-1 -1;
#X obj 638 113 r time;
#X floatatom 782 175 5 0 0 0 - - -;
#X obj 782 151 counter;
#X obj 811 131 bng 15 250 50 0 empty empty empty 17 7 0 10 -262144
-1 -1;
#X obj 788 108 r time;
#X obj 407 -90 average;
#X floatatom 101 242 5 0 0 0 - - -;
#X floatatom 249 242 5 0 0 0 - - -;
#X floatatom 392 242 5 0 0 0 - - -;
#X floatatom 533 242 5 0 0 0 - - -;
#X floatatom 683 242 5 0 0 0 - - -;
#X floatatom 832 242 5 0 0 0 - - -;
#X obj 407 -113 r AF3 F7 FC5 F8 FC6 T7 T8 O1;
#X obj 500 -90 s avr;
#X obj 920 333 r avr;
#X obj 1028 336 r avr;
#X floatatom 461 -90 5 0 0 0 - - -;
#X obj 53 -178 hsl 250 30 0 127 0 0 empty empty EEG_Frequency_to_midi_notes
2 14 0 15 -1 -1 -191407 0 1;
#X obj 939 453 s ctl;
#X obj 1036 453 s ctl1;
#X obj 527 259 r ctl;
#X obj 566 259 r ctl1;
#X floatatom 120 -78 5 0 0 0 - - -;
#X floatatom 164 -78 5 0 0 0 - - -;
#X floatatom 76 -78 5 0 0 0 - - -;
#X floatatom 37 -78 5 0 0 0 - - -;
#X floatatom 252 -78 5 0 0 0 - - -;
#X floatatom 208 -78 5 0 0 0 - - -;
#X obj 37 -56 s AF3;
#X obj 832 210 + 70;
#X obj 218 242 s v1;
#X obj 361 242 s v2;
#X obj 429 277 noteout 4;
#X obj 101 219 + 5;
#X obj 249 221 + 10;
#X obj 392 217 + 15;
#X obj 683 215 + 25;
#X obj 142 147 + 1;
#X obj 290 147 + 1;
#X obj 433 143 + 1;
#N canvas 80 353 1044 581 OSC 0;
#X obj 53 -4 unpackOSC;
#X text 62 -20 recibiendo datos;
#X obj 54 -57 import mrpeach;
#X obj 51 19 print unpacked;
#X obj 53 -34 udpreceive 8666;
#X obj 193 292 outlet;
#X obj 243 253 outlet;
#X obj 300 212 outlet;
#X obj 358 177 outlet;
#X obj 417 149 outlet;
#X obj 478 113 outlet;
#X obj 566 64 outlet;
#X obj 588 87 outlet;
#X obj 614 109 outlet;
#X obj 639 135 outlet;
#X obj 664 161 outlet;
#X obj 690 185 outlet;
#X obj 717 213 outlet;
#X obj 743 243 outlet;
#X obj 767 269 outlet;
#X obj 792 294 outlet;
#X obj 817 319 outlet;
#X obj 841 344 outlet;
#X obj 866 371 outlet;
#X obj 889 396 outlet;
#X obj 566 -54 routeOSC /potencial/AF3/b /potencial/F7/b /potencial/F3/b
/potencial/FC5/filtrado /potencial/T7/filtrado /potencial/P7/filtrado
/potencial/O1/filtrado /potencial/02/filtrado /potencial/P8/filtrado
/potencial/T8/filtrado /potencial/FC6/filtrado /potencial/F4/filtrado
/potencial/F8/filtradoo /potencial/AF4/filtrado;
#X obj 191 -55 routeOSC /potencial/AF3/a /potencial/F7/a /potencial/F3/a
/potencial/F4/a /potencial/F8/a /potencial/AF4/a;
#X connect 0 0 3 0;
#X connect 0 0 25 0;
#X connect 0 0 26 0;
#X connect 4 0 0 0;
#X connect 25 0 11 0;
#X connect 25 1 12 0;
#X connect 25 2 13 0;
#X connect 25 3 14 0;
#X connect 25 4 15 0;
#X connect 25 5 16 0;
#X connect 25 6 17 0;
#X connect 25 7 18 0;
#X connect 25 8 19 0;
#X connect 25 9 20 0;
#X connect 25 10 21 0;
#X connect 25 11 22 0;
#X connect 25 12 23 0;
#X connect 25 13 24 0;
#X connect 26 0 5 0;
#X connect 26 1 6 0;
#X connect 26 2 7 0;
#X connect 26 3 8 0;
#X connect 26 4 9 0;
#X connect 26 5 10 0;
#X coords 0 581 1 580 300 85 0;
#X restore 50 -136 pd OSC 1 2 3 4 5 6 7 8 9 10 11 12 13 14 15 16 17
18 19 20 21 22 23 24 25 26 27 28;
#N canvas 0 22 450 278 (subpatch) 0;
#X array AF3 4400 float 4;
#X coords 0 1 4399 -1 100 140 1 0 0;
#X restore 54 342 graph;
#N canvas 0 22 450 278 (subpatch) 0;
#X array AF4 4400 float 4;
#X coords 0 1 4400 -1 100 140 1 0 0;
#X restore 205 346 graph;
#N canvas 0 22 450 278 (subpatch) 0;
#X array F3 100 float 3;
#A 0 0 0.0428581 0.0571442 0.0642872 0.0714302 0.0785732 0.0857162
0.0952403 0.104764 0.114288 0.123812 0.133336 0.14286 0.157146 0.203576
0.221434 0.239291 0.257149 0.257149 0.250006 0.242863 0.242863 0.242863
0.233934 0.225005 0.216076 0.207148 0.198219 0.18929 0.180361 0.171432
0.150003 0.128574 0.128574 0.128574 0.128574 0.128574 0.128574 0.128574
0.128574 0.128574 0.128574 0.128574 0.128574 0.131432 0.134289 0.137146
0.140003 0.14286 0.145718 0.148575 0.151432 0.154289 0.157146 0.160004
0.162861 0.165718 0.168575 0.171432 0.17429 0.177147 0.180004 0.182861
0.185719 0.193882 0.202045 0.210209 0.218372 0.226536 0.234699 0.242863
0.251026 0.25919 0.267353 0.275517 0.28368 0.291843 0.300007 0.30715
0.314293 0.328579 0.350008 0.371437 0.385723 0.414295 0.442867 0.471439
0.500011 0 0 0 0 0 0 0 0 0 0 0 0;
#X coords 0 1 99 -1 100 140 1 0 0;
#X restore 355 346 graph;
#N canvas 0 22 450 278 (subpatch) 0;
#X array F4 100 float 3;
#A 0 0 0 0 0 0 0 0 0 0 0 0 0 0 0 0 0.0999989 0.126529 0.15306 0.17959
0.20612 0.232651 0.259181 0.285711 0.303568 0.321425 0.339282 0.357139
0.374996 0.392853 0.41071 0.428567 0.446424 0.464281 0.482138 0.499995
0.517852 0.535709 0.553566 0.571422 0.587211 0.603001 0.61879 0.634579
0.650369 0.666158 0.681947 0.697737 0.713526 0.729315 0.745105 0.760894
0.776683 0.792473 0.808262 0.824051 0.839841 0.85563 0.871419 0.767849
0.664279 0.560708 0.457138 0.142856 0.142856 0.142856 0.142856 0.142856
0.142856 0.142856 0.142856 0.142856 0.142856 0.142856 0.142856 0.142856
0.142856 0.142856 0.142856 0.142856 0.142856 0.142856 0.142856 0.142856
0.142856 0.142856 0.142856 0 0 0 0 0 0 0 0 0 0 0 0 0 0;
#X coords 0 1 99 -1 100 140 1 0 0;
#X restore 498 345 graph;
#N canvas 0 22 450 278 (subpatch) 0;
#X array F7 100 float 3;
#A 0 0 0 0 0 0 0 0 0 0 0 0 0 -0.0428567 -0.0571423 -0.0714278 -0.0857134
-0.114285 0 0 0 0 0 0 0 0 0 0 0 0 0 0 0 0 0 0 0 0 0 0 0 0 -0.0142856
-0.0285711 -0.0571423 -0.0857134 -0.185712 -0.20476 -0.223807 -0.242855
-0.271426 -0.289283 -0.30714 -0.324997 -0.342854 -0.342854 -0.342854
-0.364282 -0.38571 -0.38571 -0.399996 0 0 0 0 0 0 0 0 0 0 0 0 0 0 0
0 0 0 0 0 0 0 0 0 0 0 0 0 0 0 0 0 0 0 0 0 0 0 0 0;
#X coords 0 1 99 -1 100 140 1 0 0;
#X restore 646 342 graph;
#N canvas 0 22 450 278 (subpatch) 0;
#X array F8 100 float 3;
#A 0 0 0 0 0 0 0 0 0 0 0 0 0 -0.0714278 -0.171427 -0.185712 -0.199998
-0.228569 -0.342854 -0.542851 -0.542851 -0.53877 -0.534688 -0.530607
-0.526525 -0.522443 -0.518362 -0.51428 -0.51428 -0.51428 -0.51428 -0.51428
-0.51428 -0.51428 -0.507138 -0.499995 -0.499995 -0.492852 -0.485709
-0.478566 -0.471424 -0.464281 -0.457138 -0.449995 -0.442852 -0.43571
-0.428567 -0.421424 -0.414281 -0.407139 -0.399996 -0.38571 -0.371425
-0.357139 0 0 0 0 0 0 0 0 0 0 0 0 0 0 0 0 0 0 0 0 0 0 0 0 0 0 0 0 0
0 0 0 0 0 0 0 0 0 0 0 0 0 0 0 0 0 0;
#X coords 0 1 99 -1 100 140 1 0 0;
#X restore 793 342 graph;
#X obj 981 -28 bng 15 250 50 0 empty AF3 AF3 17 7 0 10 -4034 -1 -1
;
#X obj 1126 -30 bng 15 250 50 0 empty AF4 AF4 17 7 0 10 -4034 -1 -1
;
#X obj 969 74 bng 15 250 50 0 empty empty FC5 17 7 0 10 -4034 -1 -1
;
#X obj 1089 11 bng 15 250 50 0 empty F4 F4 17 7 0 10 -4034 -1 -1;
#X obj 934 39 bng 15 250 50 0 empty F7 F7 17 7 0 10 -4034 -1 -1;
#X obj 1153 35 bng 15 250 50 0 empty empty F8 17 7 0 10 -4034 -1 -1
;
#X obj 1012 13 bng 15 250 50 0 empty F3 F3 17 7 0 10 -4034 -1 -1;
#X obj 1110 73 bng 15 250 50 0 empty empty FC6 17 7 0 10 -4034 -1 -1
;
#X obj 930 114 bng 15 250 50 0 empty empty T7 17 7 0 10 -4034 -1 -1
;
#X obj 952 160 bng 15 250 50 0 empty empty CMS 17 7 0 10 -4034 -1 -1
;
#X obj 979 202 bng 15 250 50 0 empty empty P7 17 7 0 10 -4034 -1 -1
;
#X obj 1026 238 bng 15 250 50 0 empty empty O1 17 7 0 10 -4034 -1 -1
;
#X obj 1086 236 bng 15 250 50 0 empty empty O2 17 7 0 10 -4034 -1 -1
;
#X obj 1130 198 bng 15 250 50 0 empty empty P8 17 7 0 10 -4034 -1 -1
;
#X obj 1150 154 bng 15 250 50 0 empty empty DRL 17 7 0 10 -4034 -1
-1;
#X obj 1165 111 bng 15 250 50 0 empty empty T8 17 7 0 10 -4034 -1 -1
;
#N canvas 0 22 450 278 (subpatch) 0;
#X coords 0 1 100 -1 1 300 1 0 0;
#X restore 1065 -46 graph;
#N canvas 0 22 450 278 (subpatch) 0;
#X coords 0 1 100 -1 200 1 1 0 0;
#X restore 959 117 graph;
#N canvas 0 22 450 278 (subpatch) 0;
#X coords 0 1 100 -1 120 1 1 0 0;
#X restore 1002 -11 graph;
#X obj 76 -56 s AF4;
#X obj 120 -56 s F3;
#X obj 164 -56 s F4;
#X obj 208 -56 s F7;
#X obj 252 -56 s F8;
#X obj 69 288 tabwrite~ AF3;
#X obj 68 242 osc~;
#X msg 78 267 bang;
#X obj 115 267 metro 1000;
#X obj 139 242 bng 15 250 50 0 empty empty empty 17 7 0 10 -262144
-1 -1;
#X obj 159 242 tgl 15 0 empty empty empty 17 7 0 10 -262144 -1 -1 0
1;
#X msg 220 264 bang;
#X obj 257 264 metro 1000;
#X obj 210 220 osc~;
#X obj 289 242 bng 15 250 50 0 empty empty empty 17 7 0 10 -262144
-1 -1;
#X obj 309 242 tgl 15 0 empty empty empty 17 7 0 10 -262144 -1 -1 0
1;
#X obj 211 285 tabwrite~ AF4;
#X obj 249 24 r AF4;
#X obj 391 19 r F7;
#X obj 533 218 + 1;
#X obj 532 24 r F4;
#X obj 682 23 r F3;
#X obj 101 19 r AF3;
#X connect 0 0 110 0;
#X connect 0 1 110 1;
#X connect 3 0 1 0;
#X connect 3 0 5 0;
#X connect 4 0 3 0;
#X connect 5 0 96 0;
#X connect 6 0 10 0;
#X connect 7 0 6 1;
#X connect 8 0 97 0;
#X connect 9 0 4 1;
#X connect 10 0 8 0;
#X connect 10 0 2 0;
#X connect 11 0 116 0;
#X connect 12 0 13 0;
#X connect 13 0 17 0;
#X connect 13 0 64 0;
#X connect 14 0 12 0;
#X connect 14 1 11 0;
#X connect 15 0 16 0;
#X connect 16 0 14 0;
#X connect 16 0 14 1;
#X connect 17 0 112 0;
#X connect 18 0 117 0;
#X connect 19 0 20 0;
#X connect 20 0 24 0;
#X connect 20 0 68 0;
#X connect 21 0 19 0;
#X connect 21 1 18 0;
#X connect 22 0 23 0;
#X connect 23 0 21 0;
#X connect 23 0 21 1;
#X connect 24 0 113 0;
#X connect 25 0 31 0;
#X connect 26 0 27 0;
#X connect 27 0 32 0;
#X connect 27 0 72 0;
#X connect 28 0 26 0;
#X connect 28 1 25 0;
#X connect 29 0 30 0;
#X connect 30 0 28 0;
#X connect 30 0 28 1;
#X connect 31 0 32 0;
#X connect 32 0 163 0;
#X connect 33 0 39 0;
#X connect 34 0 35 0;
#X connect 35 0 40 0;
#X connect 35 0 76 0;
#X connect 36 0 34 0;
#X connect 36 1 33 0;
#X connect 37 0 38 0;
#X connect 38 0 36 0;
#X connect 38 0 36 1;
#X connect 39 0 40 0;
#X connect 40 0 114 0;
#X connect 41 0 47 0;
#X connect 42 0 43 0;
#X connect 43 0 48 0;
#X connect 43 0 80 0;
#X connect 44 0 42 0;
#X connect 44 1 41 0;
#X connect 45 0 46 0;
#X connect 46 0 44 0;
#X connect 46 0 44 1;
#X connect 47 0 48 0;
#X connect 48 0 107 0;
#X connect 50 0 49 0;
#X connect 51 0 50 3;
#X connect 52 0 115 0;
#X connect 53 0 54 0;
#X connect 54 0 58 0;
#X connect 54 0 50 0;
#X connect 55 0 53 0;
#X connect 55 1 52 0;
#X connect 56 0 57 0;
#X connect 57 0 55 0;
#X connect 57 0 55 1;
#X connect 58 0 111 0;
#X connect 59 0 61 0;
#X connect 60 0 59 0;
#X connect 62 0 51 0;
#X connect 64 0 63 0;
#X connect 65 0 64 3;
#X connect 66 0 65 0;
#X connect 68 0 67 0;
#X connect 69 0 68 3;
#X connect 70 0 69 0;
#X connect 72 0 71 0;
#X connect 73 0 72 3;
#X connect 74 0 73 0;
#X connect 76 0 75 0;
#X connect 77 0 76 3;
#X connect 78 0 77 0;
#X connect 80 0 79 0;
#X connect 81 0 80 3;
#X connect 82 0 81 0;
#X connect 83 0 94 0;
#X connect 84 0 150 0;
#X connect 84 0 0 0;
#X connect 85 0 0 0;
#X connect 85 0 108 0;
#X connect 85 0 157 0;
#X connect 86 0 0 0;
#X connect 86 0 109 0;
#X connect 87 0 0 0;
#X connect 88 0 0 0;
#X connect 89 0 0 0;
#X connect 90 0 83 0;
#X connect 92 0 4 0;
#X connect 93 0 6 0;
#X connect 94 0 91 0;
#X connect 98 0 0 1;
#X connect 99 0 0 2;
#X connect 100 0 145 0;
#X connect 101 0 146 0;
#X connect 102 0 144 0;
#X connect 103 0 106 0;
#X connect 104 0 148 0;
#X connect 105 0 147 0;
#X connect 107 0 89 0;
#X connect 111 0 84 0;
#X connect 112 0 85 0;
#X connect 113 0 86 0;
#X connect 114 0 88 0;
#X connect 115 0 58 0;
#X connect 116 0 17 0;
#X connect 117 0 24 0;
#X connect 118 0 103 0;
#X connect 118 1 102 0;
#X connect 118 2 100 0;
#X connect 118 4 101 0;
#X connect 118 5 105 0;
#X connect 118 7 104 0;
#X connect 150 0 149 0;
#X connect 152 0 153 0;
#X connect 153 0 151 0;
#X connect 154 0 152 0;
#X connect 156 0 158 0;
#X connect 157 0 160 0;
#X connect 158 0 155 0;
#X connect 159 0 156 0;
#X connect 161 0 15 0;
#X connect 162 0 22 0;
#X connect 163 0 87 0;
#X connect 164 0 29 0;
#X connect 165 0 37 0;
#X connect 166 0 56 0;
