#N canvas 46 22 1153 752 10;
#X declare -lib mrpeach;
#X obj 471 378 makenote 80 500;
#X msg 44 244 60;
#X obj 487 416 noteout 4;
#X msg 328 245 64;
#X obj 328 225 bng 15 250 50 0 empty empty empty 17 7 0 10 -262144
-1 -1;
#X obj 396 225 bng 15 250 50 0 empty empty empty 17 7 0 10 -262144
-1 -1;
#X msg 539 240 67;
#X obj 471 223 bng 15 250 50 0 empty empty empty 17 7 0 10 -262144
-1 -1;
#X obj 538 220 bng 15 250 50 0 empty empty empty 17 7 0 10 -262144
-1 -1;
#X obj 605 220 bng 15 250 50 0 empty empty empty 17 7 0 10 -262144
-1 -1;
#X obj 663 219 bng 15 250 50 0 empty empty empty 17 7 0 10 -262144
-1 -1;
#X msg 184 244 62;
#X msg 253 246 63;
#X msg 396 245 65;
#X msg 471 242 66;
#X msg 605 241 68;
#X msg 662 240 69;
#X floatatom 53 151 5 0 0 0 - - -;
#X floatatom 122 150 5 0 0 0 - - -;
#X msg 114 242 61;
#X obj 32 111 bng 15 250 50 0 empty empty empty 17 7 0 10 -262144 -1
-1;
#X obj 101 149 bng 15 250 50 0 empty empty empty 17 7 0 10 -262144
-1 -1;
#X obj 44 225 bng 15 250 50 0 empty empty empty 17 7 0 10 -262144 -1
-1;
#X obj 111 181 t b;
#X obj 44 181 t b;
#X obj 113 225 bng 15 250 50 0 empty empty empty 17 7 0 10 -262144
-1 -1;
#X floatatom 193 150 5 0 0 0 - - -;
#X floatatom 262 149 5 0 0 0 - - -;
#X obj 172 151 bng 15 250 50 0 empty empty empty 17 7 0 10 -262144
-1 -1;
#X obj 241 148 bng 15 250 50 0 empty empty empty 17 7 0 10 -262144
-1 -1;
#X obj 184 224 bng 15 250 50 0 empty empty empty 17 7 0 10 -262144
-1 -1;
#X obj 251 180 t b;
#X obj 184 180 t b;
#X obj 253 224 bng 15 250 50 0 empty empty empty 17 7 0 10 -262144
-1 -1;
#X obj 53 114 moses 4260;
#X obj 193 113 moses 4400;
#X floatatom 338 151 5 0 0 0 - - -;
#X floatatom 407 150 5 0 0 0 - - -;
#X obj 317 152 bng 15 250 50 0 empty empty empty 17 7 0 10 -262144
-1 -1;
#X obj 386 149 bng 15 250 50 0 empty empty empty 17 7 0 10 -262144
-1 -1;
#X obj 396 181 t b;
#X obj 329 181 t b;
#X obj 338 114 moses 4550;
#X floatatom 480 151 5 0 0 0 - - -;
#X floatatom 549 150 5 0 0 0 - - -;
#X obj 459 152 bng 15 250 50 0 empty empty empty 17 7 0 10 -262144
-1 -1;
#X obj 528 149 bng 15 250 50 0 empty empty empty 17 7 0 10 -262144
-1 -1;
#X obj 538 181 t b;
#X obj 471 181 t b;
#X floatatom 604 150 5 0 0 0 - - -;
#X floatatom 673 149 5 0 0 0 - - -;
#X obj 652 148 bng 15 250 50 0 empty empty empty 17 7 0 10 -262144
-1 -1;
#X obj 662 180 t b;
#X obj 604 180 t b;
#X floatatom 415 -39 5 0 0 0 - - -;
#X floatatom 475 -39 5 0 0 0 - - -;
#X floatatom 357 -39 5 0 0 0 - - -;
#X obj 217 -61 unpackOSC;
#X obj 188 -37 print unpacked;
#X obj 189 -117 import mrpeach;
#X text 189 -81 recibiendo datos;
#X floatatom 295 -39 5 0 0 0 - - -;
#X floatatom 653 -39 5 0 0 0 - - -;
#X floatatom 715 -39 5 0 0 0 - - -;
#X floatatom 593 -39 5 0 0 0 - - -;
#X floatatom 534 -39 5 0 0 0 - - -;
#X obj 181 -99 udpreceive 11112;
#X obj 303 -82 routeOSC /csv/AF3 /csv/F7 /csv/FC5 /csv/F8 /csv/FC6
/csv/T7 /csv/T8 /csv/O1;
#X obj 877 157 ctlout 1;
#X obj 733 221 bng 15 250 50 0 empty empty empty 17 7 0 10 -262144
-1 -1;
#X obj 791 220 bng 15 250 50 0 empty empty empty 17 7 0 10 -262144
-1 -1;
#X floatatom 732 151 5 0 0 0 - - -;
#X floatatom 801 150 5 0 0 0 - - -;
#X obj 780 149 bng 15 250 50 0 empty empty empty 17 7 0 10 -262144
-1 -1;
#X obj 790 181 t b;
#X obj 732 181 t b;
#X msg 733 242 70;
#X msg 790 241 71;
#X obj 960 154 ctlout 2;
#X obj 480 114 moses 4200;
#X obj 602 113 moses 4290;
#X obj 732 114 moses 5000;
#X floatatom 850 126 5 0 0 0 - - -;
#X obj 849 94 -;
#X obj 852 164 vsl 15 100 0 127 0 0 empty empty empty 0 -9 0 10 -33289
-262144 -1 3998 1;
#X obj 940 97 -;
#X floatatom 954 74 5 0 0 0 - - -;
#X obj 940 163 vsl 15 100 0 127 0 0 empty empty empty 0 -9 0 10 -1
-262144 -1 0 1;
#X floatatom 865 68 5 0 0 0 - - -;
#X floatatom 942 130 5 0 0 0 - - -;
#X connect 0 0 2 0;
#X connect 0 1 2 1;
#X connect 1 0 0 0;
#X connect 3 0 0 0;
#X connect 4 0 3 0;
#X connect 5 0 13 0;
#X connect 6 0 0 0;
#X connect 7 0 14 0;
#X connect 8 0 6 0;
#X connect 9 0 15 0;
#X connect 10 0 16 0;
#X connect 11 0 0 0;
#X connect 12 0 0 0;
#X connect 13 0 0 0;
#X connect 14 0 0 0;
#X connect 15 0 0 0;
#X connect 16 0 0 0;
#X connect 19 0 0 0;
#X connect 20 0 24 0;
#X connect 21 0 23 0;
#X connect 22 0 1 0;
#X connect 23 0 25 0;
#X connect 24 0 22 0;
#X connect 25 0 19 0;
#X connect 28 0 32 0;
#X connect 29 0 31 0;
#X connect 30 0 11 0;
#X connect 31 0 33 0;
#X connect 32 0 30 0;
#X connect 33 0 12 0;
#X connect 34 0 17 0;
#X connect 34 0 20 0;
#X connect 34 1 18 0;
#X connect 34 1 21 0;
#X connect 35 0 26 0;
#X connect 35 0 28 0;
#X connect 35 1 27 0;
#X connect 35 1 29 0;
#X connect 38 0 41 0;
#X connect 39 0 40 0;
#X connect 40 0 5 0;
#X connect 41 0 4 0;
#X connect 42 0 36 0;
#X connect 42 0 38 0;
#X connect 42 1 37 0;
#X connect 42 1 39 0;
#X connect 45 0 48 0;
#X connect 46 0 47 0;
#X connect 47 0 8 0;
#X connect 48 0 7 0;
#X connect 49 0 53 0;
#X connect 51 0 52 0;
#X connect 52 0 10 0;
#X connect 53 0 9 0;
#X connect 54 0 42 0;
#X connect 55 0 79 0;
#X connect 56 0 35 0;
#X connect 57 0 67 0;
#X connect 61 0 34 0;
#X connect 62 0 83 0;
#X connect 63 0 85 0;
#X connect 64 0 81 0;
#X connect 65 0 80 0;
#X connect 66 0 57 0;
#X connect 67 0 61 0;
#X connect 67 1 56 0;
#X connect 67 2 54 0;
#X connect 67 3 55 0;
#X connect 67 4 65 0;
#X connect 67 5 64 0;
#X connect 67 6 62 0;
#X connect 67 7 63 0;
#X connect 69 0 76 0;
#X connect 70 0 77 0;
#X connect 71 0 75 0;
#X connect 73 0 74 0;
#X connect 74 0 70 0;
#X connect 75 0 69 0;
#X connect 76 0 0 0;
#X connect 77 0 0 0;
#X connect 79 0 43 0;
#X connect 79 0 45 0;
#X connect 79 1 44 0;
#X connect 79 1 46 0;
#X connect 80 0 49 0;
#X connect 80 1 50 0;
#X connect 80 1 51 0;
#X connect 81 0 71 0;
#X connect 81 1 72 0;
#X connect 81 1 73 0;
#X connect 82 0 68 0;
#X connect 82 0 84 0;
#X connect 83 0 82 0;
#X connect 85 0 89 0;
#X connect 86 0 85 1;
#X connect 88 0 83 1;
#X connect 89 0 87 0;
#X connect 89 0 78 0;
