#N canvas 24 28 1264 752 10;
#X declare -lib mrpeach;
#X obj 578 514 makenote 80 500;
#X obj 578 539 noteout 4;
#X floatatom 236 -5 5 0 0 0 - - -;
#X floatatom 280 -4 5 0 0 0 - - -;
#X floatatom 192 -5 5 0 0 0 - - -;
#X obj 63 -22 unpackOSC;
#X obj 34 2 print unpacked;
#X obj 35 -78 import mrpeach;
#X text 35 -42 recibiendo datos;
#X floatatom 148 -4 5 0 0 0 - - -;
#X floatatom 412 -4 5 0 0 0 - - -;
#X floatatom 457 -3 5 0 0 0 - - -;
#X floatatom 368 -4 5 0 0 0 - - -;
#X floatatom 324 -5 5 0 0 0 - - -;
#X obj 27 -60 udpreceive 11112;
#X obj 149 -43 routeOSC /csv/AF3 /csv/F7 /csv/FC5 /csv/F8 /csv/FC6
/csv/T7 /csv/T8 /csv/O1;
#X obj 761 -1 ctlout 1;
#X obj 857 0 ctlout 2;
#X floatatom 736 -22 5 0 0 0 - - -;
#X obj 736 -44 -;
#X obj 736 6 vsl 15 30 0 1023 0 0 empty empty empty 0 -9 0 10 -33289
-262144 -1 0 1;
#X obj 841 -48 -;
#X floatatom 867 -70 5 0 0 0 - - -;
#X obj 832 4 vsl 15 30 0 1023 0 0 empty empty empty 0 -9 0 10 -1 -262144
-1 0 1;
#X floatatom 761 -67 5 0 0 0 - - -;
#X floatatom 841 -24 5 0 0 0 - - -;
#X obj 193 17 s F7;
#X obj 148 18 s AF3;
#X obj 235 17 s FC5;
#X floatatom 246 210 5 0 0 0 - - -;
#X obj 205 211 bng 15 250 50 0 empty empty empty 17 7 0 10 -262144
-1 -1;
#X obj 205 232 t b;
#X obj 205 186 moses;
#X obj 205 138 average;
#X floatatom 205 164 5 0 0 0 - - -;
#X obj 247 234 / 127;
#X floatatom 206 284 5 0 0 0 - - -;
#X obj 205 114 r F7;
#X obj 206 308 + 10;
#X floatatom 389 206 5 0 0 0 - - -;
#X obj 348 207 bng 15 250 50 0 empty empty empty 17 7 0 10 -262144
-1 -1;
#X obj 348 228 t b;
#X obj 348 182 moses;
#X obj 348 134 average;
#X floatatom 348 160 5 0 0 0 - - -;
#X obj 390 230 / 127;
#X floatatom 349 280 5 0 0 0 - - -;
#X obj 348 110 r FC5;
#X floatatom 530 207 5 0 0 0 - - -;
#X obj 489 208 bng 15 250 50 0 empty empty empty 17 7 0 10 -262144
-1 -1;
#X obj 489 229 t b;
#X obj 489 183 moses;
#X obj 489 135 average;
#X floatatom 489 161 5 0 0 0 - - -;
#X obj 531 231 / 127;
#X floatatom 490 281 5 0 0 0 - - -;
#X floatatom 680 204 5 0 0 0 - - -;
#X obj 639 205 bng 15 250 50 0 empty empty empty 17 7 0 10 -262144
-1 -1;
#X obj 639 226 t b;
#X obj 639 180 moses;
#X obj 639 132 average;
#X floatatom 639 158 5 0 0 0 - - -;
#X obj 681 228 / 127;
#X floatatom 640 278 5 0 0 0 - - -;
#X obj 349 304 + 15;
#X obj 490 305 + 20;
#X obj 640 302 + 25;
#X floatatom 829 199 5 0 0 0 - - -;
#X obj 788 200 bng 15 250 50 0 empty empty empty 17 7 0 10 -262144
-1 -1;
#X obj 788 221 t b;
#X obj 788 175 moses;
#X obj 788 127 average;
#X floatatom 788 153 5 0 0 0 - - -;
#X obj 830 223 / 127;
#X floatatom 789 273 5 0 0 0 - - -;
#X obj 789 297 + 30;
#X obj 489 111 r F8;
#X obj 788 103 r T7;
#X floatatom 981 197 5 0 0 0 - - -;
#X obj 940 198 bng 15 250 50 0 empty empty empty 17 7 0 10 -262144
-1 -1;
#X obj 940 219 t b;
#X obj 940 173 moses;
#X obj 940 125 average;
#X floatatom 940 151 5 0 0 0 - - -;
#X obj 982 221 / 127;
#X floatatom 941 271 5 0 0 0 - - -;
#X obj 941 295 + 35;
#X obj 940 101 r T8;
#X floatatom 1134 195 5 0 0 0 - - -;
#X obj 1093 196 bng 15 250 50 0 empty empty empty 17 7 0 10 -262144
-1 -1;
#X obj 1093 217 t b;
#X obj 1093 171 moses;
#X obj 1093 123 average;
#X floatatom 1093 149 5 0 0 0 - - -;
#X obj 1135 219 / 127;
#X floatatom 1094 269 5 0 0 0 - - -;
#X obj 1093 99 r O1;
#X floatatom 1 271 5 0 0 0 - - -;
#X obj 1 247 counter;
#X obj 30 227 bng 15 250 50 0 empty empty empty 17 7 0 10 -262144 -1
-1;
#X floatatom 98 210 5 0 0 0 - - -;
#X obj 57 209 bng 15 250 50 0 empty empty empty 17 7 0 10 -262144 -1
-1;
#X obj 57 230 t b;
#X obj 57 184 moses;
#X obj 57 136 average;
#X obj 57 112 r AF3;
#X floatatom 57 162 5 0 0 0 - - -;
#X obj 99 234 / 127;
#X floatatom 58 282 5 0 0 0 - - -;
#X obj 58 306 + 5;
#X obj 281 17 s F8;
#X obj 324 18 s FC6;
#X obj 368 18 s T7;
#X obj 412 18 s T8;
#X obj 457 18 s O1;
#X obj 636 -49 bng 15 250 50 0 empty empty empty 17 7 0 10 -262144
-1 -1;
#X msg 564 -30 reset time;
#X obj 636 -29 s time;
#X obj 7 204 r time;
#X floatatom 151 273 5 0 0 0 - - -;
#X obj 151 249 counter;
#X obj 180 229 bng 15 250 50 0 empty empty empty 17 7 0 10 -262144
-1 -1;
#X obj 157 206 r time;
#X floatatom 299 269 5 0 0 0 - - -;
#X obj 299 245 counter;
#X obj 328 225 bng 15 250 50 0 empty empty empty 17 7 0 10 -262144
-1 -1;
#X obj 305 202 r time;
#X floatatom 440 270 5 0 0 0 - - -;
#X obj 440 246 counter;
#X obj 469 226 bng 15 250 50 0 empty empty empty 17 7 0 10 -262144
-1 -1;
#X obj 446 203 r time;
#X floatatom 589 267 5 0 0 0 - - -;
#X obj 589 243 counter;
#X obj 618 223 bng 15 250 50 0 empty empty empty 17 7 0 10 -262144
-1 -1;
#X obj 595 200 r time;
#X floatatom 739 262 5 0 0 0 - - -;
#X obj 739 238 counter;
#X obj 768 218 bng 15 250 50 0 empty empty empty 17 7 0 10 -262144
-1 -1;
#X obj 745 195 r time;
#X floatatom 888 260 5 0 0 0 - - -;
#X obj 888 236 counter;
#X obj 917 218 bng 15 250 50 0 empty empty empty 17 7 0 10 -262144
-1 -1;
#X obj 894 193 r time;
#X floatatom 1044 258 5 0 0 0 - - -;
#X obj 1044 234 counter;
#X obj 1073 214 bng 15 250 50 0 empty empty empty 17 7 0 10 -262144
-1 -1;
#X obj 1050 191 r time;
#X obj 505 17 average;
#X floatatom 58 329 5 0 0 0 - - -;
#X floatatom 206 332 5 0 0 0 - - -;
#X floatatom 349 329 5 0 0 0 - - -;
#X floatatom 490 330 5 0 0 0 - - -;
#X floatatom 640 328 5 0 0 0 - - -;
#X floatatom 789 325 5 0 0 0 - - -;
#X floatatom 941 320 5 0 0 0 - - -;
#X obj 1094 295 + 40;
#X floatatom 1094 323 5 0 0 0 - - -;
#X obj 639 108 r FC6;
#X obj 505 -6 r AF3 F7 FC5 F8 FC6 T7 T8 O1;
#X obj 598 17 s avr;
#X obj 718 -68 r avr;
#X obj 824 -71 r avr;
#X floatatom 559 17 5 0 0 0 - - -;
#X obj 153 -81 hsl 250 30 0 127 0 0 empty empty EEG_Frequency_to_midi_notes
2 14 0 15 -1 -1 -191407 0 1;
#X obj 734 48 s ctl;
#X obj 832 46 s ctl1;
#X obj 641 539 r ctl;
#X obj 680 539 r ctl1;
#X obj 862 23 / 127;
#X obj 766 23 / 127;
#X connect 0 0 1 0;
#X connect 0 1 1 1;
#X connect 2 0 28 0;
#X connect 3 0 110 0;
#X connect 4 0 26 0;
#X connect 5 0 15 0;
#X connect 9 0 27 0;
#X connect 10 0 113 0;
#X connect 11 0 114 0;
#X connect 12 0 112 0;
#X connect 13 0 111 0;
#X connect 14 0 5 0;
#X connect 15 0 9 0;
#X connect 15 1 4 0;
#X connect 15 2 2 0;
#X connect 15 3 3 0;
#X connect 15 4 13 0;
#X connect 15 5 12 0;
#X connect 15 6 10 0;
#X connect 15 7 11 0;
#X connect 18 0 16 0;
#X connect 18 0 20 0;
#X connect 19 0 18 0;
#X connect 20 0 169 0;
#X connect 21 0 25 0;
#X connect 22 0 21 1;
#X connect 23 0 168 0;
#X connect 24 0 19 1;
#X connect 25 0 23 0;
#X connect 25 0 17 0;
#X connect 29 0 35 0;
#X connect 30 0 31 0;
#X connect 31 0 36 0;
#X connect 31 0 120 0;
#X connect 32 0 30 0;
#X connect 32 1 29 0;
#X connect 33 0 34 0;
#X connect 34 0 32 0;
#X connect 34 0 32 1;
#X connect 35 0 36 0;
#X connect 36 0 38 0;
#X connect 37 0 33 0;
#X connect 38 0 149 0;
#X connect 39 0 45 0;
#X connect 40 0 41 0;
#X connect 41 0 46 0;
#X connect 41 0 124 0;
#X connect 42 0 40 0;
#X connect 42 1 39 0;
#X connect 43 0 44 0;
#X connect 44 0 42 0;
#X connect 44 0 42 1;
#X connect 45 0 46 0;
#X connect 46 0 64 0;
#X connect 47 0 43 0;
#X connect 48 0 54 0;
#X connect 49 0 50 0;
#X connect 50 0 55 0;
#X connect 50 0 128 0;
#X connect 51 0 49 0;
#X connect 51 1 48 0;
#X connect 52 0 53 0;
#X connect 53 0 51 0;
#X connect 53 0 51 1;
#X connect 54 0 55 0;
#X connect 55 0 65 0;
#X connect 56 0 62 0;
#X connect 57 0 58 0;
#X connect 58 0 63 0;
#X connect 58 0 132 0;
#X connect 59 0 57 0;
#X connect 59 1 56 0;
#X connect 60 0 61 0;
#X connect 61 0 59 0;
#X connect 61 0 59 1;
#X connect 62 0 63 0;
#X connect 63 0 66 0;
#X connect 64 0 150 0;
#X connect 65 0 151 0;
#X connect 66 0 152 0;
#X connect 67 0 73 0;
#X connect 68 0 69 0;
#X connect 69 0 74 0;
#X connect 69 0 136 0;
#X connect 70 0 68 0;
#X connect 70 1 67 0;
#X connect 71 0 72 0;
#X connect 72 0 70 0;
#X connect 72 0 70 1;
#X connect 73 0 74 0;
#X connect 74 0 75 0;
#X connect 75 0 153 0;
#X connect 76 0 52 0;
#X connect 77 0 71 0;
#X connect 78 0 84 0;
#X connect 79 0 80 0;
#X connect 80 0 85 0;
#X connect 80 0 140 0;
#X connect 81 0 79 0;
#X connect 81 1 78 0;
#X connect 82 0 83 0;
#X connect 83 0 81 0;
#X connect 83 0 81 1;
#X connect 84 0 85 0;
#X connect 85 0 86 0;
#X connect 86 0 154 0;
#X connect 87 0 82 0;
#X connect 88 0 94 0;
#X connect 89 0 90 0;
#X connect 90 0 95 0;
#X connect 90 0 144 0;
#X connect 91 0 89 0;
#X connect 91 1 88 0;
#X connect 92 0 93 0;
#X connect 93 0 91 0;
#X connect 93 0 91 1;
#X connect 94 0 95 0;
#X connect 95 0 155 0;
#X connect 96 0 92 0;
#X connect 98 0 97 0;
#X connect 99 0 98 3;
#X connect 100 0 107 0;
#X connect 101 0 102 0;
#X connect 102 0 108 0;
#X connect 102 0 98 0;
#X connect 103 0 101 0;
#X connect 103 1 100 0;
#X connect 104 0 106 0;
#X connect 105 0 104 0;
#X connect 106 0 103 0;
#X connect 106 0 103 1;
#X connect 107 0 108 0;
#X connect 108 0 109 0;
#X connect 109 0 148 0;
#X connect 115 0 117 0;
#X connect 116 0 115 0;
#X connect 118 0 99 0;
#X connect 120 0 119 0;
#X connect 121 0 120 3;
#X connect 122 0 121 0;
#X connect 124 0 123 0;
#X connect 125 0 124 3;
#X connect 126 0 125 0;
#X connect 128 0 127 0;
#X connect 129 0 128 3;
#X connect 130 0 129 0;
#X connect 132 0 131 0;
#X connect 133 0 132 3;
#X connect 134 0 133 0;
#X connect 136 0 135 0;
#X connect 137 0 136 3;
#X connect 138 0 137 0;
#X connect 140 0 139 0;
#X connect 141 0 140 3;
#X connect 142 0 141 0;
#X connect 144 0 143 0;
#X connect 145 0 144 3;
#X connect 146 0 145 0;
#X connect 147 0 162 0;
#X connect 148 0 0 0;
#X connect 149 0 0 0;
#X connect 150 0 0 0;
#X connect 151 0 0 0;
#X connect 152 0 0 0;
#X connect 153 0 0 0;
#X connect 154 0 0 0;
#X connect 155 0 156 0;
#X connect 156 0 0 0;
#X connect 157 0 60 0;
#X connect 158 0 147 0;
#X connect 160 0 19 0;
#X connect 161 0 21 0;
#X connect 162 0 159 0;
#X connect 166 0 0 1;
#X connect 167 0 0 2;
#X connect 168 0 165 0;
#X connect 169 0 164 0;
