#N canvas 38 22 1264 752 10;
#X declare -lib mrpeach;
#X obj 615 489 makenote 80 500;
#X obj 1034 8 ctlout 1;
#X obj 1132 15 ctlout 2;
#X floatatom 1009 -13 5 0 0 0 - - -;
#X obj 1009 -35 -;
#X obj 1009 15 vsl 15 30 0 127 0 0 empty empty empty 0 -9 0 10 -33289
-262144 -1 1187 1;
#X obj 1116 -33 -;
#X floatatom 1142 -55 5 0 0 0 - - -;
#X obj 1107 19 vsl 15 30 0 127 0 0 empty empty empty 0 -9 0 10 -1 -262144
-1 0 1;
#X floatatom 1034 -58 5 0 0 0 - - -;
#X floatatom 1116 -9 5 0 0 0 - - -;
#X floatatom 295 231 5 0 0 0 - - -;
#X obj 254 232 bng 15 250 50 0 empty empty empty 17 7 0 10 -262144
-1 -1;
#X obj 254 253 t b;
#X obj 254 207 moses;
#X obj 254 159 average;
#X floatatom 254 185 5 0 0 0 - - -;
#X floatatom 255 305 5 0 0 0 - - -;
#X obj 254 135 r F7;
#X floatatom 438 227 5 0 0 0 - - -;
#X obj 397 228 bng 15 250 50 0 empty empty empty 17 7 0 10 -262144
-1 -1;
#X obj 397 249 t b;
#X obj 397 203 moses;
#X obj 397 155 average;
#X floatatom 397 181 5 0 0 0 - - -;
#X floatatom 398 301 5 0 0 0 - - -;
#X obj 397 131 r FC5;
#X floatatom 579 228 5 0 0 0 - - -;
#X obj 538 229 bng 15 250 50 0 empty empty empty 17 7 0 10 -262144
-1 -1;
#X obj 538 250 t b;
#X obj 538 204 moses;
#X obj 538 156 average;
#X floatatom 538 182 5 0 0 0 - - -;
#X obj 580 252 / 127;
#X floatatom 539 302 5 0 0 0 - - -;
#X floatatom 729 225 5 0 0 0 - - -;
#X obj 688 226 bng 15 250 50 0 empty empty empty 17 7 0 10 -262144
-1 -1;
#X obj 688 247 t b;
#X obj 688 201 moses;
#X obj 688 153 average;
#X floatatom 688 179 5 0 0 0 - - -;
#X obj 730 249 / 127;
#X floatatom 689 299 5 0 0 0 - - -;
#X floatatom 878 220 5 0 0 0 - - -;
#X obj 837 221 bng 15 250 50 0 empty empty empty 17 7 0 10 -262144
-1 -1;
#X obj 837 242 t b;
#X obj 837 196 moses;
#X obj 837 148 average;
#X floatatom 837 174 5 0 0 0 - - -;
#X obj 879 244 / 127;
#X floatatom 838 294 5 0 0 0 - - -;
#X obj 538 132 r F8;
#X obj 837 124 r T7;
#X floatatom 1030 218 5 0 0 0 - - -;
#X obj 989 219 bng 15 250 50 0 empty empty empty 17 7 0 10 -262144
-1 -1;
#X obj 989 240 t b;
#X obj 989 194 moses;
#X obj 989 146 average;
#X floatatom 989 172 5 0 0 0 - - -;
#X obj 1031 242 / 127;
#X floatatom 990 292 5 0 0 0 - - -;
#X obj 989 122 r T8;
#X floatatom 1183 216 5 0 0 0 - - -;
#X obj 1142 217 bng 15 250 50 0 empty empty empty 17 7 0 10 -262144
-1 -1;
#X obj 1142 238 t b;
#X obj 1142 192 moses;
#X obj 1142 144 average;
#X floatatom 1142 170 5 0 0 0 - - -;
#X obj 1184 240 / 127;
#X floatatom 1143 290 5 0 0 0 - - -;
#X obj 1142 120 r O1;
#X floatatom 50 292 5 0 0 0 - - -;
#X obj 50 268 counter;
#X obj 79 248 bng 15 250 50 0 empty empty empty 17 7 0 10 -262144 -1
-1;
#X floatatom 147 231 5 0 0 0 - - -;
#X obj 106 230 bng 15 250 50 0 empty empty empty 17 7 0 10 -262144
-1 -1;
#X obj 106 251 t b;
#X obj 106 205 moses;
#X obj 106 157 average;
#X obj 106 133 r AF3;
#X floatatom 106 183 5 0 0 0 - - -;
#X floatatom 107 303 5 0 0 0 - - -;
#X obj 964 -17 bng 15 250 50 0 empty empty empty 17 7 0 10 -262144
-1 -1;
#X msg 844 -18 reset time;
#X obj 916 -17 s time;
#X obj 56 225 r time;
#X floatatom 200 294 5 0 0 0 - - -;
#X obj 200 270 counter;
#X obj 229 250 bng 15 250 50 0 empty empty empty 17 7 0 10 -262144
-1 -1;
#X obj 206 227 r time;
#X floatatom 348 290 5 0 0 0 - - -;
#X obj 348 266 counter;
#X obj 377 246 bng 15 250 50 0 empty empty empty 17 7 0 10 -262144
-1 -1;
#X obj 354 223 r time;
#X floatatom 489 291 5 0 0 0 - - -;
#X obj 489 267 counter;
#X obj 518 247 bng 15 250 50 0 empty empty empty 17 7 0 10 -262144
-1 -1;
#X obj 495 224 r time;
#X floatatom 638 288 5 0 0 0 - - -;
#X obj 638 264 counter;
#X obj 667 244 bng 15 250 50 0 empty empty empty 17 7 0 10 -262144
-1 -1;
#X obj 644 221 r time;
#X floatatom 788 283 5 0 0 0 - - -;
#X obj 788 259 counter;
#X obj 817 239 bng 15 250 50 0 empty empty empty 17 7 0 10 -262144
-1 -1;
#X obj 794 216 r time;
#X floatatom 937 281 5 0 0 0 - - -;
#X obj 937 257 counter;
#X obj 966 239 bng 15 250 50 0 empty empty empty 17 7 0 10 -262144
-1 -1;
#X obj 943 214 r time;
#X floatatom 1093 279 5 0 0 0 - - -;
#X obj 1093 255 counter;
#X obj 1122 235 bng 15 250 50 0 empty empty empty 17 7 0 10 -262144
-1 -1;
#X obj 1099 212 r time;
#X obj 808 29 average;
#X floatatom 107 351 5 0 0 0 - - -;
#X floatatom 255 353 5 0 0 0 - - -;
#X floatatom 398 350 5 0 0 0 - - -;
#X floatatom 539 351 5 0 0 0 - - -;
#X floatatom 689 349 5 0 0 0 - - -;
#X floatatom 838 346 5 0 0 0 - - -;
#X floatatom 990 341 5 0 0 0 - - -;
#X floatatom 1143 344 5 0 0 0 - - -;
#X obj 688 129 r FC6;
#X obj 808 6 r AF3 F7 FC5 F8 FC6 T7 T8 O1;
#X obj 901 29 s avr;
#X obj 991 -59 r avr;
#X obj 1099 -56 r avr;
#X floatatom 862 29 5 0 0 0 - - -;
#X obj 213 -119 hsl 250 30 0 127 0 0 empty empty EEG_Frequency_to_midi_notes
2 14 0 15 -1 -1 -191407 0 1;
#X obj 1010 61 s ctl;
#X obj 1107 61 s ctl1;
#X obj 678 514 r ctl;
#X obj 717 514 r ctl1;
#X floatatom 214 19 5 0 0 0 - - -;
#X floatatom 258 20 5 0 0 0 - - -;
#X floatatom 170 19 5 0 0 0 - - -;
#X floatatom 126 20 5 0 0 0 - - -;
#X floatatom 390 20 5 0 0 0 - - -;
#X floatatom 435 21 5 0 0 0 - - -;
#X floatatom 346 20 5 0 0 0 - - -;
#X floatatom 302 19 5 0 0 0 - - -;
#X obj 171 41 s F7;
#X obj 126 42 s AF3;
#X obj 213 41 s FC5;
#X obj 259 41 s F8;
#X obj 302 42 s FC6;
#X obj 346 42 s T7;
#X obj 390 42 s T8;
#X obj 435 42 s O1;
#X obj 838 318 + 70;
#X obj 990 316 + 85;
#X obj 1143 316 + 90;
#X obj 81 350 s v;
#X obj 224 353 s v1;
#X obj 367 349 s v2;
#X obj 615 514 noteout 4;
#X obj 107 327 + 5;
#X obj 255 329 + 10;
#X obj 398 325 + 15;
#X obj 539 326 + 20;
#X obj 689 323 + 25;
#X obj 148 255 + 1;
#X obj 296 255 + 1;
#X obj 439 251 + 1;
#N canvas 190 91 1044 581 OSC 0;
#X obj 53 -4 unpackOSC;
#X text 62 -20 recibiendo datos;
#X obj 54 -57 import mrpeach;
#X obj 51 19 print unpacked;
#X obj 53 -34 udpreceive 8666;
#X obj 181 -53 routeOSC /potencial/AF3/crudo /potencial/F7/crudo /potencial/F3/crudo
/potencial/FC5/crudo /potencial/T7/crudo /potencial/P7/crudo /potencial/O1/crudo
/potencial/02/crudo /potencial/P8/crudo /potencial/T8/crudo /potencial/FC6/crudo
/potencial/F4/crudo /potencial/F8/crudo /potencial/AF4/crudo;
#X obj 180 36 outlet;
#X obj 206 60 outlet;
#X obj 232 82 outlet;
#X obj 257 108 outlet;
#X obj 282 134 outlet;
#X obj 308 158 outlet;
#X obj 335 186 outlet;
#X obj 361 216 outlet;
#X obj 385 242 outlet;
#X obj 410 267 outlet;
#X obj 435 292 outlet;
#X obj 459 317 outlet;
#X obj 484 344 outlet;
#X obj 509 368 outlet;
#X obj 566 64 outlet;
#X obj 588 87 outlet;
#X obj 614 109 outlet;
#X obj 639 135 outlet;
#X obj 664 161 outlet;
#X obj 690 185 outlet;
#X obj 717 213 outlet;
#X obj 743 243 outlet;
#X obj 767 269 outlet;
#X obj 792 294 outlet;
#X obj 817 319 outlet;
#X obj 841 344 outlet;
#X obj 866 371 outlet;
#X obj 889 396 outlet;
#X obj 566 -54 routeOSC /potencial/AF3/filtrado /potencial/F7/filtrado
/potencial/F3/filtrado /potencial/FC5/filtrado /potencial/T7/filtrado
/potencial/P7/filtrado /potencial/O1/filtrado /potencial/02/filtrado
/potencial/P8/filtrado /potencial/T8/filtrado /potencial/FC6/filtrado
/potencial/F4/filtrado /potencial/F8/filtradoo /potencial/AF4/filtrado
;
#X connect 0 0 5 0;
#X connect 0 0 34 0;
#X connect 4 0 0 0;
#X connect 5 0 6 0;
#X connect 5 1 7 0;
#X connect 5 2 8 0;
#X connect 5 3 9 0;
#X connect 5 4 10 0;
#X connect 5 5 11 0;
#X connect 5 6 12 0;
#X connect 5 7 13 0;
#X connect 5 8 14 0;
#X connect 5 9 15 0;
#X connect 5 10 16 0;
#X connect 5 11 17 0;
#X connect 5 12 18 0;
#X connect 5 13 19 0;
#X connect 34 0 20 0;
#X connect 34 1 21 0;
#X connect 34 2 22 0;
#X connect 34 3 23 0;
#X connect 34 4 24 0;
#X connect 34 5 25 0;
#X connect 34 6 26 0;
#X connect 34 7 27 0;
#X connect 34 8 28 0;
#X connect 34 9 29 0;
#X connect 34 10 30 0;
#X connect 34 11 31 0;
#X connect 34 12 32 0;
#X connect 34 13 33 0;
#X coords 0 581 1 580 300 85 0;
#X restore 210 -77 pd OSC 1 2 3 4 5 6 7 8 9 10 11 12 13 14 15 16 17
18 19 20 21 22 23 24 25 26 27 28;
#X connect 0 0 156 0;
#X connect 0 1 156 1;
#X connect 3 0 1 0;
#X connect 3 0 5 0;
#X connect 4 0 3 0;
#X connect 5 0 130 0;
#X connect 6 0 10 0;
#X connect 7 0 6 1;
#X connect 8 0 131 0;
#X connect 9 0 4 1;
#X connect 10 0 8 0;
#X connect 10 0 2 0;
#X connect 11 0 163 0;
#X connect 12 0 13 0;
#X connect 13 0 17 0;
#X connect 13 0 87 0;
#X connect 14 0 12 0;
#X connect 14 1 11 0;
#X connect 15 0 16 0;
#X connect 16 0 14 0;
#X connect 16 0 14 1;
#X connect 17 0 158 0;
#X connect 18 0 15 0;
#X connect 19 0 164 0;
#X connect 20 0 21 0;
#X connect 21 0 25 0;
#X connect 21 0 91 0;
#X connect 22 0 20 0;
#X connect 22 1 19 0;
#X connect 23 0 24 0;
#X connect 24 0 22 0;
#X connect 24 0 22 1;
#X connect 25 0 159 0;
#X connect 26 0 23 0;
#X connect 27 0 33 0;
#X connect 28 0 29 0;
#X connect 29 0 34 0;
#X connect 29 0 95 0;
#X connect 30 0 28 0;
#X connect 30 1 27 0;
#X connect 31 0 32 0;
#X connect 32 0 30 0;
#X connect 32 0 30 1;
#X connect 33 0 34 0;
#X connect 34 0 160 0;
#X connect 35 0 41 0;
#X connect 36 0 37 0;
#X connect 37 0 42 0;
#X connect 37 0 99 0;
#X connect 38 0 36 0;
#X connect 38 1 35 0;
#X connect 39 0 40 0;
#X connect 40 0 38 0;
#X connect 40 0 38 1;
#X connect 41 0 42 0;
#X connect 42 0 161 0;
#X connect 43 0 49 0;
#X connect 44 0 45 0;
#X connect 45 0 50 0;
#X connect 45 0 103 0;
#X connect 46 0 44 0;
#X connect 46 1 43 0;
#X connect 47 0 48 0;
#X connect 48 0 46 0;
#X connect 48 0 46 1;
#X connect 49 0 50 0;
#X connect 50 0 150 0;
#X connect 51 0 31 0;
#X connect 52 0 47 0;
#X connect 53 0 59 0;
#X connect 54 0 55 0;
#X connect 55 0 60 0;
#X connect 55 0 107 0;
#X connect 56 0 54 0;
#X connect 56 1 53 0;
#X connect 57 0 58 0;
#X connect 58 0 56 0;
#X connect 58 0 56 1;
#X connect 59 0 60 0;
#X connect 60 0 151 0;
#X connect 61 0 57 0;
#X connect 62 0 68 0;
#X connect 63 0 64 0;
#X connect 64 0 69 0;
#X connect 64 0 111 0;
#X connect 65 0 63 0;
#X connect 65 1 62 0;
#X connect 66 0 67 0;
#X connect 67 0 65 0;
#X connect 67 0 65 1;
#X connect 68 0 69 0;
#X connect 69 0 152 0;
#X connect 70 0 66 0;
#X connect 72 0 71 0;
#X connect 73 0 72 3;
#X connect 74 0 162 0;
#X connect 75 0 76 0;
#X connect 76 0 81 0;
#X connect 76 0 72 0;
#X connect 77 0 75 0;
#X connect 77 1 74 0;
#X connect 78 0 80 0;
#X connect 79 0 78 0;
#X connect 80 0 77 0;
#X connect 80 0 77 1;
#X connect 81 0 157 0;
#X connect 82 0 84 0;
#X connect 83 0 82 0;
#X connect 85 0 73 0;
#X connect 87 0 86 0;
#X connect 88 0 87 3;
#X connect 89 0 88 0;
#X connect 91 0 90 0;
#X connect 92 0 91 3;
#X connect 93 0 92 0;
#X connect 95 0 94 0;
#X connect 96 0 95 3;
#X connect 97 0 96 0;
#X connect 99 0 98 0;
#X connect 100 0 99 3;
#X connect 101 0 100 0;
#X connect 103 0 102 0;
#X connect 104 0 103 3;
#X connect 105 0 104 0;
#X connect 107 0 106 0;
#X connect 108 0 107 3;
#X connect 109 0 108 0;
#X connect 111 0 110 0;
#X connect 112 0 111 3;
#X connect 113 0 112 0;
#X connect 114 0 128 0;
#X connect 115 0 0 0;
#X connect 115 0 153 0;
#X connect 116 0 0 0;
#X connect 116 0 154 0;
#X connect 117 0 0 0;
#X connect 117 0 155 0;
#X connect 118 0 0 0;
#X connect 119 0 0 0;
#X connect 120 0 0 0;
#X connect 121 0 0 0;
#X connect 122 0 0 0;
#X connect 123 0 39 0;
#X connect 124 0 114 0;
#X connect 126 0 4 0;
#X connect 127 0 6 0;
#X connect 128 0 125 0;
#X connect 132 0 0 1;
#X connect 133 0 0 2;
#X connect 134 0 144 0;
#X connect 135 0 145 0;
#X connect 136 0 142 0;
#X connect 137 0 143 0;
#X connect 138 0 148 0;
#X connect 139 0 149 0;
#X connect 140 0 147 0;
#X connect 141 0 146 0;
#X connect 150 0 120 0;
#X connect 151 0 121 0;
#X connect 152 0 122 0;
#X connect 157 0 115 0;
#X connect 158 0 116 0;
#X connect 159 0 117 0;
#X connect 160 0 118 0;
#X connect 161 0 119 0;
#X connect 162 0 81 0;
#X connect 163 0 17 0;
#X connect 164 0 25 0;
#X connect 165 0 137 0;
#X connect 165 1 136 0;
#X connect 165 2 134 0;
#X connect 165 4 135 0;
#X connect 165 5 141 0;
#X connect 165 6 140 0;
#X connect 165 7 138 0;
#X connect 165 8 139 0;
