#N canvas -2 22 1280 490 10;
#X declare -lib mrpeach;
#X obj 912 166 ctlout 1;
#X floatatom 887 145 5 0 0 0 - - -;
#X obj 887 123 -;
#X obj 887 173 vsl 15 30 0 127 0 0 empty empty empty 0 -9 0 10 -33289
-262144 -1 0 1;
#X obj 896 273 -;
#X floatatom 922 251 5 0 0 0 - - -;
#X obj 887 325 vsl 15 30 0 127 0 0 empty empty empty 0 -9 0 10 -1 -262144
-1 0 1;
#X floatatom 912 100 5 0 0 0 - - -;
#X floatatom 896 297 5 0 0 0 - - -;
#X floatatom 252 203 5 0 0 0 - - -;
#X obj 211 204 bng 15 250 50 0 empty empty empty 17 7 0 10 -262144
-1 -1;
#X obj 211 225 t b;
#X obj 211 179 moses;
#X obj 211 131 average;
#X floatatom 211 157 5 0 0 0 - - -;
#X floatatom 212 277 5 0 0 0 - - -;
#X floatatom 444 199 5 0 0 0 - - -;
#X obj 403 200 bng 15 250 50 0 empty empty empty 17 7 0 10 -262144
-1 -1;
#X obj 403 221 t b;
#X obj 403 175 moses;
#X obj 403 127 average;
#X floatatom 403 153 5 0 0 0 - - -;
#X floatatom 404 273 5 0 0 0 - - -;
#X floatatom 633 200 5 0 0 0 - - -;
#X obj 592 201 bng 15 250 50 0 empty empty empty 17 7 0 10 -262144
-1 -1;
#X obj 592 222 t b;
#X obj 592 176 moses;
#X obj 592 128 average;
#X floatatom 592 154 5 0 0 0 - - -;
#X floatatom 593 274 5 0 0 0 - - -;
#X floatatom 819 197 5 0 0 0 - - -;
#X obj 778 198 bng 15 250 50 0 empty empty empty 17 7 0 10 -262144
-1 -1;
#X obj 778 219 t b;
#X obj 778 173 moses;
#X obj 778 125 average;
#X floatatom 778 151 5 0 0 0 - - -;
#X floatatom 779 271 5 0 0 0 - - -;
#X floatatom -30 267 5 0 0 0 - - -;
#X obj -30 243 counter;
#X obj -1 223 bng 15 250 50 0 empty empty empty 17 7 0 10 -262144 -1
-1;
#X floatatom 67 206 5 0 0 0 - - -;
#X obj 26 205 bng 15 250 50 0 empty empty empty 17 7 0 10 -262144 -1
-1;
#X obj 26 226 t b;
#X obj 26 180 moses;
#X obj 26 132 average;
#X floatatom 26 158 5 0 0 0 - - -;
#X floatatom 27 278 5 0 0 0 - - -;
#X obj 688 -17 bng 15 250 50 0 empty empty empty 17 7 0 10 -262144
-1 -1;
#X msg 568 -18 reset time;
#X obj 640 -17 s time;
#X obj -24 200 r time;
#X floatatom 157 266 5 0 0 0 - - -;
#X obj 157 242 counter;
#X obj 186 222 bng 15 250 50 0 empty empty empty 17 7 0 10 -262144
-1 -1;
#X obj 163 199 r time;
#X floatatom 354 262 5 0 0 0 - - -;
#X obj 354 238 counter;
#X obj 383 218 bng 15 250 50 0 empty empty empty 17 7 0 10 -262144
-1 -1;
#X obj 360 195 r time;
#X floatatom 543 263 5 0 0 0 - - -;
#X obj 543 239 counter;
#X obj 572 219 bng 15 250 50 0 empty empty empty 17 7 0 10 -262144
-1 -1;
#X obj 549 196 r time;
#X floatatom 728 260 5 0 0 0 - - -;
#X obj 728 236 counter;
#X obj 757 216 bng 15 250 50 0 empty empty empty 17 7 0 10 -262144
-1 -1;
#X obj 734 193 r time;
#X obj 532 29 average;
#X floatatom 27 326 5 0 0 0 - - -;
#X floatatom 212 325 5 0 0 0 - - -;
#X floatatom 404 322 5 0 0 0 - - -;
#X floatatom 593 323 5 0 0 0 - - -;
#X floatatom 779 321 5 0 0 0 - - -;
#X obj 532 6 r AF3 F7 FC5 F8 FC6 T7 T8 O1;
#X obj 625 29 s avr;
#X obj 869 99 r avr;
#X obj 879 250 r avr;
#X floatatom 586 29 5 0 0 0 - - -;
#X obj 27 302 + 5;
#X obj 212 301 + 10;
#X obj 404 297 + 15;
#X obj 593 298 + 20;
#X obj 779 295 + 25;
#X obj 90 -20 vsl 30 40 0 1023 0 0 empty empty empty 0 -9 0 10 -1 -262144
-1 800 1;
#X floatatom 90 23 5 0 0 0 - - -;
#X obj 139 -21 vsl 30 40 0 1023 0 0 empty empty empty 0 -9 0 10 -1
-262144 -1 300 1;
#X obj 190 -21 vsl 30 40 1 1023 0 0 empty empty empty 0 -9 0 10 -1
-262144 -1 900 1;
#X floatatom 190 23 5 0 0 0 - - -;
#X obj 241 -21 vsl 30 40 1 1023 0 0 empty empty empty 0 -9 0 10 -1
-262144 -1 0 1;
#X floatatom 241 23 5 0 0 0 - - -;
#X floatatom 139 23 5 0 0 0 - - -;
#X obj 427 -15 udpreceive 8001;
#X obj 462 7 unpackOSC;
#X obj 432 29 print unpacked;
#X obj 434 -49 import mrpeach;
#X text 426 -32 recibiendo datos;
#X obj 291 -21 vsl 30 40 1 1023 0 0 empty empty empty 0 -9 0 10 -1
-262144 -1 0 1;
#X floatatom 290 23 5 0 0 0 - - -;
#X obj 343 -21 vsl 30 40 1 1023 0 0 empty empty empty 0 -9 0 10 -1
-262144 -1 0 1;
#X floatatom 343 23 5 0 0 0 - - -;
#X obj 389 -21 vsl 30 40 1 1023 0 0 empty empty empty 0 -9 0 10 -1
-262144 -1 0 1;
#X floatatom 389 23 5 0 0 0 - - -;
#X obj 90 39 s datos1;
#X obj 148 39 s datos2;
#X obj 207 39 s datos3;
#X obj 74 -53 routeOSC /osc0/filtrado /osc0/min /osc1/filtrado /osc1/min
/osc2/filtrado /osc2/min;
#X obj 262 39 s datos4;
#X obj 318 39 s datos5;
#X obj 375 39 s datos6;
#X obj -31 352 makenote;
#X obj -31 377 noteout 1;
#X floatatom 27 352 5 0 0 0 - - -;
#X floatatom 65 352 5 0 0 0 - - -;
#X obj 154 348 makenote;
#X floatatom 212 348 5 0 0 0 - - -;
#X floatatom 250 348 5 0 0 0 - - -;
#X obj 154 373 noteout 2;
#X obj 346 346 makenote;
#X floatatom 404 346 5 0 0 0 - - -;
#X floatatom 442 346 5 0 0 0 - - -;
#X obj 538 348 makenote;
#X floatatom 596 348 5 0 0 0 - - -;
#X floatatom 634 348 5 0 0 0 - - -;
#X obj 538 373 noteout 4;
#X obj 346 371 noteout 3;
#X obj 722 348 makenote;
#X floatatom 780 348 5 0 0 0 - - -;
#X floatatom 818 348 5 0 0 0 - - -;
#X obj 722 373 noteout 5;
#X floatatom 977 141 5 0 0 0 - - -;
#X obj 977 119 -;
#X obj 977 169 vsl 15 30 0 127 0 0 empty empty empty 0 -9 0 10 -33289
-262144 -1 0 1;
#X obj 986 269 -;
#X floatatom 1012 247 5 0 0 0 - - -;
#X obj 977 321 vsl 15 30 0 127 0 0 empty empty empty 0 -9 0 10 -1 -262144
-1 0 1;
#X floatatom 1002 96 5 0 0 0 - - -;
#X floatatom 986 293 5 0 0 0 - - -;
#X obj 959 95 r avr;
#X obj 969 246 r avr;
#X floatatom 1071 139 5 0 0 0 - - -;
#X obj 1071 117 -;
#X obj 1071 167 vsl 15 30 0 127 0 0 empty empty empty 0 -9 0 10 -33289
-262144 -1 0 1;
#X obj 1075 265 -;
#X floatatom 1101 243 5 0 0 0 - - -;
#X obj 1066 317 vsl 15 30 0 127 0 0 empty empty empty 0 -9 0 10 -1
-262144 -1 0 1;
#X floatatom 1096 94 5 0 0 0 - - -;
#X floatatom 1075 289 5 0 0 0 - - -;
#X obj 1053 93 r avr;
#X obj 1058 242 r avr;
#X obj 1002 162 ctlout 2;
#X obj 1096 160 ctlout 3;
#X obj 912 321 ctlout 4;
#X obj 1002 317 ctlout 5;
#X obj 1091 313 ctlout 2;
#X obj 888 219 s ctl1;
#X obj 978 215 s ctl2;
#X obj 1072 213 s ctl3;
#X obj 887 367 s ctl4;
#X obj 977 363 s ctl5;
#X obj 1065 360 s ctl6;
#X obj -44 42 hradio 20 1 0 6 empty empty empty 0 -8 0 10 -262144 -1
-1 3;
#X obj 26 108 r datosP1;
#X obj 211 107 r datosP2;
#X obj 403 103 r datosP3;
#X text -44 25 127;
#X text -21 25 63;
#X text -2 25 31;
#X text 20 25 15;
#X text 43 25 7;
#X text 62 25 3;
#N canvas 70 200 450 300 on/off 0;
#X obj 40 76 route 0 1 2 3 4 5;
#X obj 40 43 inlet;
#X obj 41 106 outlet;
#X obj 51 113 outlet;
#X obj 64 115 outlet;
#X obj 81 121 outlet;
#X obj 95 130 outlet;
#X obj 111 138 outlet;
#X obj 126 145 outlet;
#X connect 0 0 2 0;
#X connect 0 1 3 0;
#X connect 0 2 4 0;
#X connect 0 3 5 0;
#X connect 0 4 6 0;
#X connect 0 5 7 0;
#X connect 0 6 8 0;
#X connect 1 0 0 0;
#X restore -44 63 pd on/off;
#X obj -44 80 tgl 12 0 empty empty empty 8 -8 0 10 -262144 -1 -1 1
1;
#X obj -22 80 tgl 12 0 empty empty empty 8 -8 0 10 -262144 -1 -1 0
1;
#X obj 0 80 tgl 12 0 empty empty empty 8 -8 0 10 -262144 -1 -1 0 1
;
#X obj 23 80 tgl 12 0 empty empty empty 8 -8 0 10 -262144 -1 -1 1 1
;
#X obj 45 80 tgl 12 0 empty empty empty 8 -8 0 10 -262144 -1 -1 0 1
;
#X obj 64 80 tgl 12 0 empty empty empty 8 -8 0 10 -262144 -1 -1 0 1
;
#N canvas 7 425 837 349 shifterAll 1;
#X obj -13 -28 inlet;
#X obj 9 32 tgl 15 0 empty empty empty 17 7 0 10 -262144 -1 -1 0 1
;
#X obj 31 32 tgl 15 0 empty empty empty 17 7 0 10 -262144 -1 -1 0 1
;
#X obj 55 32 tgl 15 0 empty empty empty 17 7 0 10 -262144 -1 -1 1 1
;
#X obj 77 32 tgl 15 0 empty empty empty 17 7 0 10 -262144 -1 -1 0 1
;
#X obj 100 32 tgl 15 0 empty empty empty 17 7 0 10 -262144 -1 -1 0
1;
#X msg -23 55 127;
#X obj -288 242 /;
#X obj -343 290 r datos1;
#X floatatom -288 264 5 0 0 0 - - -;
#X obj -288 288 s datosP1;
#X msg 8 55 63.5;
#X msg 46 55 31.5;
#X msg 81 53 15.5;
#X msg 121 53 7.5;
#X msg 156 54 3.5;
#X obj -12 -3 route 0 1 2 3 4 5;
#X obj -11 32 tgl 15 0 empty empty empty 17 7 0 10 -262144 -1 -1 1
1;
#X obj -134 242 /;
#X floatatom -134 264 5 0 0 0 - - -;
#X obj -188 288 r datos2;
#X obj -134 288 s datosP2;
#X obj 4 240 /;
#X floatatom 4 262 5 0 0 0 - - -;
#X obj -50 286 r datos3;
#X obj 4 286 s datosP3;
#X obj 140 239 /;
#X floatatom 140 261 5 0 0 0 - - -;
#X obj 86 285 r datos4;
#X obj 140 285 s datosP4;
#X obj 271 238 /;
#X floatatom 271 260 5 0 0 0 - - -;
#X obj 217 284 r datos5;
#X obj 271 284 s datosP5;
#X obj 407 237 /;
#X floatatom 407 259 5 0 0 0 - - -;
#X obj 353 283 r datos6;
#X obj 407 283 s datosP6;
#X connect 0 0 16 0;
#X connect 1 0 11 0;
#X connect 2 0 12 0;
#X connect 3 0 13 0;
#X connect 4 0 14 0;
#X connect 5 0 15 0;
#X connect 6 0 7 1;
#X connect 6 0 18 1;
#X connect 6 0 22 1;
#X connect 6 0 26 1;
#X connect 6 0 30 1;
#X connect 6 0 34 1;
#X connect 7 0 9 0;
#X connect 8 0 7 0;
#X connect 9 0 10 0;
#X connect 11 0 7 1;
#X connect 11 0 18 1;
#X connect 11 0 22 1;
#X connect 11 0 26 1;
#X connect 11 0 30 1;
#X connect 11 0 34 1;
#X connect 12 0 7 1;
#X connect 12 0 18 1;
#X connect 12 0 22 1;
#X connect 12 0 26 1;
#X connect 12 0 30 1;
#X connect 12 0 34 1;
#X connect 13 0 7 1;
#X connect 13 0 18 1;
#X connect 13 0 22 1;
#X connect 13 0 26 1;
#X connect 13 0 30 1;
#X connect 13 0 34 1;
#X connect 14 0 7 1;
#X connect 14 0 18 1;
#X connect 14 0 22 1;
#X connect 14 0 26 1;
#X connect 14 0 30 1;
#X connect 14 0 34 1;
#X connect 15 0 7 1;
#X connect 15 0 18 1;
#X connect 15 0 22 1;
#X connect 15 0 26 1;
#X connect 15 0 30 1;
#X connect 15 0 34 1;
#X connect 16 0 17 0;
#X connect 16 1 1 0;
#X connect 16 2 2 0;
#X connect 16 3 3 0;
#X connect 16 4 4 0;
#X connect 16 5 5 0;
#X connect 17 0 6 0;
#X connect 18 0 19 0;
#X connect 19 0 21 0;
#X connect 20 0 18 0;
#X connect 22 0 23 0;
#X connect 23 0 25 0;
#X connect 24 0 22 0;
#X connect 26 0 27 0;
#X connect 27 0 29 0;
#X connect 28 0 26 0;
#X connect 30 0 31 0;
#X connect 31 0 33 0;
#X connect 32 0 30 0;
#X connect 34 0 35 0;
#X connect 35 0 37 0;
#X connect 36 0 34 0;
#X restore 89 62 pd shifterAll;
#X obj 10 108 vradio 10 1 0 6 empty empty empty 0 -8 0 10 -262144 -1
-1 1;
#N canvas 25 187 1021 549 shifter1 0;
#X obj -304 -20 inlet;
#X obj -282 40 tgl 15 0 empty empty empty 17 7 0 10 -262144 -1 -1 1
1;
#X obj -260 40 tgl 15 0 empty empty empty 17 7 0 10 -262144 -1 -1 0
1;
#X obj -236 40 tgl 15 0 empty empty empty 17 7 0 10 -262144 -1 -1 0
1;
#X obj -214 40 tgl 15 0 empty empty empty 17 7 0 10 -262144 -1 -1 1
1;
#X obj -191 40 tgl 15 0 empty empty empty 17 7 0 10 -262144 -1 -1 0
1;
#X msg -314 63 127;
#X obj -239 150 /;
#X obj -294 198 r datos1;
#X floatatom -239 172 5 0 0 0 - - -;
#X obj -239 198 s datosP1;
#X msg -283 63 63.5;
#X msg -245 63 31.5;
#X msg -210 61 15.5;
#X msg -170 61 7.5;
#X msg -135 62 3.5;
#X obj -303 5 route 0 1 2 3 4 5;
#X obj -302 40 tgl 15 0 empty empty empty 17 7 0 10 -262144 -1 -1 0
1;
#X connect 0 0 16 0;
#X connect 1 0 11 0;
#X connect 2 0 12 0;
#X connect 3 0 13 0;
#X connect 4 0 14 0;
#X connect 5 0 15 0;
#X connect 6 0 7 1;
#X connect 7 0 9 0;
#X connect 8 0 7 0;
#X connect 9 0 10 0;
#X connect 11 0 7 1;
#X connect 12 0 7 1;
#X connect 13 0 7 1;
#X connect 14 0 7 1;
#X connect 15 0 7 1;
#X connect 16 0 17 0;
#X connect 16 1 1 0;
#X connect 16 2 2 0;
#X connect 16 3 3 0;
#X connect 16 4 4 0;
#X connect 16 5 5 0;
#X connect 17 0 6 0;
#X restore -52 175 pd shifter1;
#X obj -2 108 tgl 10 0 empty empty empty 8 -8 0 10 -262144 -1 -1 0
1;
#X obj -2 118 tgl 10 0 empty empty empty 8 -8 0 10 -262144 -1 -1 1
1;
#X obj -2 129 tgl 10 0 empty empty empty 8 -8 0 10 -262144 -1 -1 0
1;
#X obj -2 140 tgl 10 0 empty empty empty 8 -8 0 10 -262144 -1 -1 0
1;
#X obj -2 149 tgl 10 0 empty empty empty 8 -8 0 10 -262144 -1 -1 0
1;
#X obj -2 159 tgl 10 0 empty empty empty 8 -8 0 10 -262144 -1 -1 0
1;
#N canvas 70 200 450 300 on/off1 0;
#X obj 40 76 route 0 1 2 3 4 5;
#X obj 40 43 inlet;
#X obj 41 106 outlet;
#X obj 51 113 outlet;
#X obj 64 115 outlet;
#X obj 81 121 outlet;
#X obj 95 130 outlet;
#X obj 111 138 outlet;
#X obj 126 145 outlet;
#X connect 0 0 2 0;
#X connect 0 1 3 0;
#X connect 0 2 4 0;
#X connect 0 3 5 0;
#X connect 0 4 6 0;
#X connect 0 5 7 0;
#X connect 0 6 8 0;
#X connect 1 0 0 0;
#X restore -118 175 pd on/off1;
#X obj 197 106 vradio 10 1 0 6 empty empty empty 0 -8 0 10 -262144
-1 -1 4;
#X obj 185 106 tgl 10 0 empty empty empty 8 -8 0 10 -262144 -1 -1 0
1;
#X obj 185 116 tgl 10 0 empty empty empty 8 -8 0 10 -262144 -1 -1 0
1;
#X obj 185 127 tgl 10 0 empty empty empty 8 -8 0 10 -262144 -1 -1 0
1;
#X obj 185 138 tgl 10 0 empty empty empty 8 -8 0 10 -262144 -1 -1 0
1;
#X obj 185 147 tgl 10 0 empty empty empty 8 -8 0 10 -262144 -1 -1 1
1;
#X obj 185 157 tgl 10 0 empty empty empty 8 -8 0 10 -262144 -1 -1 0
1;
#X obj 387 103 vradio 10 1 0 6 empty empty empty 0 -8 0 10 -262144
-1 -1 0;
#X obj 375 103 tgl 10 0 empty empty empty 8 -8 0 10 -262144 -1 -1 0
1;
#X obj 375 113 tgl 10 0 empty empty empty 8 -8 0 10 -262144 -1 -1 1
1;
#X obj 375 124 tgl 10 0 empty empty empty 8 -8 0 10 -262144 -1 -1 0
1;
#X obj 375 135 tgl 10 0 empty empty empty 8 -8 0 10 -262144 -1 -1 0
1;
#X obj 375 144 tgl 10 0 empty empty empty 8 -8 0 10 -262144 -1 -1 0
1;
#X obj 375 154 tgl 10 0 empty empty empty 8 -8 0 10 -262144 -1 -1 0
1;
#X obj 579 104 vradio 10 1 0 6 empty empty empty 0 -8 0 10 -262144
-1 -1 3;
#X obj 567 104 tgl 10 0 empty empty empty 8 -8 0 10 -262144 -1 -1 0
1;
#X obj 567 114 tgl 10 0 empty empty empty 8 -8 0 10 -262144 -1 -1 0
1;
#X obj 567 125 tgl 10 0 empty empty empty 8 -8 0 10 -262144 -1 -1 0
1;
#X obj 567 136 tgl 10 0 empty empty empty 8 -8 0 10 -262144 -1 -1 1
1;
#X obj 567 145 tgl 10 0 empty empty empty 8 -8 0 10 -262144 -1 -1 0
1;
#X obj 567 155 tgl 10 0 empty empty empty 8 -8 0 10 -262144 -1 -1 0
1;
#N canvas 70 200 450 300 on/off2 0;
#X obj 40 76 route 0 1 2 3 4 5;
#X obj 40 43 inlet;
#X obj 41 106 outlet;
#X obj 51 113 outlet;
#X obj 64 115 outlet;
#X obj 81 121 outlet;
#X obj 95 130 outlet;
#X obj 111 138 outlet;
#X obj 126 145 outlet;
#X connect 0 0 2 0;
#X connect 0 1 3 0;
#X connect 0 2 4 0;
#X connect 0 3 5 0;
#X connect 0 4 6 0;
#X connect 0 5 7 0;
#X connect 0 6 8 0;
#X connect 1 0 0 0;
#X restore 69 173 pd on/off2;
#N canvas 25 187 1021 549 shifter2 0;
#X obj -304 -20 inlet;
#X obj -282 40 tgl 15 0 empty empty empty 17 7 0 10 -262144 -1 -1 0
1;
#X obj -260 40 tgl 15 0 empty empty empty 17 7 0 10 -262144 -1 -1 0
1;
#X obj -236 40 tgl 15 0 empty empty empty 17 7 0 10 -262144 -1 -1 0
1;
#X obj -214 40 tgl 15 0 empty empty empty 17 7 0 10 -262144 -1 -1 1
1;
#X obj -191 40 tgl 15 0 empty empty empty 17 7 0 10 -262144 -1 -1 0
1;
#X msg -314 63 127;
#X obj -239 150 /;
#X floatatom -239 172 5 0 0 0 - - -;
#X msg -283 63 63.5;
#X msg -245 63 31.5;
#X msg -210 61 15.5;
#X msg -170 61 7.5;
#X msg -135 62 3.5;
#X obj -303 5 route 0 1 2 3 4 5;
#X obj -302 40 tgl 15 0 empty empty empty 17 7 0 10 -262144 -1 -1 0
1;
#X obj -294 198 r datos2;
#X obj -239 198 s datosP2;
#X connect 0 0 14 0;
#X connect 1 0 9 0;
#X connect 2 0 10 0;
#X connect 3 0 11 0;
#X connect 4 0 12 0;
#X connect 5 0 13 0;
#X connect 6 0 7 1;
#X connect 7 0 8 0;
#X connect 8 0 17 0;
#X connect 9 0 7 1;
#X connect 10 0 7 1;
#X connect 11 0 7 1;
#X connect 12 0 7 1;
#X connect 13 0 7 1;
#X connect 14 0 15 0;
#X connect 14 1 1 0;
#X connect 14 2 2 0;
#X connect 14 3 3 0;
#X connect 14 4 4 0;
#X connect 14 5 5 0;
#X connect 15 0 6 0;
#X connect 16 0 7 0;
#X restore 135 173 pd shifter2;
#N canvas 70 200 450 300 on/off3 0;
#X obj 40 76 route 0 1 2 3 4 5;
#X obj 40 43 inlet;
#X obj 41 106 outlet;
#X obj 51 113 outlet;
#X obj 64 115 outlet;
#X obj 81 121 outlet;
#X obj 95 130 outlet;
#X obj 111 138 outlet;
#X obj 126 145 outlet;
#X connect 0 0 2 0;
#X connect 0 1 3 0;
#X connect 0 2 4 0;
#X connect 0 3 5 0;
#X connect 0 4 6 0;
#X connect 0 5 7 0;
#X connect 0 6 8 0;
#X connect 1 0 0 0;
#X restore 259 170 pd on/off3;
#N canvas 25 187 1021 549 shifter3 0;
#X obj -304 -20 inlet;
#X obj -282 40 tgl 15 0 empty empty empty 17 7 0 10 -262144 -1 -1 1
1;
#X obj -260 40 tgl 15 0 empty empty empty 17 7 0 10 -262144 -1 -1 0
1;
#X obj -236 40 tgl 15 0 empty empty empty 17 7 0 10 -262144 -1 -1 0
1;
#X obj -214 40 tgl 15 0 empty empty empty 17 7 0 10 -262144 -1 -1 0
1;
#X obj -191 40 tgl 15 0 empty empty empty 17 7 0 10 -262144 -1 -1 0
1;
#X msg -314 63 127;
#X obj -239 150 /;
#X floatatom -239 172 5 0 0 0 - - -;
#X msg -283 63 63.5;
#X msg -245 63 31.5;
#X msg -210 61 15.5;
#X msg -170 61 7.5;
#X msg -135 62 3.5;
#X obj -303 5 route 0 1 2 3 4 5;
#X obj -302 40 tgl 15 0 empty empty empty 17 7 0 10 -262144 -1 -1 0
1;
#X obj -294 198 r datos3;
#X obj -239 198 s datosP3;
#X connect 0 0 14 0;
#X connect 1 0 9 0;
#X connect 2 0 10 0;
#X connect 3 0 11 0;
#X connect 4 0 12 0;
#X connect 5 0 13 0;
#X connect 6 0 7 1;
#X connect 7 0 8 0;
#X connect 8 0 17 0;
#X connect 9 0 7 1;
#X connect 10 0 7 1;
#X connect 11 0 7 1;
#X connect 12 0 7 1;
#X connect 13 0 7 1;
#X connect 14 0 15 0;
#X connect 14 1 1 0;
#X connect 14 2 2 0;
#X connect 14 3 3 0;
#X connect 14 4 4 0;
#X connect 14 5 5 0;
#X connect 15 0 6 0;
#X connect 16 0 7 0;
#X restore 325 170 pd shifter3;
#N canvas 70 200 450 300 on/off4 0;
#X obj 40 76 route 0 1 2 3 4 5;
#X obj 40 43 inlet;
#X obj 41 106 outlet;
#X obj 51 113 outlet;
#X obj 64 115 outlet;
#X obj 81 121 outlet;
#X obj 95 130 outlet;
#X obj 111 138 outlet;
#X obj 126 145 outlet;
#X connect 0 0 2 0;
#X connect 0 1 3 0;
#X connect 0 2 4 0;
#X connect 0 3 5 0;
#X connect 0 4 6 0;
#X connect 0 5 7 0;
#X connect 0 6 8 0;
#X connect 1 0 0 0;
#X restore 451 171 pd on/off4;
#N canvas 25 187 1021 549 shifter4 0;
#X obj -304 -20 inlet;
#X obj -282 40 tgl 15 0 empty empty empty 17 7 0 10 -262144 -1 -1 0
1;
#X obj -260 40 tgl 15 0 empty empty empty 17 7 0 10 -262144 -1 -1 0
1;
#X obj -236 40 tgl 15 0 empty empty empty 17 7 0 10 -262144 -1 -1 1
1;
#X obj -214 40 tgl 15 0 empty empty empty 17 7 0 10 -262144 -1 -1 0
1;
#X obj -191 40 tgl 15 0 empty empty empty 17 7 0 10 -262144 -1 -1 0
1;
#X msg -314 63 127;
#X obj -239 150 /;
#X floatatom -239 172 5 0 0 0 - - -;
#X msg -283 63 63.5;
#X msg -245 63 31.5;
#X msg -210 61 15.5;
#X msg -170 61 7.5;
#X msg -135 62 3.5;
#X obj -303 5 route 0 1 2 3 4 5;
#X obj -302 40 tgl 15 0 empty empty empty 17 7 0 10 -262144 -1 -1 0
1;
#X obj -239 198 s datosP4;
#X obj -294 198 r datos4;
#X connect 0 0 14 0;
#X connect 1 0 9 0;
#X connect 2 0 10 0;
#X connect 3 0 11 0;
#X connect 4 0 12 0;
#X connect 5 0 13 0;
#X connect 6 0 7 1;
#X connect 7 0 8 0;
#X connect 8 0 16 0;
#X connect 9 0 7 1;
#X connect 10 0 7 1;
#X connect 11 0 7 1;
#X connect 12 0 7 1;
#X connect 13 0 7 1;
#X connect 14 0 15 0;
#X connect 14 1 1 0;
#X connect 14 2 2 0;
#X connect 14 3 3 0;
#X connect 14 4 4 0;
#X connect 14 5 5 0;
#X connect 15 0 6 0;
#X connect 17 0 7 0;
#X restore 517 171 pd shifter4;
#X obj 592 104 r datosP4;
#X obj 778 101 r datosP5;
#X obj 765 101 vradio 10 1 0 6 empty empty empty 0 -8 0 10 -262144
-1 -1 0;
#X obj 753 101 tgl 10 0 empty empty empty 8 -8 0 10 -262144 -1 -1 0
1;
#X obj 753 111 tgl 10 0 empty empty empty 8 -8 0 10 -262144 -1 -1 0
1;
#X obj 753 122 tgl 10 0 empty empty empty 8 -8 0 10 -262144 -1 -1 0
1;
#X obj 753 133 tgl 10 0 empty empty empty 8 -8 0 10 -262144 -1 -1 0
1;
#X obj 753 142 tgl 10 0 empty empty empty 8 -8 0 10 -262144 -1 -1 0
1;
#X obj 753 152 tgl 10 0 empty empty empty 8 -8 0 10 -262144 -1 -1 0
1;
#N canvas 25 187 1021 549 shifter5 0;
#X obj -304 -20 inlet;
#X obj -282 40 tgl 15 0 empty empty empty 17 7 0 10 -262144 -1 -1 0
1;
#X obj -260 40 tgl 15 0 empty empty empty 17 7 0 10 -262144 -1 -1 0
1;
#X obj -236 40 tgl 15 0 empty empty empty 17 7 0 10 -262144 -1 -1 0
1;
#X obj -214 40 tgl 15 0 empty empty empty 17 7 0 10 -262144 -1 -1 0
1;
#X obj -191 40 tgl 15 0 empty empty empty 17 7 0 10 -262144 -1 -1 0
1;
#X msg -314 63 127;
#X obj -239 150 /;
#X floatatom -239 172 5 0 0 0 - - -;
#X msg -283 63 63.5;
#X msg -245 63 31.5;
#X msg -210 61 15.5;
#X msg -170 61 7.5;
#X msg -135 62 3.5;
#X obj -303 5 route 0 1 2 3 4 5;
#X obj -302 40 tgl 15 0 empty empty empty 17 7 0 10 -262144 -1 -1 0
1;
#X obj -294 198 r datos5;
#X obj -239 198 s datosP5;
#X connect 0 0 14 0;
#X connect 1 0 9 0;
#X connect 2 0 10 0;
#X connect 3 0 11 0;
#X connect 4 0 12 0;
#X connect 5 0 13 0;
#X connect 6 0 7 1;
#X connect 7 0 8 0;
#X connect 8 0 17 0;
#X connect 9 0 7 1;
#X connect 10 0 7 1;
#X connect 11 0 7 1;
#X connect 12 0 7 1;
#X connect 13 0 7 1;
#X connect 14 0 15 0;
#X connect 14 1 1 0;
#X connect 14 2 2 0;
#X connect 14 3 3 0;
#X connect 14 4 4 0;
#X connect 14 5 5 0;
#X connect 15 0 6 0;
#X connect 16 0 7 0;
#X restore 703 168 pd shifter5;
#N canvas 70 200 450 300 on/off5 0;
#X obj 40 76 route 0 1 2 3 4 5;
#X obj 40 43 inlet;
#X obj 41 106 outlet;
#X obj 51 113 outlet;
#X obj 64 115 outlet;
#X obj 81 121 outlet;
#X obj 95 130 outlet;
#X obj 111 138 outlet;
#X obj 126 145 outlet;
#X connect 0 0 2 0;
#X connect 0 1 3 0;
#X connect 0 2 4 0;
#X connect 0 3 5 0;
#X connect 0 4 6 0;
#X connect 0 5 7 0;
#X connect 0 6 8 0;
#X connect 1 0 0 0;
#X restore 637 168 pd on/off5;
#X connect 1 0 0 0;
#X connect 1 0 3 0;
#X connect 2 0 1 0;
#X connect 3 0 154 0;
#X connect 4 0 8 0;
#X connect 5 0 4 1;
#X connect 6 0 157 0;
#X connect 7 0 2 1;
#X connect 8 0 6 0;
#X connect 8 0 151 0;
#X connect 9 0 15 0;
#X connect 10 0 11 0;
#X connect 11 0 15 0;
#X connect 11 0 52 0;
#X connect 12 0 10 0;
#X connect 12 1 9 0;
#X connect 13 0 14 0;
#X connect 14 0 12 0;
#X connect 14 0 12 1;
#X connect 15 0 79 0;
#X connect 16 0 22 0;
#X connect 17 0 18 0;
#X connect 18 0 22 0;
#X connect 18 0 56 0;
#X connect 19 0 17 0;
#X connect 19 1 16 0;
#X connect 20 0 21 0;
#X connect 21 0 19 0;
#X connect 21 0 19 1;
#X connect 22 0 80 0;
#X connect 23 0 29 0;
#X connect 24 0 25 0;
#X connect 25 0 29 0;
#X connect 25 0 60 0;
#X connect 26 0 24 0;
#X connect 26 1 23 0;
#X connect 27 0 28 0;
#X connect 28 0 26 0;
#X connect 28 0 26 1;
#X connect 29 0 81 0;
#X connect 30 0 36 0;
#X connect 31 0 32 0;
#X connect 32 0 36 0;
#X connect 32 0 64 0;
#X connect 33 0 31 0;
#X connect 33 1 30 0;
#X connect 34 0 35 0;
#X connect 35 0 33 0;
#X connect 35 0 33 1;
#X connect 36 0 82 0;
#X connect 38 0 37 0;
#X connect 39 0 38 3;
#X connect 40 0 46 0;
#X connect 41 0 42 0;
#X connect 42 0 46 0;
#X connect 42 0 38 0;
#X connect 43 0 41 0;
#X connect 43 1 40 0;
#X connect 44 0 45 0;
#X connect 45 0 43 0;
#X connect 45 0 43 1;
#X connect 46 0 78 0;
#X connect 47 0 49 0;
#X connect 48 0 47 0;
#X connect 50 0 39 0;
#X connect 52 0 51 0;
#X connect 53 0 52 3;
#X connect 54 0 53 0;
#X connect 56 0 55 0;
#X connect 57 0 56 3;
#X connect 58 0 57 0;
#X connect 60 0 59 0;
#X connect 61 0 60 3;
#X connect 62 0 61 0;
#X connect 64 0 63 0;
#X connect 65 0 64 3;
#X connect 66 0 65 0;
#X connect 67 0 77 0;
#X connect 68 0 109 0;
#X connect 69 0 113 0;
#X connect 70 0 117 0;
#X connect 71 0 120 0;
#X connect 72 0 125 0;
#X connect 73 0 67 0;
#X connect 75 0 2 0;
#X connect 76 0 4 0;
#X connect 77 0 74 0;
#X connect 78 0 68 0;
#X connect 79 0 69 0;
#X connect 80 0 70 0;
#X connect 81 0 71 0;
#X connect 82 0 72 0;
#X connect 83 0 84 0;
#X connect 84 0 102 0;
#X connect 85 0 90 0;
#X connect 86 0 87 0;
#X connect 87 0 104 0;
#X connect 88 0 89 0;
#X connect 89 0 106 0;
#X connect 90 0 103 0;
#X connect 91 0 92 0;
#X connect 92 0 105 0;
#X connect 96 0 97 0;
#X connect 97 0 107 0;
#X connect 98 0 99 0;
#X connect 99 0 108 0;
#X connect 100 0 101 0;
#X connect 105 0 83 0;
#X connect 105 1 85 0;
#X connect 105 2 86 0;
#X connect 105 3 88 0;
#X connect 105 4 96 0;
#X connect 105 5 98 0;
#X connect 105 6 100 0;
#X connect 109 0 110 0;
#X connect 109 1 110 1;
#X connect 111 0 109 1;
#X connect 112 0 109 2;
#X connect 113 0 116 0;
#X connect 113 1 116 1;
#X connect 114 0 113 1;
#X connect 115 0 113 2;
#X connect 117 0 124 0;
#X connect 117 1 124 1;
#X connect 118 0 117 1;
#X connect 119 0 117 2;
#X connect 120 0 123 0;
#X connect 120 1 123 1;
#X connect 121 0 120 1;
#X connect 122 0 120 2;
#X connect 125 0 128 0;
#X connect 125 1 128 1;
#X connect 126 0 125 1;
#X connect 127 0 125 2;
#X connect 129 0 131 0;
#X connect 129 0 149 0;
#X connect 130 0 129 0;
#X connect 131 0 155 0;
#X connect 132 0 136 0;
#X connect 133 0 132 1;
#X connect 134 0 158 0;
#X connect 135 0 130 1;
#X connect 136 0 134 0;
#X connect 136 0 152 0;
#X connect 137 0 130 0;
#X connect 138 0 132 0;
#X connect 139 0 141 0;
#X connect 139 0 150 0;
#X connect 140 0 139 0;
#X connect 141 0 156 0;
#X connect 142 0 146 0;
#X connect 143 0 142 1;
#X connect 144 0 159 0;
#X connect 145 0 140 1;
#X connect 146 0 144 0;
#X connect 146 0 153 0;
#X connect 147 0 140 0;
#X connect 148 0 142 0;
#X connect 160 0 177 0;
#X connect 160 0 170 0;
#X connect 161 0 44 0;
#X connect 162 0 13 0;
#X connect 163 0 20 0;
#X connect 170 0 171 0;
#X connect 170 1 172 0;
#X connect 170 2 173 0;
#X connect 170 3 174 0;
#X connect 170 4 175 0;
#X connect 170 5 176 0;
#X connect 178 0 179 0;
#X connect 178 0 186 0;
#X connect 186 0 180 0;
#X connect 186 1 181 0;
#X connect 186 2 182 0;
#X connect 186 3 183 0;
#X connect 186 4 184 0;
#X connect 186 5 185 0;
#X connect 187 0 209 0;
#X connect 187 0 208 0;
#X connect 194 0 211 0;
#X connect 194 0 210 0;
#X connect 201 0 213 0;
#X connect 201 0 212 0;
#X connect 208 0 188 0;
#X connect 208 1 189 0;
#X connect 208 2 190 0;
#X connect 208 3 191 0;
#X connect 208 4 192 0;
#X connect 208 5 193 0;
#X connect 210 0 195 0;
#X connect 210 1 196 0;
#X connect 210 2 197 0;
#X connect 210 3 198 0;
#X connect 210 4 199 0;
#X connect 210 5 200 0;
#X connect 212 0 202 0;
#X connect 212 1 203 0;
#X connect 212 2 204 0;
#X connect 212 3 205 0;
#X connect 212 4 206 0;
#X connect 212 5 207 0;
#X connect 214 0 27 0;
#X connect 215 0 34 0;
#X connect 216 0 223 0;
#X connect 216 0 224 0;
#X connect 224 0 217 0;
#X connect 224 1 218 0;
#X connect 224 2 219 0;
#X connect 224 3 220 0;
#X connect 224 4 221 0;
#X connect 224 5 222 0;
