#N canvas -24 29 1264 752 10;
#X declare -lib mrpeach;
#X floatatom 252 20 5 0 0 0 - - -;
#X floatatom 296 21 5 0 0 0 - - -;
#X floatatom 208 20 5 0 0 0 - - -;
#X obj 79 3 unpackOSC;
#X obj 50 27 print unpacked;
#X obj 51 -55 import mrpeach;
#X text 51 -17 recibiendo datos;
#X floatatom 164 21 5 0 0 0 - - -;
#X floatatom 428 21 5 0 0 0 - - -;
#X floatatom 473 22 5 0 0 0 - - -;
#X floatatom 384 21 5 0 0 0 - - -;
#X floatatom 340 20 5 0 0 0 - - -;
#X obj 43 -35 udpreceive 11112;
#X obj 165 -18 routeOSC /csv/AF3 /csv/F7 /csv/FC5 /csv/F8 /csv/FC6
/csv/T7 /csv/T8 /csv/O1;
#X obj 764 39 ctlout 1;
#X obj 860 40 ctlout 2;
#X floatatom 739 18 5 0 0 0 - - -;
#X obj 739 -4 -;
#X obj 739 46 vsl 15 30 0 5000 0 0 empty empty empty 0 -9 0 10 -33289
-262144 -1 96 1;
#X obj 844 -8 -;
#X floatatom 870 -30 5 0 0 0 - - -;
#X obj 835 39 vsl 15 30 0 5000 0 0 empty empty empty 0 -9 0 10 -1 -262144
-1 96 1;
#X floatatom 764 -27 5 0 0 0 - - -;
#X floatatom 844 16 5 0 0 0 - - -;
#X obj 209 42 s F7;
#X obj 164 43 s AF3;
#X obj 251 42 s FC5;
#X floatatom 295 231 5 0 0 0 - - -;
#X obj 254 232 bng 15 250 50 0 empty empty empty 17 7 0 10 -262144
-1 -1;
#X obj 254 253 t b;
#X obj 254 207 moses;
#X obj 254 159 average;
#X floatatom 254 185 5 0 0 0 - - -;
#X obj 296 255 / 127;
#X floatatom 255 305 5 0 0 0 - - -;
#X obj 254 135 r F7;
#X obj 255 329 + 10;
#X floatatom 438 227 5 0 0 0 - - -;
#X obj 397 228 bng 15 250 50 0 empty empty empty 17 7 0 10 -262144
-1 -1;
#X obj 397 249 t b;
#X obj 397 203 moses;
#X obj 397 155 average;
#X floatatom 397 181 5 0 0 0 - - -;
#X obj 439 251 / 127;
#X floatatom 398 301 5 0 0 0 - - -;
#X obj 397 131 r FC5;
#X floatatom 579 228 5 0 0 0 - - -;
#X obj 538 229 bng 15 250 50 0 empty empty empty 17 7 0 10 -262144
-1 -1;
#X obj 538 250 t b;
#X obj 538 204 moses;
#X obj 538 156 average;
#X floatatom 538 182 5 0 0 0 - - -;
#X obj 580 252 / 127;
#X floatatom 539 302 5 0 0 0 - - -;
#X floatatom 729 225 5 0 0 0 - - -;
#X obj 688 226 bng 15 250 50 0 empty empty empty 17 7 0 10 -262144
-1 -1;
#X obj 688 247 t b;
#X obj 688 201 moses;
#X obj 688 153 average;
#X floatatom 688 179 5 0 0 0 - - -;
#X obj 730 249 / 127;
#X floatatom 689 299 5 0 0 0 - - -;
#X obj 398 325 + 15;
#X obj 539 326 + 20;
#X obj 689 323 + 25;
#X floatatom 878 220 5 0 0 0 - - -;
#X obj 837 221 bng 15 250 50 0 empty empty empty 17 7 0 10 -262144
-1 -1;
#X obj 837 242 t b;
#X obj 837 196 moses;
#X obj 837 148 average;
#X floatatom 837 174 5 0 0 0 - - -;
#X obj 879 244 / 127;
#X floatatom 838 294 5 0 0 0 - - -;
#X obj 838 318 + 30;
#X obj 538 132 r F8;
#X obj 837 124 r T7;
#X floatatom 1030 218 5 0 0 0 - - -;
#X obj 989 219 bng 15 250 50 0 empty empty empty 17 7 0 10 -262144
-1 -1;
#X obj 989 240 t b;
#X obj 989 194 moses;
#X obj 989 146 average;
#X floatatom 989 172 5 0 0 0 - - -;
#X obj 1031 242 / 127;
#X floatatom 990 292 5 0 0 0 - - -;
#X obj 990 316 + 35;
#X obj 989 122 r T8;
#X floatatom 1183 216 5 0 0 0 - - -;
#X obj 1142 217 bng 15 250 50 0 empty empty empty 17 7 0 10 -262144
-1 -1;
#X obj 1142 238 t b;
#X obj 1142 192 moses;
#X obj 1142 144 average;
#X floatatom 1142 170 5 0 0 0 - - -;
#X obj 1184 240 / 127;
#X floatatom 1143 290 5 0 0 0 - - -;
#X obj 1142 120 r O1;
#X floatatom 50 292 5 0 0 0 - - -;
#X obj 50 268 counter;
#X obj 79 248 bng 15 250 50 0 empty empty empty 17 7 0 10 -262144 -1
-1;
#X floatatom 147 231 5 0 0 0 - - -;
#X obj 106 230 bng 15 250 50 0 empty empty empty 17 7 0 10 -262144
-1 -1;
#X obj 106 251 t b;
#X obj 106 205 moses;
#X obj 106 157 average;
#X obj 106 133 r AF3;
#X floatatom 106 183 5 0 0 0 - - -;
#X obj 148 255 / 127;
#X floatatom 107 303 5 0 0 0 - - -;
#X obj 107 327 + 5;
#X obj 297 42 s F8;
#X obj 340 43 s FC6;
#X obj 384 43 s T7;
#X obj 428 43 s T8;
#X obj 473 43 s O1;
#X obj 659 -25 bng 15 250 50 0 empty empty empty 17 7 0 10 -262144
-1 -1;
#X msg 587 -6 reset time;
#X obj 659 -5 s time;
#X obj 56 225 r time;
#X floatatom 200 294 5 0 0 0 - - -;
#X obj 200 270 counter;
#X obj 229 250 bng 15 250 50 0 empty empty empty 17 7 0 10 -262144
-1 -1;
#X obj 206 227 r time;
#X floatatom 348 290 5 0 0 0 - - -;
#X obj 348 266 counter;
#X obj 377 246 bng 15 250 50 0 empty empty empty 17 7 0 10 -262144
-1 -1;
#X obj 354 223 r time;
#X floatatom 489 291 5 0 0 0 - - -;
#X obj 489 267 counter;
#X obj 518 247 bng 15 250 50 0 empty empty empty 17 7 0 10 -262144
-1 -1;
#X obj 495 224 r time;
#X floatatom 638 288 5 0 0 0 - - -;
#X obj 638 264 counter;
#X obj 667 244 bng 15 250 50 0 empty empty empty 17 7 0 10 -262144
-1 -1;
#X obj 644 221 r time;
#X floatatom 788 283 5 0 0 0 - - -;
#X obj 788 259 counter;
#X obj 817 239 bng 15 250 50 0 empty empty empty 17 7 0 10 -262144
-1 -1;
#X obj 794 216 r time;
#X floatatom 937 281 5 0 0 0 - - -;
#X obj 937 257 counter;
#X obj 966 239 bng 15 250 50 0 empty empty empty 17 7 0 10 -262144
-1 -1;
#X obj 943 214 r time;
#X floatatom 1093 279 5 0 0 0 - - -;
#X obj 1093 255 counter;
#X obj 1122 235 bng 15 250 50 0 empty empty empty 17 7 0 10 -262144
-1 -1;
#X obj 1099 212 r time;
#X obj 528 41 average;
#X floatatom 107 350 5 0 0 0 - - -;
#X floatatom 255 353 5 0 0 0 - - -;
#X floatatom 398 350 5 0 0 0 - - -;
#X floatatom 539 351 5 0 0 0 - - -;
#X floatatom 689 349 5 0 0 0 - - -;
#X floatatom 838 346 5 0 0 0 - - -;
#X floatatom 990 341 5 0 0 0 - - -;
#X obj 1143 316 + 40;
#X floatatom 1143 344 5 0 0 0 - - -;
#X obj 688 129 r FC6;
#X obj 528 18 r AF3 F7 FC5 F8 FC6 T7 T8 O1;
#X obj 621 41 s avr;
#X obj 721 -28 r avr;
#X obj 827 -31 r avr;
#X floatatom 582 41 5 0 0 0 - - -;
#X obj 169 -56 hsl 250 30 0 127 0 0 empty empty EEG_Frequency_to_midi_notes
2 14 0 15 -1 -1 -191407 0 1;
#X obj 740 110 s ctl;
#X obj 834 97 s ctl1;
#X obj 110 408 r ctl;
#X obj 149 408 r ctl1;
#X text 89 499 Blues;
#X text 89 514 Major;
#X text 89 528 Aeolian;
#X text 90 543 Lydian;
#X text 90 558 Twilight Zone;
#N canvas 690 234 464 521 selectScale 0;
#X obj 143 324 s scale;
#X obj 135 4 loadbang;
#X obj 239 -67 inlet scale;
#X obj 165 -40 bng 15 250 50 0 empty empty empty 17 7 0 10 -262144
-1 -1;
#X msg 216 -7 0 1 2 3 4 5 6 7 8 9 10 11;
#X msg 147 42 0 2 5 7 9;
#X msg 162 76 0 2 4 6 8 10;
#X msg 193 113 0 3 5 6 7 10;
#X msg 193 138 0 2 4 5 7 9 11;
#X msg 185 178 0 2 3 5 7 8 10;
#X msg 214 206 0 2 4 6 7 9 11;
#X msg 220 239 4 8 9 10;
#X msg 292 267 0 3 5 7 10;
#X msg 335 304 0 2 4 7 9;
#X obj 238 -39 sel 0 1 2 3 4 5 6 7 8 9;
#X connect 1 0 5 0;
#X connect 2 0 3 0;
#X connect 2 0 14 0;
#X connect 4 0 0 0;
#X connect 5 0 0 0;
#X connect 6 0 0 0;
#X connect 7 0 0 0;
#X connect 8 0 0 0;
#X connect 9 0 0 0;
#X connect 10 0 0 0;
#X connect 11 0 0 0;
#X connect 12 0 0 0;
#X connect 13 0 0 0;
#X connect 14 0 4 0;
#X connect 14 1 5 0;
#X connect 14 2 6 0;
#X connect 14 3 7 0;
#X connect 14 4 8 0;
#X connect 14 5 9 0;
#X connect 14 6 10 0;
#X connect 14 7 11 0;
#X connect 14 8 12 0;
#X connect 14 9 13 0;
#X restore 71 607 pd selectScale;
#X obj 70 454 vradio 15 1 1 10 empty empty empty 0 -8 0 10 -262144
-45076 -1 4;
#X text 89 484 Whole Tone;
#X text 89 467 Pentatonic;
#X text 88 452 Chromatic;
#X text 92 573 Custom;
#X text 92 589 comment;
#X obj 47 383 makenote;
#X obj 47 408 noteout 1;
#X obj 275 410 r ctl;
#X obj 314 410 r ctl1;
#X obj 212 385 makenote;
#X floatatom 883 92 5 0 0 0 - - -;
#X floatatom 782 85 5 0 0 0 - - -;
#X obj 212 410 noteout 2;
#X obj 430 409 r ctl;
#X obj 469 409 r ctl1;
#X obj 367 384 makenote;
#X obj 367 409 noteout 3;
#X obj 587 410 r ctl;
#X obj 626 410 r ctl1;
#X obj 524 385 makenote;
#X obj 524 410 noteout 4;
#X obj 741 409 r ctl;
#X obj 780 409 r ctl1;
#X obj 678 384 makenote;
#X obj 678 409 noteout 5;
#X obj 896 406 r ctl;
#X obj 935 406 r ctl1;
#X obj 833 381 makenote;
#X obj 833 406 noteout 6;
#X obj 1047 404 r ctl;
#X obj 1086 404 r ctl1;
#X obj 984 379 makenote;
#X obj 984 404 noteout 8;
#X obj 741 85 / 1;
#X obj 835 76 / 1;
#X obj 1199 403 r ctl;
#X obj 1238 403 r ctl1;
#X obj 1136 378 makenote;
#X obj 1136 403 noteout 9;
#X floatatom 733 352 5 0 0 0 - - -;
#X floatatom 771 353 5 0 0 0 - - -;
#X floatatom 578 351 5 0 0 0 - - -;
#X floatatom 616 352 5 0 0 0 - - -;
#X floatatom 1027 339 5 0 0 0 - - -;
#X floatatom 1065 340 5 0 0 0 - - -;
#X floatatom 437 352 5 0 0 0 - - -;
#X floatatom 475 353 5 0 0 0 - - -;
#X floatatom 295 355 5 0 0 0 - - -;
#X floatatom 333 356 5 0 0 0 - - -;
#X floatatom 144 350 5 0 0 0 - - -;
#X floatatom 180 351 5 0 0 0 - - -;
#X floatatom 880 346 5 0 0 0 - - -;
#X floatatom 918 347 5 0 0 0 - - -;
#X floatatom 1180 343 5 0 0 0 - - -;
#X floatatom 1218 344 5 0 0 0 - - -;
#X connect 0 0 26 0;
#X connect 1 0 108 0;
#X connect 2 0 24 0;
#X connect 3 0 13 0;
#X connect 7 0 25 0;
#X connect 8 0 111 0;
#X connect 9 0 112 0;
#X connect 10 0 110 0;
#X connect 11 0 109 0;
#X connect 12 0 3 0;
#X connect 13 0 7 0;
#X connect 13 1 2 0;
#X connect 13 2 0 0;
#X connect 13 3 1 0;
#X connect 13 4 11 0;
#X connect 13 5 10 0;
#X connect 13 6 8 0;
#X connect 13 7 9 0;
#X connect 16 0 14 0;
#X connect 16 0 18 0;
#X connect 17 0 16 0;
#X connect 18 0 206 0;
#X connect 19 0 23 0;
#X connect 20 0 19 1;
#X connect 21 0 207 0;
#X connect 22 0 17 1;
#X connect 23 0 21 0;
#X connect 23 0 15 0;
#X connect 27 0 33 0;
#X connect 28 0 29 0;
#X connect 29 0 34 0;
#X connect 29 0 118 0;
#X connect 30 0 28 0;
#X connect 30 1 27 0;
#X connect 31 0 32 0;
#X connect 32 0 30 0;
#X connect 32 0 30 1;
#X connect 33 0 34 0;
#X connect 34 0 36 0;
#X connect 35 0 31 0;
#X connect 36 0 147 0;
#X connect 37 0 43 0;
#X connect 38 0 39 0;
#X connect 39 0 44 0;
#X connect 39 0 122 0;
#X connect 40 0 38 0;
#X connect 40 1 37 0;
#X connect 41 0 42 0;
#X connect 42 0 40 0;
#X connect 42 0 40 1;
#X connect 43 0 44 0;
#X connect 44 0 62 0;
#X connect 45 0 41 0;
#X connect 46 0 52 0;
#X connect 47 0 48 0;
#X connect 48 0 53 0;
#X connect 48 0 126 0;
#X connect 49 0 47 0;
#X connect 49 1 46 0;
#X connect 50 0 51 0;
#X connect 51 0 49 0;
#X connect 51 0 49 1;
#X connect 52 0 53 0;
#X connect 53 0 63 0;
#X connect 54 0 60 0;
#X connect 55 0 56 0;
#X connect 56 0 61 0;
#X connect 56 0 130 0;
#X connect 57 0 55 0;
#X connect 57 1 54 0;
#X connect 58 0 59 0;
#X connect 59 0 57 0;
#X connect 59 0 57 1;
#X connect 60 0 61 0;
#X connect 61 0 64 0;
#X connect 62 0 148 0;
#X connect 63 0 149 0;
#X connect 64 0 150 0;
#X connect 65 0 71 0;
#X connect 66 0 67 0;
#X connect 67 0 72 0;
#X connect 67 0 134 0;
#X connect 68 0 66 0;
#X connect 68 1 65 0;
#X connect 69 0 70 0;
#X connect 70 0 68 0;
#X connect 70 0 68 1;
#X connect 71 0 72 0;
#X connect 72 0 73 0;
#X connect 73 0 151 0;
#X connect 74 0 50 0;
#X connect 75 0 69 0;
#X connect 76 0 82 0;
#X connect 77 0 78 0;
#X connect 78 0 83 0;
#X connect 78 0 138 0;
#X connect 79 0 77 0;
#X connect 79 1 76 0;
#X connect 80 0 81 0;
#X connect 81 0 79 0;
#X connect 81 0 79 1;
#X connect 82 0 83 0;
#X connect 83 0 84 0;
#X connect 84 0 152 0;
#X connect 85 0 80 0;
#X connect 86 0 92 0;
#X connect 87 0 88 0;
#X connect 88 0 93 0;
#X connect 88 0 142 0;
#X connect 89 0 87 0;
#X connect 89 1 86 0;
#X connect 90 0 91 0;
#X connect 91 0 89 0;
#X connect 91 0 89 1;
#X connect 92 0 93 0;
#X connect 93 0 153 0;
#X connect 94 0 90 0;
#X connect 96 0 95 0;
#X connect 97 0 96 3;
#X connect 98 0 105 0;
#X connect 99 0 100 0;
#X connect 100 0 106 0;
#X connect 100 0 96 0;
#X connect 101 0 99 0;
#X connect 101 1 98 0;
#X connect 102 0 104 0;
#X connect 103 0 102 0;
#X connect 104 0 101 0;
#X connect 104 0 101 1;
#X connect 105 0 106 0;
#X connect 106 0 107 0;
#X connect 107 0 146 0;
#X connect 113 0 115 0;
#X connect 114 0 113 0;
#X connect 116 0 97 0;
#X connect 118 0 117 0;
#X connect 119 0 118 3;
#X connect 120 0 119 0;
#X connect 122 0 121 0;
#X connect 123 0 122 3;
#X connect 124 0 123 0;
#X connect 126 0 125 0;
#X connect 127 0 126 3;
#X connect 128 0 127 0;
#X connect 130 0 129 0;
#X connect 131 0 130 3;
#X connect 132 0 131 0;
#X connect 134 0 133 0;
#X connect 135 0 134 3;
#X connect 136 0 135 0;
#X connect 138 0 137 0;
#X connect 139 0 138 3;
#X connect 140 0 139 0;
#X connect 142 0 141 0;
#X connect 143 0 142 3;
#X connect 144 0 143 0;
#X connect 145 0 160 0;
#X connect 146 0 178 0;
#X connect 147 0 182 0;
#X connect 148 0 188 0;
#X connect 149 0 192 0;
#X connect 150 0 196 0;
#X connect 151 0 200 0;
#X connect 152 0 204 0;
#X connect 153 0 154 0;
#X connect 154 0 210 0;
#X connect 155 0 58 0;
#X connect 156 0 145 0;
#X connect 158 0 17 0;
#X connect 159 0 19 0;
#X connect 160 0 157 0;
#X connect 164 0 178 1;
#X connect 165 0 178 2;
#X connect 172 0 171 0;
#X connect 178 0 179 0;
#X connect 178 1 179 1;
#X connect 180 0 182 1;
#X connect 181 0 182 2;
#X connect 182 0 185 0;
#X connect 182 1 185 1;
#X connect 188 0 189 0;
#X connect 188 1 189 1;
#X connect 192 0 193 0;
#X connect 192 1 193 1;
#X connect 196 0 197 0;
#X connect 196 1 197 1;
#X connect 198 0 200 1;
#X connect 199 0 200 2;
#X connect 200 0 201 0;
#X connect 200 1 201 1;
#X connect 204 0 205 0;
#X connect 204 1 205 1;
#X connect 206 0 162 0;
#X connect 206 0 184 0;
#X connect 207 0 163 0;
#X connect 207 0 183 0;
#X connect 208 0 210 1;
#X connect 209 0 210 2;
#X connect 210 0 211 0;
#X connect 210 1 211 1;
#X connect 212 0 196 1;
#X connect 213 0 196 2;
#X connect 214 0 192 1;
#X connect 215 0 192 2;
#X connect 216 0 204 1;
#X connect 217 0 204 2;
#X connect 218 0 188 1;
#X connect 219 0 188 2;
#X connect 220 0 182 1;
#X connect 221 0 182 2;
#X connect 222 0 178 1;
#X connect 223 0 178 2;
#X connect 224 0 200 1;
#X connect 225 0 200 2;
#X connect 226 0 210 1;
#X connect 227 0 210 2;
