#N canvas 137 22 1280 720 10;
#X declare -lib mrpeach;
#X floatatom 74 170 5 0 0 0 - - -;
#X floatatom 111 169 5 0 0 0 - - -;
#X floatatom 36 170 5 0 0 0 - - -;
#X floatatom -7 173 5 0 0 0 - - -;
#X floatatom 185 168 5 0 0 0 - - -;
#X floatatom 149 168 5 0 0 0 - - -;
#X obj -10 248 s AF3d;
#X obj 36 259 s F7d;
#X obj 74 259 s F3d;
#X obj 111 258 s F4d;
#X obj 148 257 s F8d;
#X obj 185 257 s AF4d;
#X floatatom 161 441 5 0 0 0 - - -;
#X floatatom 198 440 5 0 0 0 - - -;
#X floatatom 123 441 5 0 0 0 - - -;
#X floatatom 80 444 5 0 0 0 - - -;
#X floatatom 272 439 5 0 0 0 - - -;
#X floatatom 236 439 5 0 0 0 - - -;
#X obj 79 538 s AF3t;
#X obj 122 538 s F7t;
#X obj 160 537 s F3t;
#X obj 197 536 s F4t;
#X obj 234 536 s F8t;
#X obj 271 535 s AF4t;
#X floatatom 430 465 5 0 0 0 - - -;
#X floatatom 469 462 5 0 0 0 - - -;
#X floatatom 392 465 5 0 0 0 - - -;
#X floatatom 349 468 5 0 0 0 - - -;
#X floatatom 541 463 5 0 0 0 - - -;
#X floatatom 505 463 5 0 0 0 - - -;
#X obj 349 604 s AF3a;
#X obj 392 604 s F7a;
#X obj 430 603 s F3a;
#X obj 467 602 s F4a;
#X obj 504 602 s F8a;
#X obj 541 601 s AF4a;
#X floatatom 650 322 5 0 0 0 - - -;
#X floatatom 687 321 5 0 0 0 - - -;
#X floatatom 612 322 5 0 0 0 - - -;
#X floatatom 569 325 5 0 0 0 - - -;
#X floatatom 761 320 5 0 0 0 - - -;
#X floatatom 725 320 5 0 0 0 - - -;
#X obj -8 197 * 0.2;
#X floatatom -10 222 5 0 0 0 - - -;
#X obj 37 205 * 0.2;
#X floatatom 35 230 5 0 0 0 - - -;
#X obj 72 206 * 0.2;
#X floatatom 70 231 5 0 0 0 - - -;
#X obj 112 208 * 0.2;
#X floatatom 110 233 5 0 0 0 - - -;
#X obj 151 207 * 0.2;
#X floatatom 149 232 5 0 0 0 - - -;
#X obj 190 208 * 0.2;
#X floatatom 188 233 5 0 0 0 - - -;
#X obj 79 472 * 0.2;
#X floatatom 77 497 5 0 0 0 - - -;
#X obj 120 470 * 0.2;
#X floatatom 118 495 5 0 0 0 - - -;
#X obj 155 471 * 0.2;
#X floatatom 153 496 5 0 0 0 - - -;
#X obj 195 473 * 0.2;
#X floatatom 193 498 5 0 0 0 - - -;
#X obj 234 472 * 0.2;
#X floatatom 232 497 5 0 0 0 - - -;
#X obj 273 473 * 0.2;
#X floatatom 271 498 5 0 0 0 - - -;
#X obj 351 528 * 0.2;
#X floatatom 349 553 5 0 0 0 - - -;
#X obj 392 526 * 0.2;
#X floatatom 390 551 5 0 0 0 - - -;
#X obj 427 527 * 0.2;
#X floatatom 425 552 5 0 0 0 - - -;
#X obj 467 529 * 0.2;
#X floatatom 465 554 5 0 0 0 - - -;
#X obj 506 528 * 0.2;
#X floatatom 504 553 5 0 0 0 - - -;
#X obj 545 529 * 0.2;
#X floatatom 543 554 5 0 0 0 - - -;
#X obj 589 349 * 0.2;
#X floatatom 587 374 5 0 0 0 - - -;
#X obj 630 347 * 0.2;
#X floatatom 628 372 5 0 0 0 - - -;
#X obj 665 348 * 0.2;
#X floatatom 663 373 5 0 0 0 - - -;
#X obj 705 350 * 0.2;
#X floatatom 703 375 5 0 0 0 - - -;
#X obj 744 349 * 0.2;
#X floatatom 742 374 5 0 0 0 - - -;
#X obj 783 350 * 0.2;
#X floatatom 781 375 5 0 0 0 - - -;
#X obj 613 401 s AF3sb;
#X obj 656 401 s F7sb;
#X obj 694 400 s F3sb;
#X obj 731 399 s F4sb;
#X obj 768 399 s F8sb;
#X obj 805 398 s AF4sb;
#N canvas 108 273 806 581 OSC 0;
#X obj 42 -2 unpackOSC;
#X text 50 -15 recibiendo datos;
#X obj 43 -45 import mrpeach;
#X obj 34 42 print unpacked;
#X obj 42 -26 udpreceive 8666;
#X obj 149 2 outlet;
#X obj 203 2 outlet;
#X obj 255 1 outlet;
#X obj 302 1 outlet;
#X obj 361 1 outlet;
#X obj 438 1 outlet;
#X obj 153 -41 routeOSC /potencial/AF3/d /potencial/F7/d /potencial/F3/d
/potencial/F4/d /potencial/F8/d /potencial/AF4/d;
#X obj 155 78 outlet;
#X obj 213 78 outlet;
#X obj 269 78 outlet;
#X obj 325 78 outlet;
#X obj 384 78 outlet;
#X obj 440 78 outlet;
#X obj 155 36 routeOSC /potencial/AF3/t /potencial/F7/t /potencial/F3/t
/potencial/F4/t /potencial/F8/t /potencial/AF4/t;
#X obj 157 153 outlet;
#X obj 215 153 outlet;
#X obj 271 153 outlet;
#X obj 327 153 outlet;
#X obj 386 153 outlet;
#X obj 442 153 outlet;
#X obj 157 111 routeOSC /potencial/AF3/a /potencial/F7/a /potencial/F3/a
/potencial/F4/a /potencial/F8/a /potencial/AF4/a;
#X obj 157 229 outlet;
#X obj 215 229 outlet;
#X obj 271 229 outlet;
#X obj 327 229 outlet;
#X obj 386 229 outlet;
#X obj 439 239 outlet;
#X obj 157 187 routeOSC /potencial/AF3/sb /potencial/F7/sb /potencial/F3/sb
/potencial/F4/sb /potencial/F8/sb /potencial/AF4/sb;
#X obj 160 324 outlet;
#X obj 216 317 outlet;
#X obj 271 328 outlet;
#X obj 327 325 outlet;
#X obj 389 335 outlet;
#X obj 442 335 outlet;
#X obj 160 266 routeOSC /potencial/AF3/mb /potencial/F7/mb /potencial/F3/mb
/potencial/F4/mb /potencial/F8/mb /potencial/AF4/mb;
#X connect 0 0 11 0;
#X connect 0 0 18 0;
#X connect 0 0 25 0;
#X connect 0 0 32 0;
#X connect 0 0 39 0;
#X connect 4 0 0 0;
#X connect 11 0 5 0;
#X connect 11 1 6 0;
#X connect 11 2 7 0;
#X connect 11 3 8 0;
#X connect 11 4 9 0;
#X connect 11 5 10 0;
#X connect 18 0 12 0;
#X connect 18 1 13 0;
#X connect 18 2 14 0;
#X connect 18 3 15 0;
#X connect 18 4 16 0;
#X connect 18 5 17 0;
#X connect 25 0 19 0;
#X connect 25 1 20 0;
#X connect 25 2 21 0;
#X connect 25 3 22 0;
#X connect 25 4 23 0;
#X connect 25 5 24 0;
#X connect 32 0 26 0;
#X connect 32 1 27 0;
#X connect 32 2 28 0;
#X connect 32 3 29 0;
#X connect 32 4 30 0;
#X connect 32 5 31 0;
#X connect 39 0 33 0;
#X connect 39 1 34 0;
#X connect 39 2 35 0;
#X connect 39 3 36 0;
#X connect 39 4 37 0;
#X connect 39 5 38 0;
#X coords 0 581 1 580 300 85 0;
#X restore 306 54 pd OSC 1 2 3 4 5 6 7 8 9 10 11 12 13 14 15 16 17
18 19 20 21 22 23 24 25 26 27 28 29 30 31 32 33 34 35 36 37 38 39 40
41 42 43 44;
#X floatatom 883 186 5 0 0 0 - - -;
#X floatatom 920 185 5 0 0 0 - - -;
#X floatatom 845 186 5 0 0 0 - - -;
#X floatatom 802 189 5 0 0 0 - - -;
#X floatatom 1020 175 5 0 0 0 - - -;
#X floatatom 958 184 5 0 0 0 - - -;
#X obj 822 213 * 0.2;
#X floatatom 820 238 5 0 0 0 - - -;
#X obj 863 211 * 0.2;
#X floatatom 861 236 5 0 0 0 - - -;
#X obj 898 212 * 0.2;
#X floatatom 896 237 5 0 0 0 - - -;
#X obj 938 214 * 0.2;
#X floatatom 936 239 5 0 0 0 - - -;
#X obj 991 214 * 0.2;
#X floatatom 989 239 5 0 0 0 - - -;
#X obj 1044 206 * 0.2;
#X floatatom 1042 231 5 0 0 0 - - -;
#X obj 846 265 s AF3mb;
#X obj 889 265 s F7mb;
#X obj 927 264 s F3mb;
#X obj 964 263 s F4mb;
#X obj 1011 258 s F8mb;
#X obj 1066 254 s AF4mb;
#X connect 0 0 46 0;
#X connect 1 0 48 0;
#X connect 2 0 44 0;
#X connect 3 0 42 0;
#X connect 4 0 52 0;
#X connect 5 0 50 0;
#X connect 12 0 58 0;
#X connect 13 0 60 0;
#X connect 14 0 56 0;
#X connect 15 0 54 0;
#X connect 16 0 64 0;
#X connect 17 0 62 0;
#X connect 24 0 70 0;
#X connect 25 0 72 0;
#X connect 26 0 68 0;
#X connect 27 0 66 0;
#X connect 28 0 76 0;
#X connect 29 0 74 0;
#X connect 36 0 82 0;
#X connect 37 0 84 0;
#X connect 38 0 80 0;
#X connect 39 0 78 0;
#X connect 40 0 88 0;
#X connect 41 0 86 0;
#X connect 42 0 43 0;
#X connect 43 0 6 0;
#X connect 44 0 45 0;
#X connect 45 0 7 0;
#X connect 46 0 47 0;
#X connect 47 0 8 0;
#X connect 48 0 49 0;
#X connect 49 0 9 0;
#X connect 50 0 51 0;
#X connect 51 0 10 0;
#X connect 52 0 53 0;
#X connect 53 0 11 0;
#X connect 54 0 55 0;
#X connect 55 0 18 0;
#X connect 56 0 57 0;
#X connect 57 0 19 0;
#X connect 58 0 59 0;
#X connect 59 0 20 0;
#X connect 60 0 61 0;
#X connect 61 0 21 0;
#X connect 62 0 63 0;
#X connect 63 0 22 0;
#X connect 64 0 65 0;
#X connect 65 0 23 0;
#X connect 66 0 67 0;
#X connect 67 0 30 0;
#X connect 68 0 69 0;
#X connect 69 0 31 0;
#X connect 70 0 71 0;
#X connect 71 0 32 0;
#X connect 72 0 73 0;
#X connect 73 0 33 0;
#X connect 74 0 75 0;
#X connect 75 0 34 0;
#X connect 76 0 77 0;
#X connect 77 0 35 0;
#X connect 78 0 79 0;
#X connect 79 0 90 0;
#X connect 80 0 81 0;
#X connect 81 0 91 0;
#X connect 82 0 83 0;
#X connect 83 0 92 0;
#X connect 84 0 85 0;
#X connect 85 0 93 0;
#X connect 86 0 87 0;
#X connect 87 0 94 0;
#X connect 88 0 89 0;
#X connect 89 0 95 0;
#X connect 96 0 3 0;
#X connect 96 1 2 0;
#X connect 96 2 0 0;
#X connect 96 3 1 0;
#X connect 96 4 5 0;
#X connect 96 5 4 0;
#X connect 96 6 15 0;
#X connect 96 7 14 0;
#X connect 96 8 12 0;
#X connect 96 9 13 0;
#X connect 96 10 17 0;
#X connect 96 11 16 0;
#X connect 96 12 27 0;
#X connect 96 13 26 0;
#X connect 96 14 24 0;
#X connect 96 15 25 0;
#X connect 96 16 29 0;
#X connect 96 17 28 0;
#X connect 96 18 39 0;
#X connect 96 19 38 0;
#X connect 96 20 36 0;
#X connect 96 21 37 0;
#X connect 96 22 41 0;
#X connect 96 23 40 0;
#X connect 96 24 100 0;
#X connect 96 25 99 0;
#X connect 96 26 97 0;
#X connect 96 27 98 0;
#X connect 96 28 102 0;
#X connect 96 29 101 0;
#X connect 97 0 107 0;
#X connect 98 0 109 0;
#X connect 99 0 105 0;
#X connect 100 0 103 0;
#X connect 101 0 113 0;
#X connect 102 0 111 0;
#X connect 103 0 104 0;
#X connect 104 0 115 0;
#X connect 105 0 106 0;
#X connect 106 0 116 0;
#X connect 107 0 108 0;
#X connect 108 0 117 0;
#X connect 109 0 110 0;
#X connect 110 0 118 0;
#X connect 111 0 112 0;
#X connect 112 0 119 0;
#X connect 113 0 114 0;
#X connect 114 0 120 0;
